G04 #@! TF.GenerationSoftware,KiCad,Pcbnew,no-vcs-found-6223534~58~ubuntu16.04.1*
G04 #@! TF.CreationDate,2017-03-08T16:15:12-05:00*
G04 #@! TF.ProjectId,optical_switch_interface_3x2,6F70746963616C5F7377697463685F69,1.0*
G04 #@! TF.FileFunction,Soldermask,Top*
G04 #@! TF.FilePolarity,Negative*
%FSLAX46Y46*%
G04 Gerber Fmt 4.6, Leading zero omitted, Abs format (unit mm)*
G04 Created by KiCad (PCBNEW no-vcs-found-6223534~58~ubuntu16.04.1) date Wed Mar  8 16:15:12 2017*
%MOMM*%
%LPD*%
G01*
G04 APERTURE LIST*
%ADD10C,0.100000*%
%ADD11C,0.228600*%
%ADD12O,1.854200X2.540000*%
%ADD13R,1.854200X2.540000*%
%ADD14C,3.556000*%
%ADD15O,5.080000X3.048000*%
%ADD16O,2.032000X1.524000*%
%ADD17O,1.524000X2.032000*%
%ADD18R,1.270000X3.175000*%
G04 APERTURE END LIST*
D10*
D11*
X155575000Y-68580000D02*
X85725000Y-68580000D01*
X155575000Y-109220000D02*
X155575000Y-68580000D01*
X85725000Y-109220000D02*
X155575000Y-109220000D01*
X85725000Y-68580000D02*
X85725000Y-109220000D01*
D12*
X90805000Y-71120000D03*
X93345000Y-71120000D03*
D13*
X88265000Y-71120000D03*
D12*
X95885000Y-71120000D03*
X98425000Y-71120000D03*
X100965000Y-71120000D03*
X103505000Y-71120000D03*
X106045000Y-71120000D03*
X108585000Y-71120000D03*
X111125000Y-71120000D03*
X113665000Y-71120000D03*
X116205000Y-71120000D03*
X118745000Y-71120000D03*
X121285000Y-71120000D03*
X123825000Y-71120000D03*
X126365000Y-71120000D03*
X126365000Y-106680000D03*
X123825000Y-106680000D03*
X121285000Y-106680000D03*
X118745000Y-106680000D03*
X116205000Y-106680000D03*
X113665000Y-106680000D03*
X111125000Y-106680000D03*
X108585000Y-106680000D03*
X106045000Y-106680000D03*
X103505000Y-106680000D03*
X100965000Y-106680000D03*
X98425000Y-106680000D03*
X95885000Y-106680000D03*
X93345000Y-106680000D03*
X90805000Y-106680000D03*
X88265000Y-106680000D03*
D14*
X89535000Y-76200000D03*
X89535000Y-101600000D03*
X130175000Y-106680000D03*
X130175000Y-71120000D03*
D15*
X149860000Y-71120000D03*
X149860000Y-81280000D03*
D16*
X143764000Y-76200000D03*
D17*
X140970000Y-76200000D03*
X140970000Y-78994000D03*
X140970000Y-73406000D03*
X140970000Y-98806000D03*
X140970000Y-104394000D03*
X140970000Y-101600000D03*
D16*
X143764000Y-101600000D03*
D15*
X149860000Y-106680000D03*
X149860000Y-96520000D03*
D18*
X107315000Y-84010500D03*
X109855000Y-79819500D03*
X104775000Y-79819500D03*
X102235000Y-84010500D03*
X99695000Y-79819500D03*
X120015000Y-79819500D03*
X122555000Y-84010500D03*
X125095000Y-79819500D03*
X130175000Y-79819500D03*
X127635000Y-84010500D03*
X107315000Y-97980500D03*
X109855000Y-93789500D03*
X104775000Y-93789500D03*
X102235000Y-97980500D03*
X99695000Y-93789500D03*
X120015000Y-93789500D03*
X122555000Y-97980500D03*
X125095000Y-93789500D03*
X130175000Y-93789500D03*
X127635000Y-97980500D03*
M02*
