G04 #@! TF.GenerationSoftware,KiCad,Pcbnew,no-vcs-found-6223534~58~ubuntu16.04.1*
G04 #@! TF.CreationDate,2017-03-08T16:15:12-05:00*
G04 #@! TF.ProjectId,optical_switch_interface_3x2,6F70746963616C5F7377697463685F69,1.0*
G04 #@! TF.FileFunction,Soldermask,Bot*
G04 #@! TF.FilePolarity,Negative*
%FSLAX46Y46*%
G04 Gerber Fmt 4.6, Leading zero omitted, Abs format (unit mm)*
G04 Created by KiCad (PCBNEW no-vcs-found-6223534~58~ubuntu16.04.1) date Wed Mar  8 16:15:12 2017*
%MOMM*%
%LPD*%
G01*
G04 APERTURE LIST*
%ADD10C,0.100000*%
%ADD11C,0.228600*%
%ADD12O,1.854200X2.540000*%
%ADD13R,1.854200X2.540000*%
%ADD14C,3.556000*%
%ADD15R,2.540000X1.270000*%
%ADD16O,5.080000X3.048000*%
%ADD17O,2.032000X1.524000*%
%ADD18O,1.524000X2.032000*%
%ADD19R,1.270000X2.540000*%
%ADD20R,0.740000X2.140000*%
G04 APERTURE END LIST*
D10*
D11*
X155575000Y-68580000D02*
X85725000Y-68580000D01*
X155575000Y-109220000D02*
X155575000Y-68580000D01*
X85725000Y-109220000D02*
X155575000Y-109220000D01*
X85725000Y-68580000D02*
X85725000Y-109220000D01*
D12*
X90805000Y-71120000D03*
X93345000Y-71120000D03*
D13*
X88265000Y-71120000D03*
D12*
X95885000Y-71120000D03*
X98425000Y-71120000D03*
X100965000Y-71120000D03*
X103505000Y-71120000D03*
X106045000Y-71120000D03*
X108585000Y-71120000D03*
X111125000Y-71120000D03*
X113665000Y-71120000D03*
X116205000Y-71120000D03*
X118745000Y-71120000D03*
X121285000Y-71120000D03*
X123825000Y-71120000D03*
X126365000Y-71120000D03*
X126365000Y-106680000D03*
X123825000Y-106680000D03*
X121285000Y-106680000D03*
X118745000Y-106680000D03*
X116205000Y-106680000D03*
X113665000Y-106680000D03*
X111125000Y-106680000D03*
X108585000Y-106680000D03*
X106045000Y-106680000D03*
X103505000Y-106680000D03*
X100965000Y-106680000D03*
X98425000Y-106680000D03*
X95885000Y-106680000D03*
X93345000Y-106680000D03*
X90805000Y-106680000D03*
X88265000Y-106680000D03*
D14*
X89535000Y-76200000D03*
X89535000Y-101600000D03*
X130175000Y-106680000D03*
X130175000Y-71120000D03*
D15*
X130810000Y-90424000D03*
X130810000Y-87376000D03*
D16*
X149860000Y-71120000D03*
X149860000Y-81280000D03*
D17*
X143764000Y-76200000D03*
D18*
X140970000Y-76200000D03*
X140970000Y-78994000D03*
X140970000Y-73406000D03*
X140970000Y-98806000D03*
X140970000Y-104394000D03*
X140970000Y-101600000D03*
D17*
X143764000Y-101600000D03*
D16*
X149860000Y-106680000D03*
X149860000Y-96520000D03*
D19*
X105791000Y-81915000D03*
X108839000Y-81915000D03*
X129159000Y-81915000D03*
X126111000Y-81915000D03*
X105791000Y-95885000D03*
X108839000Y-95885000D03*
X129159000Y-95885000D03*
X126111000Y-95885000D03*
D20*
X135255000Y-93550000D03*
X136525000Y-93550000D03*
X137795000Y-93550000D03*
X139065000Y-93550000D03*
X140335000Y-93550000D03*
X141605000Y-93550000D03*
X142875000Y-93550000D03*
X144145000Y-93550000D03*
X145415000Y-93550000D03*
X146685000Y-93550000D03*
X146685000Y-84250000D03*
X145415000Y-84250000D03*
X144145000Y-84250000D03*
X142875000Y-84250000D03*
X141605000Y-84250000D03*
X140335000Y-84250000D03*
X139065000Y-84250000D03*
X137795000Y-84250000D03*
X136525000Y-84250000D03*
X135255000Y-84250000D03*
M02*
