G04 #@! TF.GenerationSoftware,KiCad,Pcbnew,no-vcs-found-6223534~58~ubuntu16.04.1*
G04 #@! TF.CreationDate,2017-03-08T16:15:12-05:00*
G04 #@! TF.ProjectId,optical_switch_interface_3x2,6F70746963616C5F7377697463685F69,1.0*
G04 #@! TF.FileFunction,Legend,Top*
G04 #@! TF.FilePolarity,Positive*
%FSLAX46Y46*%
G04 Gerber Fmt 4.6, Leading zero omitted, Abs format (unit mm)*
G04 Created by KiCad (PCBNEW no-vcs-found-6223534~58~ubuntu16.04.1) date Wed Mar  8 16:15:12 2017*
%MOMM*%
%LPD*%
G01*
G04 APERTURE LIST*
%ADD10C,0.100000*%
%ADD11C,0.508000*%
%ADD12C,0.228600*%
%ADD13C,0.190500*%
%ADD14C,0.254000*%
%ADD15C,0.381000*%
%ADD16O,1.854200X2.540000*%
%ADD17R,1.854200X2.540000*%
%ADD18C,3.556000*%
%ADD19O,5.080000X3.048000*%
%ADD20O,2.032000X1.524000*%
%ADD21O,1.524000X2.032000*%
%ADD22R,1.270000X3.175000*%
G04 APERTURE END LIST*
D10*
D11*
X95939428Y-100045761D02*
X96036190Y-99949000D01*
X96229714Y-99852238D01*
X96713523Y-99852238D01*
X96907047Y-99949000D01*
X97003809Y-100045761D01*
X97100571Y-100239285D01*
X97100571Y-100432809D01*
X97003809Y-100723095D01*
X95842666Y-101884238D01*
X97100571Y-101884238D01*
X116162666Y-99852238D02*
X117420571Y-99852238D01*
X116743238Y-100626333D01*
X117033523Y-100626333D01*
X117227047Y-100723095D01*
X117323809Y-100819857D01*
X117420571Y-101013380D01*
X117420571Y-101497190D01*
X117323809Y-101690714D01*
X117227047Y-101787476D01*
X117033523Y-101884238D01*
X116452952Y-101884238D01*
X116259428Y-101787476D01*
X116162666Y-101690714D01*
X117420571Y-87914238D02*
X116259428Y-87914238D01*
X116840000Y-87914238D02*
X116840000Y-85882238D01*
X116646476Y-86172523D01*
X116452952Y-86366047D01*
X116259428Y-86462809D01*
X96423238Y-85882238D02*
X96616761Y-85882238D01*
X96810285Y-85979000D01*
X96907047Y-86075761D01*
X97003809Y-86269285D01*
X97100571Y-86656333D01*
X97100571Y-87140142D01*
X97003809Y-87527190D01*
X96907047Y-87720714D01*
X96810285Y-87817476D01*
X96616761Y-87914238D01*
X96423238Y-87914238D01*
X96229714Y-87817476D01*
X96132952Y-87720714D01*
X96036190Y-87527190D01*
X95939428Y-87140142D01*
X95939428Y-86656333D01*
X96036190Y-86269285D01*
X96132952Y-86075761D01*
X96229714Y-85979000D01*
X96423238Y-85882238D01*
D12*
X130175000Y-99695000D02*
X130175000Y-101600000D01*
X127635000Y-99695000D02*
X127635000Y-101600000D01*
X125095000Y-99695000D02*
X125095000Y-101600000D01*
X122555000Y-99695000D02*
X122555000Y-101600000D01*
X120015000Y-99695000D02*
X120015000Y-101600000D01*
X127635000Y-91440000D02*
X127635000Y-90170000D01*
X125095000Y-91440000D02*
X125095000Y-90170000D01*
X122555000Y-91440000D02*
X122555000Y-90170000D01*
X120015000Y-91440000D02*
X120015000Y-90170000D01*
X130175000Y-85725000D02*
X130175000Y-87630000D01*
X127635000Y-85725000D02*
X127635000Y-87630000D01*
X125095000Y-85725000D02*
X125095000Y-87630000D01*
X122555000Y-85725000D02*
X122555000Y-87630000D01*
X120015000Y-85725000D02*
X120015000Y-87630000D01*
X127635000Y-77470000D02*
X127635000Y-76200000D01*
X125095000Y-77470000D02*
X125095000Y-76200000D01*
X122555000Y-77470000D02*
X122555000Y-76200000D01*
X120015000Y-77470000D02*
X120015000Y-76200000D01*
D13*
X129195285Y-102362000D02*
X129558142Y-102362000D01*
X129122714Y-102579714D02*
X129376714Y-101817714D01*
X129630714Y-102579714D01*
X129884714Y-102579714D02*
X129884714Y-101817714D01*
X130320142Y-102579714D01*
X130320142Y-101817714D01*
X130828142Y-101817714D02*
X130973285Y-101817714D01*
X131045857Y-101854000D01*
X131118428Y-101926571D01*
X131154714Y-102071714D01*
X131154714Y-102325714D01*
X131118428Y-102470857D01*
X131045857Y-102543428D01*
X130973285Y-102579714D01*
X130828142Y-102579714D01*
X130755571Y-102543428D01*
X130683000Y-102470857D01*
X130646714Y-102325714D01*
X130646714Y-102071714D01*
X130683000Y-101926571D01*
X130755571Y-101854000D01*
X130828142Y-101817714D01*
X127254000Y-102507142D02*
X127217714Y-102543428D01*
X127108857Y-102579714D01*
X127036285Y-102579714D01*
X126927428Y-102543428D01*
X126854857Y-102470857D01*
X126818571Y-102398285D01*
X126782285Y-102253142D01*
X126782285Y-102144285D01*
X126818571Y-101999142D01*
X126854857Y-101926571D01*
X126927428Y-101854000D01*
X127036285Y-101817714D01*
X127108857Y-101817714D01*
X127217714Y-101854000D01*
X127254000Y-101890285D01*
X127544285Y-102362000D02*
X127907142Y-102362000D01*
X127471714Y-102579714D02*
X127725714Y-101817714D01*
X127979714Y-102579714D01*
X128124857Y-101817714D02*
X128560285Y-101817714D01*
X128342571Y-102579714D02*
X128342571Y-101817714D01*
X124151571Y-101817714D02*
X124405571Y-102579714D01*
X124659571Y-101817714D01*
X124913571Y-102180571D02*
X125167571Y-102180571D01*
X125276428Y-102579714D02*
X124913571Y-102579714D01*
X124913571Y-101817714D01*
X125276428Y-101817714D01*
X125603000Y-102180571D02*
X125857000Y-102180571D01*
X125965857Y-102579714D02*
X125603000Y-102579714D01*
X125603000Y-101817714D01*
X125965857Y-101817714D01*
X121793000Y-101817714D02*
X121938142Y-101817714D01*
X122010714Y-101854000D01*
X122083285Y-101926571D01*
X122119571Y-102071714D01*
X122119571Y-102325714D01*
X122083285Y-102470857D01*
X122010714Y-102543428D01*
X121938142Y-102579714D01*
X121793000Y-102579714D01*
X121720428Y-102543428D01*
X121647857Y-102470857D01*
X121611571Y-102325714D01*
X121611571Y-102071714D01*
X121647857Y-101926571D01*
X121720428Y-101854000D01*
X121793000Y-101817714D01*
X122446142Y-101817714D02*
X122446142Y-102434571D01*
X122482428Y-102507142D01*
X122518714Y-102543428D01*
X122591285Y-102579714D01*
X122736428Y-102579714D01*
X122809000Y-102543428D01*
X122845285Y-102507142D01*
X122881571Y-102434571D01*
X122881571Y-101817714D01*
X123135571Y-101817714D02*
X123571000Y-101817714D01*
X123353285Y-102579714D02*
X123353285Y-101817714D01*
X119434428Y-101854000D02*
X119361857Y-101817714D01*
X119253000Y-101817714D01*
X119144142Y-101854000D01*
X119071571Y-101926571D01*
X119035285Y-101999142D01*
X118999000Y-102144285D01*
X118999000Y-102253142D01*
X119035285Y-102398285D01*
X119071571Y-102470857D01*
X119144142Y-102543428D01*
X119253000Y-102579714D01*
X119325571Y-102579714D01*
X119434428Y-102543428D01*
X119470714Y-102507142D01*
X119470714Y-102253142D01*
X119325571Y-102253142D01*
X119797285Y-102579714D02*
X119797285Y-101817714D01*
X120232714Y-102579714D01*
X120232714Y-101817714D01*
X120595571Y-102579714D02*
X120595571Y-101817714D01*
X120777000Y-101817714D01*
X120885857Y-101854000D01*
X120958428Y-101926571D01*
X120994714Y-101999142D01*
X121031000Y-102144285D01*
X121031000Y-102253142D01*
X120994714Y-102398285D01*
X120958428Y-102470857D01*
X120885857Y-102543428D01*
X120777000Y-102579714D01*
X120595571Y-102579714D01*
X129195285Y-88392000D02*
X129558142Y-88392000D01*
X129122714Y-88609714D02*
X129376714Y-87847714D01*
X129630714Y-88609714D01*
X129884714Y-88609714D02*
X129884714Y-87847714D01*
X130320142Y-88609714D01*
X130320142Y-87847714D01*
X130828142Y-87847714D02*
X130973285Y-87847714D01*
X131045857Y-87884000D01*
X131118428Y-87956571D01*
X131154714Y-88101714D01*
X131154714Y-88355714D01*
X131118428Y-88500857D01*
X131045857Y-88573428D01*
X130973285Y-88609714D01*
X130828142Y-88609714D01*
X130755571Y-88573428D01*
X130683000Y-88500857D01*
X130646714Y-88355714D01*
X130646714Y-88101714D01*
X130683000Y-87956571D01*
X130755571Y-87884000D01*
X130828142Y-87847714D01*
X127254000Y-88537142D02*
X127217714Y-88573428D01*
X127108857Y-88609714D01*
X127036285Y-88609714D01*
X126927428Y-88573428D01*
X126854857Y-88500857D01*
X126818571Y-88428285D01*
X126782285Y-88283142D01*
X126782285Y-88174285D01*
X126818571Y-88029142D01*
X126854857Y-87956571D01*
X126927428Y-87884000D01*
X127036285Y-87847714D01*
X127108857Y-87847714D01*
X127217714Y-87884000D01*
X127254000Y-87920285D01*
X127544285Y-88392000D02*
X127907142Y-88392000D01*
X127471714Y-88609714D02*
X127725714Y-87847714D01*
X127979714Y-88609714D01*
X128124857Y-87847714D02*
X128560285Y-87847714D01*
X128342571Y-88609714D02*
X128342571Y-87847714D01*
X124151571Y-87847714D02*
X124405571Y-88609714D01*
X124659571Y-87847714D01*
X124913571Y-88210571D02*
X125167571Y-88210571D01*
X125276428Y-88609714D02*
X124913571Y-88609714D01*
X124913571Y-87847714D01*
X125276428Y-87847714D01*
X125603000Y-88210571D02*
X125857000Y-88210571D01*
X125965857Y-88609714D02*
X125603000Y-88609714D01*
X125603000Y-87847714D01*
X125965857Y-87847714D01*
X121793000Y-87847714D02*
X121938142Y-87847714D01*
X122010714Y-87884000D01*
X122083285Y-87956571D01*
X122119571Y-88101714D01*
X122119571Y-88355714D01*
X122083285Y-88500857D01*
X122010714Y-88573428D01*
X121938142Y-88609714D01*
X121793000Y-88609714D01*
X121720428Y-88573428D01*
X121647857Y-88500857D01*
X121611571Y-88355714D01*
X121611571Y-88101714D01*
X121647857Y-87956571D01*
X121720428Y-87884000D01*
X121793000Y-87847714D01*
X122446142Y-87847714D02*
X122446142Y-88464571D01*
X122482428Y-88537142D01*
X122518714Y-88573428D01*
X122591285Y-88609714D01*
X122736428Y-88609714D01*
X122809000Y-88573428D01*
X122845285Y-88537142D01*
X122881571Y-88464571D01*
X122881571Y-87847714D01*
X123135571Y-87847714D02*
X123571000Y-87847714D01*
X123353285Y-88609714D02*
X123353285Y-87847714D01*
X119434428Y-87884000D02*
X119361857Y-87847714D01*
X119253000Y-87847714D01*
X119144142Y-87884000D01*
X119071571Y-87956571D01*
X119035285Y-88029142D01*
X118999000Y-88174285D01*
X118999000Y-88283142D01*
X119035285Y-88428285D01*
X119071571Y-88500857D01*
X119144142Y-88573428D01*
X119253000Y-88609714D01*
X119325571Y-88609714D01*
X119434428Y-88573428D01*
X119470714Y-88537142D01*
X119470714Y-88283142D01*
X119325571Y-88283142D01*
X119797285Y-88609714D02*
X119797285Y-87847714D01*
X120232714Y-88609714D01*
X120232714Y-87847714D01*
X120595571Y-88609714D02*
X120595571Y-87847714D01*
X120777000Y-87847714D01*
X120885857Y-87884000D01*
X120958428Y-87956571D01*
X120994714Y-88029142D01*
X121031000Y-88174285D01*
X121031000Y-88283142D01*
X120994714Y-88428285D01*
X120958428Y-88500857D01*
X120885857Y-88573428D01*
X120777000Y-88609714D01*
X120595571Y-88609714D01*
D12*
X109855000Y-99695000D02*
X109855000Y-101600000D01*
X107315000Y-99695000D02*
X107315000Y-101600000D01*
X104775000Y-99695000D02*
X104775000Y-101600000D01*
X102235000Y-99695000D02*
X102235000Y-101600000D01*
X99695000Y-99695000D02*
X99695000Y-101600000D01*
X107315000Y-91440000D02*
X107315000Y-90170000D01*
X104775000Y-91440000D02*
X104775000Y-90170000D01*
X102235000Y-91440000D02*
X102235000Y-90170000D01*
X99695000Y-91440000D02*
X99695000Y-90170000D01*
X109855000Y-85725000D02*
X109855000Y-87630000D01*
X107315000Y-85725000D02*
X107315000Y-87630000D01*
X104775000Y-85725000D02*
X104775000Y-87630000D01*
X102235000Y-85725000D02*
X102235000Y-87630000D01*
X99695000Y-85725000D02*
X99695000Y-87630000D01*
X107315000Y-77470000D02*
X107315000Y-76200000D01*
X104775000Y-77470000D02*
X104775000Y-76200000D01*
X102235000Y-77470000D02*
X102235000Y-76200000D01*
X99695000Y-77470000D02*
X99695000Y-76200000D01*
D13*
X108875285Y-102362000D02*
X109238142Y-102362000D01*
X108802714Y-102579714D02*
X109056714Y-101817714D01*
X109310714Y-102579714D01*
X109564714Y-102579714D02*
X109564714Y-101817714D01*
X110000142Y-102579714D01*
X110000142Y-101817714D01*
X110508142Y-101817714D02*
X110653285Y-101817714D01*
X110725857Y-101854000D01*
X110798428Y-101926571D01*
X110834714Y-102071714D01*
X110834714Y-102325714D01*
X110798428Y-102470857D01*
X110725857Y-102543428D01*
X110653285Y-102579714D01*
X110508142Y-102579714D01*
X110435571Y-102543428D01*
X110363000Y-102470857D01*
X110326714Y-102325714D01*
X110326714Y-102071714D01*
X110363000Y-101926571D01*
X110435571Y-101854000D01*
X110508142Y-101817714D01*
X106934000Y-102507142D02*
X106897714Y-102543428D01*
X106788857Y-102579714D01*
X106716285Y-102579714D01*
X106607428Y-102543428D01*
X106534857Y-102470857D01*
X106498571Y-102398285D01*
X106462285Y-102253142D01*
X106462285Y-102144285D01*
X106498571Y-101999142D01*
X106534857Y-101926571D01*
X106607428Y-101854000D01*
X106716285Y-101817714D01*
X106788857Y-101817714D01*
X106897714Y-101854000D01*
X106934000Y-101890285D01*
X107224285Y-102362000D02*
X107587142Y-102362000D01*
X107151714Y-102579714D02*
X107405714Y-101817714D01*
X107659714Y-102579714D01*
X107804857Y-101817714D02*
X108240285Y-101817714D01*
X108022571Y-102579714D02*
X108022571Y-101817714D01*
X103831571Y-101817714D02*
X104085571Y-102579714D01*
X104339571Y-101817714D01*
X104593571Y-102180571D02*
X104847571Y-102180571D01*
X104956428Y-102579714D02*
X104593571Y-102579714D01*
X104593571Y-101817714D01*
X104956428Y-101817714D01*
X105283000Y-102180571D02*
X105537000Y-102180571D01*
X105645857Y-102579714D02*
X105283000Y-102579714D01*
X105283000Y-101817714D01*
X105645857Y-101817714D01*
X101473000Y-101817714D02*
X101618142Y-101817714D01*
X101690714Y-101854000D01*
X101763285Y-101926571D01*
X101799571Y-102071714D01*
X101799571Y-102325714D01*
X101763285Y-102470857D01*
X101690714Y-102543428D01*
X101618142Y-102579714D01*
X101473000Y-102579714D01*
X101400428Y-102543428D01*
X101327857Y-102470857D01*
X101291571Y-102325714D01*
X101291571Y-102071714D01*
X101327857Y-101926571D01*
X101400428Y-101854000D01*
X101473000Y-101817714D01*
X102126142Y-101817714D02*
X102126142Y-102434571D01*
X102162428Y-102507142D01*
X102198714Y-102543428D01*
X102271285Y-102579714D01*
X102416428Y-102579714D01*
X102489000Y-102543428D01*
X102525285Y-102507142D01*
X102561571Y-102434571D01*
X102561571Y-101817714D01*
X102815571Y-101817714D02*
X103251000Y-101817714D01*
X103033285Y-102579714D02*
X103033285Y-101817714D01*
X99114428Y-101854000D02*
X99041857Y-101817714D01*
X98933000Y-101817714D01*
X98824142Y-101854000D01*
X98751571Y-101926571D01*
X98715285Y-101999142D01*
X98679000Y-102144285D01*
X98679000Y-102253142D01*
X98715285Y-102398285D01*
X98751571Y-102470857D01*
X98824142Y-102543428D01*
X98933000Y-102579714D01*
X99005571Y-102579714D01*
X99114428Y-102543428D01*
X99150714Y-102507142D01*
X99150714Y-102253142D01*
X99005571Y-102253142D01*
X99477285Y-102579714D02*
X99477285Y-101817714D01*
X99912714Y-102579714D01*
X99912714Y-101817714D01*
X100275571Y-102579714D02*
X100275571Y-101817714D01*
X100457000Y-101817714D01*
X100565857Y-101854000D01*
X100638428Y-101926571D01*
X100674714Y-101999142D01*
X100711000Y-102144285D01*
X100711000Y-102253142D01*
X100674714Y-102398285D01*
X100638428Y-102470857D01*
X100565857Y-102543428D01*
X100457000Y-102579714D01*
X100275571Y-102579714D01*
X108875285Y-88392000D02*
X109238142Y-88392000D01*
X108802714Y-88609714D02*
X109056714Y-87847714D01*
X109310714Y-88609714D01*
X109564714Y-88609714D02*
X109564714Y-87847714D01*
X110000142Y-88609714D01*
X110000142Y-87847714D01*
X110508142Y-87847714D02*
X110653285Y-87847714D01*
X110725857Y-87884000D01*
X110798428Y-87956571D01*
X110834714Y-88101714D01*
X110834714Y-88355714D01*
X110798428Y-88500857D01*
X110725857Y-88573428D01*
X110653285Y-88609714D01*
X110508142Y-88609714D01*
X110435571Y-88573428D01*
X110363000Y-88500857D01*
X110326714Y-88355714D01*
X110326714Y-88101714D01*
X110363000Y-87956571D01*
X110435571Y-87884000D01*
X110508142Y-87847714D01*
X106934000Y-88537142D02*
X106897714Y-88573428D01*
X106788857Y-88609714D01*
X106716285Y-88609714D01*
X106607428Y-88573428D01*
X106534857Y-88500857D01*
X106498571Y-88428285D01*
X106462285Y-88283142D01*
X106462285Y-88174285D01*
X106498571Y-88029142D01*
X106534857Y-87956571D01*
X106607428Y-87884000D01*
X106716285Y-87847714D01*
X106788857Y-87847714D01*
X106897714Y-87884000D01*
X106934000Y-87920285D01*
X107224285Y-88392000D02*
X107587142Y-88392000D01*
X107151714Y-88609714D02*
X107405714Y-87847714D01*
X107659714Y-88609714D01*
X107804857Y-87847714D02*
X108240285Y-87847714D01*
X108022571Y-88609714D02*
X108022571Y-87847714D01*
X103831571Y-87847714D02*
X104085571Y-88609714D01*
X104339571Y-87847714D01*
X104593571Y-88210571D02*
X104847571Y-88210571D01*
X104956428Y-88609714D02*
X104593571Y-88609714D01*
X104593571Y-87847714D01*
X104956428Y-87847714D01*
X105283000Y-88210571D02*
X105537000Y-88210571D01*
X105645857Y-88609714D02*
X105283000Y-88609714D01*
X105283000Y-87847714D01*
X105645857Y-87847714D01*
X101473000Y-87847714D02*
X101618142Y-87847714D01*
X101690714Y-87884000D01*
X101763285Y-87956571D01*
X101799571Y-88101714D01*
X101799571Y-88355714D01*
X101763285Y-88500857D01*
X101690714Y-88573428D01*
X101618142Y-88609714D01*
X101473000Y-88609714D01*
X101400428Y-88573428D01*
X101327857Y-88500857D01*
X101291571Y-88355714D01*
X101291571Y-88101714D01*
X101327857Y-87956571D01*
X101400428Y-87884000D01*
X101473000Y-87847714D01*
X102126142Y-87847714D02*
X102126142Y-88464571D01*
X102162428Y-88537142D01*
X102198714Y-88573428D01*
X102271285Y-88609714D01*
X102416428Y-88609714D01*
X102489000Y-88573428D01*
X102525285Y-88537142D01*
X102561571Y-88464571D01*
X102561571Y-87847714D01*
X102815571Y-87847714D02*
X103251000Y-87847714D01*
X103033285Y-88609714D02*
X103033285Y-87847714D01*
X99114428Y-87884000D02*
X99041857Y-87847714D01*
X98933000Y-87847714D01*
X98824142Y-87884000D01*
X98751571Y-87956571D01*
X98715285Y-88029142D01*
X98679000Y-88174285D01*
X98679000Y-88283142D01*
X98715285Y-88428285D01*
X98751571Y-88500857D01*
X98824142Y-88573428D01*
X98933000Y-88609714D01*
X99005571Y-88609714D01*
X99114428Y-88573428D01*
X99150714Y-88537142D01*
X99150714Y-88283142D01*
X99005571Y-88283142D01*
X99477285Y-88609714D02*
X99477285Y-87847714D01*
X99912714Y-88609714D01*
X99912714Y-87847714D01*
X100275571Y-88609714D02*
X100275571Y-87847714D01*
X100457000Y-87847714D01*
X100565857Y-87884000D01*
X100638428Y-87956571D01*
X100674714Y-88029142D01*
X100711000Y-88174285D01*
X100711000Y-88283142D01*
X100674714Y-88428285D01*
X100638428Y-88500857D01*
X100565857Y-88573428D01*
X100457000Y-88609714D01*
X100275571Y-88609714D01*
X129685142Y-89879714D02*
X129431142Y-89516857D01*
X129249714Y-89879714D02*
X129249714Y-89117714D01*
X129540000Y-89117714D01*
X129612571Y-89154000D01*
X129648857Y-89190285D01*
X129685142Y-89262857D01*
X129685142Y-89371714D01*
X129648857Y-89444285D01*
X129612571Y-89480571D01*
X129540000Y-89516857D01*
X129249714Y-89516857D01*
X130011714Y-89480571D02*
X130265714Y-89480571D01*
X130374571Y-89879714D02*
X130011714Y-89879714D01*
X130011714Y-89117714D01*
X130374571Y-89117714D01*
X130701142Y-89879714D02*
X130701142Y-89117714D01*
X130882571Y-89117714D01*
X130991428Y-89154000D01*
X131064000Y-89226571D01*
X131100285Y-89299142D01*
X131136571Y-89444285D01*
X131136571Y-89553142D01*
X131100285Y-89698285D01*
X131064000Y-89770857D01*
X130991428Y-89843428D01*
X130882571Y-89879714D01*
X130701142Y-89879714D01*
X127000000Y-89480571D02*
X127108857Y-89516857D01*
X127145142Y-89553142D01*
X127181428Y-89625714D01*
X127181428Y-89734571D01*
X127145142Y-89807142D01*
X127108857Y-89843428D01*
X127036285Y-89879714D01*
X126746000Y-89879714D01*
X126746000Y-89117714D01*
X127000000Y-89117714D01*
X127072571Y-89154000D01*
X127108857Y-89190285D01*
X127145142Y-89262857D01*
X127145142Y-89335428D01*
X127108857Y-89408000D01*
X127072571Y-89444285D01*
X127000000Y-89480571D01*
X126746000Y-89480571D01*
X127870857Y-89879714D02*
X127508000Y-89879714D01*
X127508000Y-89117714D01*
X128124857Y-89879714D02*
X128124857Y-89117714D01*
X128560285Y-89879714D02*
X128233714Y-89444285D01*
X128560285Y-89117714D02*
X128124857Y-89553142D01*
X124079000Y-89117714D02*
X124260428Y-89879714D01*
X124405571Y-89335428D01*
X124550714Y-89879714D01*
X124732142Y-89117714D01*
X125022428Y-89879714D02*
X125022428Y-89117714D01*
X125022428Y-89480571D02*
X125457857Y-89480571D01*
X125457857Y-89879714D02*
X125457857Y-89117714D01*
X125711857Y-89117714D02*
X126147285Y-89117714D01*
X125929571Y-89879714D02*
X125929571Y-89117714D01*
X121901857Y-89480571D02*
X122010714Y-89516857D01*
X122047000Y-89553142D01*
X122083285Y-89625714D01*
X122083285Y-89734571D01*
X122047000Y-89807142D01*
X122010714Y-89843428D01*
X121938142Y-89879714D01*
X121647857Y-89879714D01*
X121647857Y-89117714D01*
X121901857Y-89117714D01*
X121974428Y-89154000D01*
X122010714Y-89190285D01*
X122047000Y-89262857D01*
X122047000Y-89335428D01*
X122010714Y-89408000D01*
X121974428Y-89444285D01*
X121901857Y-89480571D01*
X121647857Y-89480571D01*
X122772714Y-89879714D02*
X122409857Y-89879714D01*
X122409857Y-89117714D01*
X123026714Y-89117714D02*
X123026714Y-89734571D01*
X123063000Y-89807142D01*
X123099285Y-89843428D01*
X123171857Y-89879714D01*
X123317000Y-89879714D01*
X123389571Y-89843428D01*
X123425857Y-89807142D01*
X123462142Y-89734571D01*
X123462142Y-89117714D01*
X119434428Y-89154000D02*
X119361857Y-89117714D01*
X119253000Y-89117714D01*
X119144142Y-89154000D01*
X119071571Y-89226571D01*
X119035285Y-89299142D01*
X118999000Y-89444285D01*
X118999000Y-89553142D01*
X119035285Y-89698285D01*
X119071571Y-89770857D01*
X119144142Y-89843428D01*
X119253000Y-89879714D01*
X119325571Y-89879714D01*
X119434428Y-89843428D01*
X119470714Y-89807142D01*
X119470714Y-89553142D01*
X119325571Y-89553142D01*
X120232714Y-89879714D02*
X119978714Y-89516857D01*
X119797285Y-89879714D02*
X119797285Y-89117714D01*
X120087571Y-89117714D01*
X120160142Y-89154000D01*
X120196428Y-89190285D01*
X120232714Y-89262857D01*
X120232714Y-89371714D01*
X120196428Y-89444285D01*
X120160142Y-89480571D01*
X120087571Y-89516857D01*
X119797285Y-89516857D01*
X120559285Y-89879714D02*
X120559285Y-89117714D01*
X120994714Y-89879714D01*
X120994714Y-89117714D01*
X129685142Y-75909714D02*
X129431142Y-75546857D01*
X129249714Y-75909714D02*
X129249714Y-75147714D01*
X129540000Y-75147714D01*
X129612571Y-75184000D01*
X129648857Y-75220285D01*
X129685142Y-75292857D01*
X129685142Y-75401714D01*
X129648857Y-75474285D01*
X129612571Y-75510571D01*
X129540000Y-75546857D01*
X129249714Y-75546857D01*
X130011714Y-75510571D02*
X130265714Y-75510571D01*
X130374571Y-75909714D02*
X130011714Y-75909714D01*
X130011714Y-75147714D01*
X130374571Y-75147714D01*
X130701142Y-75909714D02*
X130701142Y-75147714D01*
X130882571Y-75147714D01*
X130991428Y-75184000D01*
X131064000Y-75256571D01*
X131100285Y-75329142D01*
X131136571Y-75474285D01*
X131136571Y-75583142D01*
X131100285Y-75728285D01*
X131064000Y-75800857D01*
X130991428Y-75873428D01*
X130882571Y-75909714D01*
X130701142Y-75909714D01*
X127000000Y-75510571D02*
X127108857Y-75546857D01*
X127145142Y-75583142D01*
X127181428Y-75655714D01*
X127181428Y-75764571D01*
X127145142Y-75837142D01*
X127108857Y-75873428D01*
X127036285Y-75909714D01*
X126746000Y-75909714D01*
X126746000Y-75147714D01*
X127000000Y-75147714D01*
X127072571Y-75184000D01*
X127108857Y-75220285D01*
X127145142Y-75292857D01*
X127145142Y-75365428D01*
X127108857Y-75438000D01*
X127072571Y-75474285D01*
X127000000Y-75510571D01*
X126746000Y-75510571D01*
X127870857Y-75909714D02*
X127508000Y-75909714D01*
X127508000Y-75147714D01*
X128124857Y-75909714D02*
X128124857Y-75147714D01*
X128560285Y-75909714D02*
X128233714Y-75474285D01*
X128560285Y-75147714D02*
X128124857Y-75583142D01*
X124079000Y-75147714D02*
X124260428Y-75909714D01*
X124405571Y-75365428D01*
X124550714Y-75909714D01*
X124732142Y-75147714D01*
X125022428Y-75909714D02*
X125022428Y-75147714D01*
X125022428Y-75510571D02*
X125457857Y-75510571D01*
X125457857Y-75909714D02*
X125457857Y-75147714D01*
X125711857Y-75147714D02*
X126147285Y-75147714D01*
X125929571Y-75909714D02*
X125929571Y-75147714D01*
X121901857Y-75510571D02*
X122010714Y-75546857D01*
X122047000Y-75583142D01*
X122083285Y-75655714D01*
X122083285Y-75764571D01*
X122047000Y-75837142D01*
X122010714Y-75873428D01*
X121938142Y-75909714D01*
X121647857Y-75909714D01*
X121647857Y-75147714D01*
X121901857Y-75147714D01*
X121974428Y-75184000D01*
X122010714Y-75220285D01*
X122047000Y-75292857D01*
X122047000Y-75365428D01*
X122010714Y-75438000D01*
X121974428Y-75474285D01*
X121901857Y-75510571D01*
X121647857Y-75510571D01*
X122772714Y-75909714D02*
X122409857Y-75909714D01*
X122409857Y-75147714D01*
X123026714Y-75147714D02*
X123026714Y-75764571D01*
X123063000Y-75837142D01*
X123099285Y-75873428D01*
X123171857Y-75909714D01*
X123317000Y-75909714D01*
X123389571Y-75873428D01*
X123425857Y-75837142D01*
X123462142Y-75764571D01*
X123462142Y-75147714D01*
X119434428Y-75184000D02*
X119361857Y-75147714D01*
X119253000Y-75147714D01*
X119144142Y-75184000D01*
X119071571Y-75256571D01*
X119035285Y-75329142D01*
X118999000Y-75474285D01*
X118999000Y-75583142D01*
X119035285Y-75728285D01*
X119071571Y-75800857D01*
X119144142Y-75873428D01*
X119253000Y-75909714D01*
X119325571Y-75909714D01*
X119434428Y-75873428D01*
X119470714Y-75837142D01*
X119470714Y-75583142D01*
X119325571Y-75583142D01*
X120232714Y-75909714D02*
X119978714Y-75546857D01*
X119797285Y-75909714D02*
X119797285Y-75147714D01*
X120087571Y-75147714D01*
X120160142Y-75184000D01*
X120196428Y-75220285D01*
X120232714Y-75292857D01*
X120232714Y-75401714D01*
X120196428Y-75474285D01*
X120160142Y-75510571D01*
X120087571Y-75546857D01*
X119797285Y-75546857D01*
X120559285Y-75909714D02*
X120559285Y-75147714D01*
X120994714Y-75909714D01*
X120994714Y-75147714D01*
X109365142Y-89879714D02*
X109111142Y-89516857D01*
X108929714Y-89879714D02*
X108929714Y-89117714D01*
X109220000Y-89117714D01*
X109292571Y-89154000D01*
X109328857Y-89190285D01*
X109365142Y-89262857D01*
X109365142Y-89371714D01*
X109328857Y-89444285D01*
X109292571Y-89480571D01*
X109220000Y-89516857D01*
X108929714Y-89516857D01*
X109691714Y-89480571D02*
X109945714Y-89480571D01*
X110054571Y-89879714D02*
X109691714Y-89879714D01*
X109691714Y-89117714D01*
X110054571Y-89117714D01*
X110381142Y-89879714D02*
X110381142Y-89117714D01*
X110562571Y-89117714D01*
X110671428Y-89154000D01*
X110744000Y-89226571D01*
X110780285Y-89299142D01*
X110816571Y-89444285D01*
X110816571Y-89553142D01*
X110780285Y-89698285D01*
X110744000Y-89770857D01*
X110671428Y-89843428D01*
X110562571Y-89879714D01*
X110381142Y-89879714D01*
X106680000Y-89480571D02*
X106788857Y-89516857D01*
X106825142Y-89553142D01*
X106861428Y-89625714D01*
X106861428Y-89734571D01*
X106825142Y-89807142D01*
X106788857Y-89843428D01*
X106716285Y-89879714D01*
X106426000Y-89879714D01*
X106426000Y-89117714D01*
X106680000Y-89117714D01*
X106752571Y-89154000D01*
X106788857Y-89190285D01*
X106825142Y-89262857D01*
X106825142Y-89335428D01*
X106788857Y-89408000D01*
X106752571Y-89444285D01*
X106680000Y-89480571D01*
X106426000Y-89480571D01*
X107550857Y-89879714D02*
X107188000Y-89879714D01*
X107188000Y-89117714D01*
X107804857Y-89879714D02*
X107804857Y-89117714D01*
X108240285Y-89879714D02*
X107913714Y-89444285D01*
X108240285Y-89117714D02*
X107804857Y-89553142D01*
X103759000Y-89117714D02*
X103940428Y-89879714D01*
X104085571Y-89335428D01*
X104230714Y-89879714D01*
X104412142Y-89117714D01*
X104702428Y-89879714D02*
X104702428Y-89117714D01*
X104702428Y-89480571D02*
X105137857Y-89480571D01*
X105137857Y-89879714D02*
X105137857Y-89117714D01*
X105391857Y-89117714D02*
X105827285Y-89117714D01*
X105609571Y-89879714D02*
X105609571Y-89117714D01*
X101581857Y-89480571D02*
X101690714Y-89516857D01*
X101727000Y-89553142D01*
X101763285Y-89625714D01*
X101763285Y-89734571D01*
X101727000Y-89807142D01*
X101690714Y-89843428D01*
X101618142Y-89879714D01*
X101327857Y-89879714D01*
X101327857Y-89117714D01*
X101581857Y-89117714D01*
X101654428Y-89154000D01*
X101690714Y-89190285D01*
X101727000Y-89262857D01*
X101727000Y-89335428D01*
X101690714Y-89408000D01*
X101654428Y-89444285D01*
X101581857Y-89480571D01*
X101327857Y-89480571D01*
X102452714Y-89879714D02*
X102089857Y-89879714D01*
X102089857Y-89117714D01*
X102706714Y-89117714D02*
X102706714Y-89734571D01*
X102743000Y-89807142D01*
X102779285Y-89843428D01*
X102851857Y-89879714D01*
X102997000Y-89879714D01*
X103069571Y-89843428D01*
X103105857Y-89807142D01*
X103142142Y-89734571D01*
X103142142Y-89117714D01*
X99114428Y-89154000D02*
X99041857Y-89117714D01*
X98933000Y-89117714D01*
X98824142Y-89154000D01*
X98751571Y-89226571D01*
X98715285Y-89299142D01*
X98679000Y-89444285D01*
X98679000Y-89553142D01*
X98715285Y-89698285D01*
X98751571Y-89770857D01*
X98824142Y-89843428D01*
X98933000Y-89879714D01*
X99005571Y-89879714D01*
X99114428Y-89843428D01*
X99150714Y-89807142D01*
X99150714Y-89553142D01*
X99005571Y-89553142D01*
X99912714Y-89879714D02*
X99658714Y-89516857D01*
X99477285Y-89879714D02*
X99477285Y-89117714D01*
X99767571Y-89117714D01*
X99840142Y-89154000D01*
X99876428Y-89190285D01*
X99912714Y-89262857D01*
X99912714Y-89371714D01*
X99876428Y-89444285D01*
X99840142Y-89480571D01*
X99767571Y-89516857D01*
X99477285Y-89516857D01*
X100239285Y-89879714D02*
X100239285Y-89117714D01*
X100674714Y-89879714D01*
X100674714Y-89117714D01*
X109365142Y-75909714D02*
X109111142Y-75546857D01*
X108929714Y-75909714D02*
X108929714Y-75147714D01*
X109220000Y-75147714D01*
X109292571Y-75184000D01*
X109328857Y-75220285D01*
X109365142Y-75292857D01*
X109365142Y-75401714D01*
X109328857Y-75474285D01*
X109292571Y-75510571D01*
X109220000Y-75546857D01*
X108929714Y-75546857D01*
X109691714Y-75510571D02*
X109945714Y-75510571D01*
X110054571Y-75909714D02*
X109691714Y-75909714D01*
X109691714Y-75147714D01*
X110054571Y-75147714D01*
X110381142Y-75909714D02*
X110381142Y-75147714D01*
X110562571Y-75147714D01*
X110671428Y-75184000D01*
X110744000Y-75256571D01*
X110780285Y-75329142D01*
X110816571Y-75474285D01*
X110816571Y-75583142D01*
X110780285Y-75728285D01*
X110744000Y-75800857D01*
X110671428Y-75873428D01*
X110562571Y-75909714D01*
X110381142Y-75909714D01*
X106680000Y-75510571D02*
X106788857Y-75546857D01*
X106825142Y-75583142D01*
X106861428Y-75655714D01*
X106861428Y-75764571D01*
X106825142Y-75837142D01*
X106788857Y-75873428D01*
X106716285Y-75909714D01*
X106426000Y-75909714D01*
X106426000Y-75147714D01*
X106680000Y-75147714D01*
X106752571Y-75184000D01*
X106788857Y-75220285D01*
X106825142Y-75292857D01*
X106825142Y-75365428D01*
X106788857Y-75438000D01*
X106752571Y-75474285D01*
X106680000Y-75510571D01*
X106426000Y-75510571D01*
X107550857Y-75909714D02*
X107188000Y-75909714D01*
X107188000Y-75147714D01*
X107804857Y-75909714D02*
X107804857Y-75147714D01*
X108240285Y-75909714D02*
X107913714Y-75474285D01*
X108240285Y-75147714D02*
X107804857Y-75583142D01*
X103759000Y-75147714D02*
X103940428Y-75909714D01*
X104085571Y-75365428D01*
X104230714Y-75909714D01*
X104412142Y-75147714D01*
X104702428Y-75909714D02*
X104702428Y-75147714D01*
X104702428Y-75510571D02*
X105137857Y-75510571D01*
X105137857Y-75909714D02*
X105137857Y-75147714D01*
X105391857Y-75147714D02*
X105827285Y-75147714D01*
X105609571Y-75909714D02*
X105609571Y-75147714D01*
X101581857Y-75510571D02*
X101690714Y-75546857D01*
X101727000Y-75583142D01*
X101763285Y-75655714D01*
X101763285Y-75764571D01*
X101727000Y-75837142D01*
X101690714Y-75873428D01*
X101618142Y-75909714D01*
X101327857Y-75909714D01*
X101327857Y-75147714D01*
X101581857Y-75147714D01*
X101654428Y-75184000D01*
X101690714Y-75220285D01*
X101727000Y-75292857D01*
X101727000Y-75365428D01*
X101690714Y-75438000D01*
X101654428Y-75474285D01*
X101581857Y-75510571D01*
X101327857Y-75510571D01*
X102452714Y-75909714D02*
X102089857Y-75909714D01*
X102089857Y-75147714D01*
X102706714Y-75147714D02*
X102706714Y-75764571D01*
X102743000Y-75837142D01*
X102779285Y-75873428D01*
X102851857Y-75909714D01*
X102997000Y-75909714D01*
X103069571Y-75873428D01*
X103105857Y-75837142D01*
X103142142Y-75764571D01*
X103142142Y-75147714D01*
X99114428Y-75184000D02*
X99041857Y-75147714D01*
X98933000Y-75147714D01*
X98824142Y-75184000D01*
X98751571Y-75256571D01*
X98715285Y-75329142D01*
X98679000Y-75474285D01*
X98679000Y-75583142D01*
X98715285Y-75728285D01*
X98751571Y-75800857D01*
X98824142Y-75873428D01*
X98933000Y-75909714D01*
X99005571Y-75909714D01*
X99114428Y-75873428D01*
X99150714Y-75837142D01*
X99150714Y-75583142D01*
X99005571Y-75583142D01*
X99912714Y-75909714D02*
X99658714Y-75546857D01*
X99477285Y-75909714D02*
X99477285Y-75147714D01*
X99767571Y-75147714D01*
X99840142Y-75184000D01*
X99876428Y-75220285D01*
X99912714Y-75292857D01*
X99912714Y-75401714D01*
X99876428Y-75474285D01*
X99840142Y-75510571D01*
X99767571Y-75546857D01*
X99477285Y-75546857D01*
X100239285Y-75909714D02*
X100239285Y-75147714D01*
X100674714Y-75909714D01*
X100674714Y-75147714D01*
D12*
X94615000Y-88900000D02*
X135255000Y-88900000D01*
X135255000Y-102870000D02*
X135255000Y-74930000D01*
X94615000Y-102870000D02*
X135255000Y-102870000D01*
X94615000Y-74930000D02*
X94615000Y-102870000D01*
X94615000Y-74930000D02*
X135255000Y-74930000D01*
X114935000Y-102870000D02*
X114935000Y-74930000D01*
X155575000Y-68580000D02*
X85725000Y-68580000D01*
X155575000Y-109220000D02*
X155575000Y-68580000D01*
X85725000Y-109220000D02*
X155575000Y-109220000D01*
X85725000Y-68580000D02*
X85725000Y-109220000D01*
D13*
X92437857Y-104599619D02*
X92437857Y-103583619D01*
X92873285Y-104599619D02*
X92873285Y-104067428D01*
X92824904Y-103970666D01*
X92728142Y-103922285D01*
X92583000Y-103922285D01*
X92486238Y-103970666D01*
X92437857Y-104019047D01*
X93211952Y-103922285D02*
X93599000Y-103922285D01*
X93357095Y-103583619D02*
X93357095Y-104454476D01*
X93405476Y-104551238D01*
X93502238Y-104599619D01*
X93599000Y-104599619D01*
X93792523Y-103922285D02*
X94179571Y-103922285D01*
X93937666Y-103583619D02*
X93937666Y-104454476D01*
X93986047Y-104551238D01*
X94082809Y-104599619D01*
X94179571Y-104599619D01*
X94518238Y-103922285D02*
X94518238Y-104938285D01*
X94518238Y-103970666D02*
X94615000Y-103922285D01*
X94808523Y-103922285D01*
X94905285Y-103970666D01*
X94953666Y-104019047D01*
X95002047Y-104115809D01*
X95002047Y-104406095D01*
X94953666Y-104502857D01*
X94905285Y-104551238D01*
X94808523Y-104599619D01*
X94615000Y-104599619D01*
X94518238Y-104551238D01*
X95389095Y-104551238D02*
X95485857Y-104599619D01*
X95679380Y-104599619D01*
X95776142Y-104551238D01*
X95824523Y-104454476D01*
X95824523Y-104406095D01*
X95776142Y-104309333D01*
X95679380Y-104260952D01*
X95534238Y-104260952D01*
X95437476Y-104212571D01*
X95389095Y-104115809D01*
X95389095Y-104067428D01*
X95437476Y-103970666D01*
X95534238Y-103922285D01*
X95679380Y-103922285D01*
X95776142Y-103970666D01*
X96259952Y-104502857D02*
X96308333Y-104551238D01*
X96259952Y-104599619D01*
X96211571Y-104551238D01*
X96259952Y-104502857D01*
X96259952Y-104599619D01*
X96259952Y-103970666D02*
X96308333Y-104019047D01*
X96259952Y-104067428D01*
X96211571Y-104019047D01*
X96259952Y-103970666D01*
X96259952Y-104067428D01*
X97469476Y-103535238D02*
X96598619Y-104841523D01*
X98533857Y-103535238D02*
X97663000Y-104841523D01*
X99307952Y-103922285D02*
X99307952Y-104744761D01*
X99259571Y-104841523D01*
X99211190Y-104889904D01*
X99114428Y-104938285D01*
X98969285Y-104938285D01*
X98872523Y-104889904D01*
X99307952Y-104551238D02*
X99211190Y-104599619D01*
X99017666Y-104599619D01*
X98920904Y-104551238D01*
X98872523Y-104502857D01*
X98824142Y-104406095D01*
X98824142Y-104115809D01*
X98872523Y-104019047D01*
X98920904Y-103970666D01*
X99017666Y-103922285D01*
X99211190Y-103922285D01*
X99307952Y-103970666D01*
X99791761Y-104599619D02*
X99791761Y-103922285D01*
X99791761Y-103583619D02*
X99743380Y-103632000D01*
X99791761Y-103680380D01*
X99840142Y-103632000D01*
X99791761Y-103583619D01*
X99791761Y-103680380D01*
X100130428Y-103922285D02*
X100517476Y-103922285D01*
X100275571Y-103583619D02*
X100275571Y-104454476D01*
X100323952Y-104551238D01*
X100420714Y-104599619D01*
X100517476Y-104599619D01*
X100856142Y-104599619D02*
X100856142Y-103583619D01*
X101291571Y-104599619D02*
X101291571Y-104067428D01*
X101243190Y-103970666D01*
X101146428Y-103922285D01*
X101001285Y-103922285D01*
X100904523Y-103970666D01*
X100856142Y-104019047D01*
X102210809Y-103922285D02*
X102210809Y-104599619D01*
X101775380Y-103922285D02*
X101775380Y-104454476D01*
X101823761Y-104551238D01*
X101920523Y-104599619D01*
X102065666Y-104599619D01*
X102162428Y-104551238D01*
X102210809Y-104502857D01*
X102694619Y-104599619D02*
X102694619Y-103583619D01*
X102694619Y-103970666D02*
X102791380Y-103922285D01*
X102984904Y-103922285D01*
X103081666Y-103970666D01*
X103130047Y-104019047D01*
X103178428Y-104115809D01*
X103178428Y-104406095D01*
X103130047Y-104502857D01*
X103081666Y-104551238D01*
X102984904Y-104599619D01*
X102791380Y-104599619D01*
X102694619Y-104551238D01*
X103613857Y-104502857D02*
X103662238Y-104551238D01*
X103613857Y-104599619D01*
X103565476Y-104551238D01*
X103613857Y-104502857D01*
X103613857Y-104599619D01*
X104533095Y-104551238D02*
X104436333Y-104599619D01*
X104242809Y-104599619D01*
X104146047Y-104551238D01*
X104097666Y-104502857D01*
X104049285Y-104406095D01*
X104049285Y-104115809D01*
X104097666Y-104019047D01*
X104146047Y-103970666D01*
X104242809Y-103922285D01*
X104436333Y-103922285D01*
X104533095Y-103970666D01*
X105113666Y-104599619D02*
X105016904Y-104551238D01*
X104968523Y-104502857D01*
X104920142Y-104406095D01*
X104920142Y-104115809D01*
X104968523Y-104019047D01*
X105016904Y-103970666D01*
X105113666Y-103922285D01*
X105258809Y-103922285D01*
X105355571Y-103970666D01*
X105403952Y-104019047D01*
X105452333Y-104115809D01*
X105452333Y-104406095D01*
X105403952Y-104502857D01*
X105355571Y-104551238D01*
X105258809Y-104599619D01*
X105113666Y-104599619D01*
X105887761Y-104599619D02*
X105887761Y-103922285D01*
X105887761Y-104019047D02*
X105936142Y-103970666D01*
X106032904Y-103922285D01*
X106178047Y-103922285D01*
X106274809Y-103970666D01*
X106323190Y-104067428D01*
X106323190Y-104599619D01*
X106323190Y-104067428D02*
X106371571Y-103970666D01*
X106468333Y-103922285D01*
X106613476Y-103922285D01*
X106710238Y-103970666D01*
X106758619Y-104067428D01*
X106758619Y-104599619D01*
X107968142Y-103535238D02*
X107097285Y-104841523D01*
X108306809Y-103922285D02*
X108306809Y-104793142D01*
X108258428Y-104889904D01*
X108161666Y-104938285D01*
X108113285Y-104938285D01*
X108306809Y-103583619D02*
X108258428Y-103632000D01*
X108306809Y-103680380D01*
X108355190Y-103632000D01*
X108306809Y-103583619D01*
X108306809Y-103680380D01*
X109226047Y-104599619D02*
X109226047Y-104067428D01*
X109177666Y-103970666D01*
X109080904Y-103922285D01*
X108887380Y-103922285D01*
X108790619Y-103970666D01*
X109226047Y-104551238D02*
X109129285Y-104599619D01*
X108887380Y-104599619D01*
X108790619Y-104551238D01*
X108742238Y-104454476D01*
X108742238Y-104357714D01*
X108790619Y-104260952D01*
X108887380Y-104212571D01*
X109129285Y-104212571D01*
X109226047Y-104164190D01*
X109709857Y-103922285D02*
X109709857Y-104599619D01*
X109709857Y-104019047D02*
X109758238Y-103970666D01*
X109855000Y-103922285D01*
X110000142Y-103922285D01*
X110096904Y-103970666D01*
X110145285Y-104067428D01*
X110145285Y-104599619D01*
X111016142Y-104551238D02*
X110919380Y-104599619D01*
X110725857Y-104599619D01*
X110629095Y-104551238D01*
X110580714Y-104454476D01*
X110580714Y-104067428D01*
X110629095Y-103970666D01*
X110725857Y-103922285D01*
X110919380Y-103922285D01*
X111016142Y-103970666D01*
X111064523Y-104067428D01*
X111064523Y-104164190D01*
X110580714Y-104260952D01*
X111645095Y-104599619D02*
X111548333Y-104551238D01*
X111499952Y-104454476D01*
X111499952Y-103583619D01*
X112032142Y-104599619D02*
X112032142Y-103922285D01*
X112032142Y-103583619D02*
X111983761Y-103632000D01*
X112032142Y-103680380D01*
X112080523Y-103632000D01*
X112032142Y-103583619D01*
X112032142Y-103680380D01*
X112951380Y-104599619D02*
X112951380Y-104067428D01*
X112903000Y-103970666D01*
X112806238Y-103922285D01*
X112612714Y-103922285D01*
X112515952Y-103970666D01*
X112951380Y-104551238D02*
X112854619Y-104599619D01*
X112612714Y-104599619D01*
X112515952Y-104551238D01*
X112467571Y-104454476D01*
X112467571Y-104357714D01*
X112515952Y-104260952D01*
X112612714Y-104212571D01*
X112854619Y-104212571D01*
X112951380Y-104164190D01*
X113435190Y-104212571D02*
X114209285Y-104212571D01*
X114693095Y-104599619D02*
X114693095Y-103922285D01*
X114693095Y-104019047D02*
X114741476Y-103970666D01*
X114838238Y-103922285D01*
X114983380Y-103922285D01*
X115080142Y-103970666D01*
X115128523Y-104067428D01*
X115128523Y-104599619D01*
X115128523Y-104067428D02*
X115176904Y-103970666D01*
X115273666Y-103922285D01*
X115418809Y-103922285D01*
X115515571Y-103970666D01*
X115563952Y-104067428D01*
X115563952Y-104599619D01*
X116192904Y-104599619D02*
X116096142Y-104551238D01*
X116047761Y-104502857D01*
X115999380Y-104406095D01*
X115999380Y-104115809D01*
X116047761Y-104019047D01*
X116096142Y-103970666D01*
X116192904Y-103922285D01*
X116338047Y-103922285D01*
X116434809Y-103970666D01*
X116483190Y-104019047D01*
X116531571Y-104115809D01*
X116531571Y-104406095D01*
X116483190Y-104502857D01*
X116434809Y-104551238D01*
X116338047Y-104599619D01*
X116192904Y-104599619D01*
X117402428Y-104599619D02*
X117402428Y-103583619D01*
X117402428Y-104551238D02*
X117305666Y-104599619D01*
X117112142Y-104599619D01*
X117015380Y-104551238D01*
X116967000Y-104502857D01*
X116918619Y-104406095D01*
X116918619Y-104115809D01*
X116967000Y-104019047D01*
X117015380Y-103970666D01*
X117112142Y-103922285D01*
X117305666Y-103922285D01*
X117402428Y-103970666D01*
X118321666Y-103922285D02*
X118321666Y-104599619D01*
X117886238Y-103922285D02*
X117886238Y-104454476D01*
X117934619Y-104551238D01*
X118031380Y-104599619D01*
X118176523Y-104599619D01*
X118273285Y-104551238D01*
X118321666Y-104502857D01*
X118950619Y-104599619D02*
X118853857Y-104551238D01*
X118805476Y-104454476D01*
X118805476Y-103583619D01*
X119773095Y-104599619D02*
X119773095Y-104067428D01*
X119724714Y-103970666D01*
X119627952Y-103922285D01*
X119434428Y-103922285D01*
X119337666Y-103970666D01*
X119773095Y-104551238D02*
X119676333Y-104599619D01*
X119434428Y-104599619D01*
X119337666Y-104551238D01*
X119289285Y-104454476D01*
X119289285Y-104357714D01*
X119337666Y-104260952D01*
X119434428Y-104212571D01*
X119676333Y-104212571D01*
X119773095Y-104164190D01*
X120256904Y-104599619D02*
X120256904Y-103922285D01*
X120256904Y-104115809D02*
X120305285Y-104019047D01*
X120353666Y-103970666D01*
X120450428Y-103922285D01*
X120547190Y-103922285D01*
X120885857Y-104212571D02*
X121659952Y-104212571D01*
X122579190Y-104599619D02*
X122579190Y-103583619D01*
X122579190Y-104551238D02*
X122482428Y-104599619D01*
X122288904Y-104599619D01*
X122192142Y-104551238D01*
X122143761Y-104502857D01*
X122095380Y-104406095D01*
X122095380Y-104115809D01*
X122143761Y-104019047D01*
X122192142Y-103970666D01*
X122288904Y-103922285D01*
X122482428Y-103922285D01*
X122579190Y-103970666D01*
X123450047Y-104551238D02*
X123353285Y-104599619D01*
X123159761Y-104599619D01*
X123063000Y-104551238D01*
X123014619Y-104454476D01*
X123014619Y-104067428D01*
X123063000Y-103970666D01*
X123159761Y-103922285D01*
X123353285Y-103922285D01*
X123450047Y-103970666D01*
X123498428Y-104067428D01*
X123498428Y-104164190D01*
X123014619Y-104260952D01*
X123837095Y-103922285D02*
X124079000Y-104599619D01*
X124320904Y-103922285D01*
X124707952Y-104599619D02*
X124707952Y-103922285D01*
X124707952Y-103583619D02*
X124659571Y-103632000D01*
X124707952Y-103680380D01*
X124756333Y-103632000D01*
X124707952Y-103583619D01*
X124707952Y-103680380D01*
X125627190Y-104551238D02*
X125530428Y-104599619D01*
X125336904Y-104599619D01*
X125240142Y-104551238D01*
X125191761Y-104502857D01*
X125143380Y-104406095D01*
X125143380Y-104115809D01*
X125191761Y-104019047D01*
X125240142Y-103970666D01*
X125336904Y-103922285D01*
X125530428Y-103922285D01*
X125627190Y-103970666D01*
X126449666Y-104551238D02*
X126352904Y-104599619D01*
X126159380Y-104599619D01*
X126062619Y-104551238D01*
X126014238Y-104454476D01*
X126014238Y-104067428D01*
X126062619Y-103970666D01*
X126159380Y-103922285D01*
X126352904Y-103922285D01*
X126449666Y-103970666D01*
X126498047Y-104067428D01*
X126498047Y-104164190D01*
X126014238Y-104260952D01*
X126885095Y-104551238D02*
X126981857Y-104599619D01*
X127175380Y-104599619D01*
X127272142Y-104551238D01*
X127320523Y-104454476D01*
X127320523Y-104406095D01*
X127272142Y-104309333D01*
X127175380Y-104260952D01*
X127030238Y-104260952D01*
X126933476Y-104212571D01*
X126885095Y-104115809D01*
X126885095Y-104067428D01*
X126933476Y-103970666D01*
X127030238Y-103922285D01*
X127175380Y-103922285D01*
X127272142Y-103970666D01*
D14*
X86311619Y-97294095D02*
X87037333Y-97294095D01*
X87182476Y-97342476D01*
X87279238Y-97439238D01*
X87327619Y-97584380D01*
X87327619Y-97681142D01*
X87327619Y-96374857D02*
X86795428Y-96374857D01*
X86698666Y-96423238D01*
X86650285Y-96520000D01*
X86650285Y-96713523D01*
X86698666Y-96810285D01*
X87279238Y-96374857D02*
X87327619Y-96471619D01*
X87327619Y-96713523D01*
X87279238Y-96810285D01*
X87182476Y-96858666D01*
X87085714Y-96858666D01*
X86988952Y-96810285D01*
X86940571Y-96713523D01*
X86940571Y-96471619D01*
X86892190Y-96374857D01*
X86650285Y-95891047D02*
X87327619Y-95891047D01*
X86747047Y-95891047D02*
X86698666Y-95842666D01*
X86650285Y-95745904D01*
X86650285Y-95600761D01*
X86698666Y-95504000D01*
X86795428Y-95455619D01*
X87327619Y-95455619D01*
X87279238Y-94584761D02*
X87327619Y-94681523D01*
X87327619Y-94875047D01*
X87279238Y-94971809D01*
X87182476Y-95020190D01*
X86795428Y-95020190D01*
X86698666Y-94971809D01*
X86650285Y-94875047D01*
X86650285Y-94681523D01*
X86698666Y-94584761D01*
X86795428Y-94536380D01*
X86892190Y-94536380D01*
X86988952Y-95020190D01*
X87327619Y-93955809D02*
X87279238Y-94052571D01*
X87182476Y-94100952D01*
X86311619Y-94100952D01*
X87327619Y-93568761D02*
X86650285Y-93568761D01*
X86311619Y-93568761D02*
X86360000Y-93617142D01*
X86408380Y-93568761D01*
X86360000Y-93520380D01*
X86311619Y-93568761D01*
X86408380Y-93568761D01*
X87327619Y-92649523D02*
X86795428Y-92649523D01*
X86698666Y-92697904D01*
X86650285Y-92794666D01*
X86650285Y-92988190D01*
X86698666Y-93084952D01*
X87279238Y-92649523D02*
X87327619Y-92746285D01*
X87327619Y-92988190D01*
X87279238Y-93084952D01*
X87182476Y-93133333D01*
X87085714Y-93133333D01*
X86988952Y-93084952D01*
X86940571Y-92988190D01*
X86940571Y-92746285D01*
X86892190Y-92649523D01*
X87327619Y-91391619D02*
X86311619Y-91391619D01*
X87037333Y-91052952D01*
X86311619Y-90714285D01*
X87327619Y-90714285D01*
X87327619Y-90085333D02*
X87279238Y-90182095D01*
X87230857Y-90230476D01*
X87134095Y-90278857D01*
X86843809Y-90278857D01*
X86747047Y-90230476D01*
X86698666Y-90182095D01*
X86650285Y-90085333D01*
X86650285Y-89940190D01*
X86698666Y-89843428D01*
X86747047Y-89795047D01*
X86843809Y-89746666D01*
X87134095Y-89746666D01*
X87230857Y-89795047D01*
X87279238Y-89843428D01*
X87327619Y-89940190D01*
X87327619Y-90085333D01*
X87327619Y-88875809D02*
X86311619Y-88875809D01*
X87279238Y-88875809D02*
X87327619Y-88972571D01*
X87327619Y-89166095D01*
X87279238Y-89262857D01*
X87230857Y-89311238D01*
X87134095Y-89359619D01*
X86843809Y-89359619D01*
X86747047Y-89311238D01*
X86698666Y-89262857D01*
X86650285Y-89166095D01*
X86650285Y-88972571D01*
X86698666Y-88875809D01*
X86650285Y-87956571D02*
X87327619Y-87956571D01*
X86650285Y-88392000D02*
X87182476Y-88392000D01*
X87279238Y-88343619D01*
X87327619Y-88246857D01*
X87327619Y-88101714D01*
X87279238Y-88004952D01*
X87230857Y-87956571D01*
X87327619Y-87327619D02*
X87279238Y-87424380D01*
X87182476Y-87472761D01*
X86311619Y-87472761D01*
X87327619Y-86505142D02*
X86795428Y-86505142D01*
X86698666Y-86553523D01*
X86650285Y-86650285D01*
X86650285Y-86843809D01*
X86698666Y-86940571D01*
X87279238Y-86505142D02*
X87327619Y-86601904D01*
X87327619Y-86843809D01*
X87279238Y-86940571D01*
X87182476Y-86988952D01*
X87085714Y-86988952D01*
X86988952Y-86940571D01*
X86940571Y-86843809D01*
X86940571Y-86601904D01*
X86892190Y-86505142D01*
X87327619Y-86021333D02*
X86650285Y-86021333D01*
X86843809Y-86021333D02*
X86747047Y-85972952D01*
X86698666Y-85924571D01*
X86650285Y-85827809D01*
X86650285Y-85731047D01*
X87327619Y-84618285D02*
X86311619Y-84618285D01*
X86311619Y-84376380D01*
X86360000Y-84231238D01*
X86456761Y-84134476D01*
X86553523Y-84086095D01*
X86747047Y-84037714D01*
X86892190Y-84037714D01*
X87085714Y-84086095D01*
X87182476Y-84134476D01*
X87279238Y-84231238D01*
X87327619Y-84376380D01*
X87327619Y-84618285D01*
X87279238Y-83215238D02*
X87327619Y-83312000D01*
X87327619Y-83505523D01*
X87279238Y-83602285D01*
X87182476Y-83650666D01*
X86795428Y-83650666D01*
X86698666Y-83602285D01*
X86650285Y-83505523D01*
X86650285Y-83312000D01*
X86698666Y-83215238D01*
X86795428Y-83166857D01*
X86892190Y-83166857D01*
X86988952Y-83650666D01*
X86650285Y-82828190D02*
X87327619Y-82586285D01*
X86650285Y-82344380D01*
X87327619Y-81957333D02*
X86650285Y-81957333D01*
X86311619Y-81957333D02*
X86360000Y-82005714D01*
X86408380Y-81957333D01*
X86360000Y-81908952D01*
X86311619Y-81957333D01*
X86408380Y-81957333D01*
X87279238Y-81038095D02*
X87327619Y-81134857D01*
X87327619Y-81328380D01*
X87279238Y-81425142D01*
X87230857Y-81473523D01*
X87134095Y-81521904D01*
X86843809Y-81521904D01*
X86747047Y-81473523D01*
X86698666Y-81425142D01*
X86650285Y-81328380D01*
X86650285Y-81134857D01*
X86698666Y-81038095D01*
X87279238Y-80215619D02*
X87327619Y-80312380D01*
X87327619Y-80505904D01*
X87279238Y-80602666D01*
X87182476Y-80651047D01*
X86795428Y-80651047D01*
X86698666Y-80602666D01*
X86650285Y-80505904D01*
X86650285Y-80312380D01*
X86698666Y-80215619D01*
X86795428Y-80167238D01*
X86892190Y-80167238D01*
X86988952Y-80651047D01*
X89105619Y-97632761D02*
X89057238Y-97729523D01*
X89008857Y-97777904D01*
X88912095Y-97826285D01*
X88621809Y-97826285D01*
X88525047Y-97777904D01*
X88476666Y-97729523D01*
X88428285Y-97632761D01*
X88428285Y-97487619D01*
X88476666Y-97390857D01*
X88525047Y-97342476D01*
X88621809Y-97294095D01*
X88912095Y-97294095D01*
X89008857Y-97342476D01*
X89057238Y-97390857D01*
X89105619Y-97487619D01*
X89105619Y-97632761D01*
X88428285Y-96858666D02*
X89444285Y-96858666D01*
X88476666Y-96858666D02*
X88428285Y-96761904D01*
X88428285Y-96568380D01*
X88476666Y-96471619D01*
X88525047Y-96423238D01*
X88621809Y-96374857D01*
X88912095Y-96374857D01*
X89008857Y-96423238D01*
X89057238Y-96471619D01*
X89105619Y-96568380D01*
X89105619Y-96761904D01*
X89057238Y-96858666D01*
X88428285Y-96084571D02*
X88428285Y-95697523D01*
X88089619Y-95939428D02*
X88960476Y-95939428D01*
X89057238Y-95891047D01*
X89105619Y-95794285D01*
X89105619Y-95697523D01*
X89105619Y-95358857D02*
X88428285Y-95358857D01*
X88089619Y-95358857D02*
X88138000Y-95407238D01*
X88186380Y-95358857D01*
X88138000Y-95310476D01*
X88089619Y-95358857D01*
X88186380Y-95358857D01*
X89057238Y-94439619D02*
X89105619Y-94536380D01*
X89105619Y-94729904D01*
X89057238Y-94826666D01*
X89008857Y-94875047D01*
X88912095Y-94923428D01*
X88621809Y-94923428D01*
X88525047Y-94875047D01*
X88476666Y-94826666D01*
X88428285Y-94729904D01*
X88428285Y-94536380D01*
X88476666Y-94439619D01*
X89105619Y-93568761D02*
X88573428Y-93568761D01*
X88476666Y-93617142D01*
X88428285Y-93713904D01*
X88428285Y-93907428D01*
X88476666Y-94004190D01*
X89057238Y-93568761D02*
X89105619Y-93665523D01*
X89105619Y-93907428D01*
X89057238Y-94004190D01*
X88960476Y-94052571D01*
X88863714Y-94052571D01*
X88766952Y-94004190D01*
X88718571Y-93907428D01*
X88718571Y-93665523D01*
X88670190Y-93568761D01*
X89105619Y-92939809D02*
X89057238Y-93036571D01*
X88960476Y-93084952D01*
X88089619Y-93084952D01*
X89202380Y-92794666D02*
X89202380Y-92020571D01*
X89057238Y-91827047D02*
X89105619Y-91730285D01*
X89105619Y-91536761D01*
X89057238Y-91440000D01*
X88960476Y-91391619D01*
X88912095Y-91391619D01*
X88815333Y-91440000D01*
X88766952Y-91536761D01*
X88766952Y-91681904D01*
X88718571Y-91778666D01*
X88621809Y-91827047D01*
X88573428Y-91827047D01*
X88476666Y-91778666D01*
X88428285Y-91681904D01*
X88428285Y-91536761D01*
X88476666Y-91440000D01*
X88428285Y-91052952D02*
X89105619Y-90859428D01*
X88621809Y-90665904D01*
X89105619Y-90472380D01*
X88428285Y-90278857D01*
X89105619Y-89891809D02*
X88428285Y-89891809D01*
X88089619Y-89891809D02*
X88138000Y-89940190D01*
X88186380Y-89891809D01*
X88138000Y-89843428D01*
X88089619Y-89891809D01*
X88186380Y-89891809D01*
X88428285Y-89553142D02*
X88428285Y-89166095D01*
X88089619Y-89408000D02*
X88960476Y-89408000D01*
X89057238Y-89359619D01*
X89105619Y-89262857D01*
X89105619Y-89166095D01*
X89057238Y-88392000D02*
X89105619Y-88488761D01*
X89105619Y-88682285D01*
X89057238Y-88779047D01*
X89008857Y-88827428D01*
X88912095Y-88875809D01*
X88621809Y-88875809D01*
X88525047Y-88827428D01*
X88476666Y-88779047D01*
X88428285Y-88682285D01*
X88428285Y-88488761D01*
X88476666Y-88392000D01*
X89105619Y-87956571D02*
X88089619Y-87956571D01*
X89105619Y-87521142D02*
X88573428Y-87521142D01*
X88476666Y-87569523D01*
X88428285Y-87666285D01*
X88428285Y-87811428D01*
X88476666Y-87908190D01*
X88525047Y-87956571D01*
X89202380Y-87279238D02*
X89202380Y-86505142D01*
X89105619Y-86263238D02*
X88428285Y-86263238D01*
X88089619Y-86263238D02*
X88138000Y-86311619D01*
X88186380Y-86263238D01*
X88138000Y-86214857D01*
X88089619Y-86263238D01*
X88186380Y-86263238D01*
X88428285Y-85779428D02*
X89105619Y-85779428D01*
X88525047Y-85779428D02*
X88476666Y-85731047D01*
X88428285Y-85634285D01*
X88428285Y-85489142D01*
X88476666Y-85392380D01*
X88573428Y-85344000D01*
X89105619Y-85344000D01*
X88428285Y-85005333D02*
X88428285Y-84618285D01*
X88089619Y-84860190D02*
X88960476Y-84860190D01*
X89057238Y-84811809D01*
X89105619Y-84715047D01*
X89105619Y-84618285D01*
X89057238Y-83892571D02*
X89105619Y-83989333D01*
X89105619Y-84182857D01*
X89057238Y-84279619D01*
X88960476Y-84328000D01*
X88573428Y-84328000D01*
X88476666Y-84279619D01*
X88428285Y-84182857D01*
X88428285Y-83989333D01*
X88476666Y-83892571D01*
X88573428Y-83844190D01*
X88670190Y-83844190D01*
X88766952Y-84328000D01*
X89105619Y-83408761D02*
X88428285Y-83408761D01*
X88621809Y-83408761D02*
X88525047Y-83360380D01*
X88476666Y-83312000D01*
X88428285Y-83215238D01*
X88428285Y-83118476D01*
X88428285Y-82924952D02*
X88428285Y-82537904D01*
X89105619Y-82779809D02*
X88234761Y-82779809D01*
X88138000Y-82731428D01*
X88089619Y-82634666D01*
X88089619Y-82537904D01*
X89105619Y-81763809D02*
X88573428Y-81763809D01*
X88476666Y-81812190D01*
X88428285Y-81908952D01*
X88428285Y-82102476D01*
X88476666Y-82199238D01*
X89057238Y-81763809D02*
X89105619Y-81860571D01*
X89105619Y-82102476D01*
X89057238Y-82199238D01*
X88960476Y-82247619D01*
X88863714Y-82247619D01*
X88766952Y-82199238D01*
X88718571Y-82102476D01*
X88718571Y-81860571D01*
X88670190Y-81763809D01*
X89057238Y-80844571D02*
X89105619Y-80941333D01*
X89105619Y-81134857D01*
X89057238Y-81231619D01*
X89008857Y-81280000D01*
X88912095Y-81328380D01*
X88621809Y-81328380D01*
X88525047Y-81280000D01*
X88476666Y-81231619D01*
X88428285Y-81134857D01*
X88428285Y-80941333D01*
X88476666Y-80844571D01*
X89057238Y-80022095D02*
X89105619Y-80118857D01*
X89105619Y-80312380D01*
X89057238Y-80409142D01*
X88960476Y-80457523D01*
X88573428Y-80457523D01*
X88476666Y-80409142D01*
X88428285Y-80312380D01*
X88428285Y-80118857D01*
X88476666Y-80022095D01*
X88573428Y-79973714D01*
X88670190Y-79973714D01*
X88766952Y-80457523D01*
X90206285Y-95939428D02*
X91222285Y-95939428D01*
X90254666Y-95939428D02*
X90206285Y-95842666D01*
X90206285Y-95649142D01*
X90254666Y-95552380D01*
X90303047Y-95504000D01*
X90399809Y-95455619D01*
X90690095Y-95455619D01*
X90786857Y-95504000D01*
X90835238Y-95552380D01*
X90883619Y-95649142D01*
X90883619Y-95842666D01*
X90835238Y-95939428D01*
X90883619Y-94584761D02*
X90351428Y-94584761D01*
X90254666Y-94633142D01*
X90206285Y-94729904D01*
X90206285Y-94923428D01*
X90254666Y-95020190D01*
X90835238Y-94584761D02*
X90883619Y-94681523D01*
X90883619Y-94923428D01*
X90835238Y-95020190D01*
X90738476Y-95068571D01*
X90641714Y-95068571D01*
X90544952Y-95020190D01*
X90496571Y-94923428D01*
X90496571Y-94681523D01*
X90448190Y-94584761D01*
X90883619Y-94100952D02*
X90206285Y-94100952D01*
X90399809Y-94100952D02*
X90303047Y-94052571D01*
X90254666Y-94004190D01*
X90206285Y-93907428D01*
X90206285Y-93810666D01*
X90206285Y-93617142D02*
X90206285Y-93230095D01*
X89867619Y-93472000D02*
X90738476Y-93472000D01*
X90835238Y-93423619D01*
X90883619Y-93326857D01*
X90883619Y-93230095D01*
X90980380Y-93133333D02*
X90980380Y-92359238D01*
X90206285Y-92117333D02*
X90883619Y-92117333D01*
X90303047Y-92117333D02*
X90254666Y-92068952D01*
X90206285Y-91972190D01*
X90206285Y-91827047D01*
X90254666Y-91730285D01*
X90351428Y-91681904D01*
X90883619Y-91681904D01*
X90206285Y-90762666D02*
X90883619Y-90762666D01*
X90206285Y-91198095D02*
X90738476Y-91198095D01*
X90835238Y-91149714D01*
X90883619Y-91052952D01*
X90883619Y-90907809D01*
X90835238Y-90811047D01*
X90786857Y-90762666D01*
X90883619Y-90278857D02*
X90206285Y-90278857D01*
X90303047Y-90278857D02*
X90254666Y-90230476D01*
X90206285Y-90133714D01*
X90206285Y-89988571D01*
X90254666Y-89891809D01*
X90351428Y-89843428D01*
X90883619Y-89843428D01*
X90351428Y-89843428D02*
X90254666Y-89795047D01*
X90206285Y-89698285D01*
X90206285Y-89553142D01*
X90254666Y-89456380D01*
X90351428Y-89408000D01*
X90883619Y-89408000D01*
X90883619Y-88924190D02*
X89867619Y-88924190D01*
X90254666Y-88924190D02*
X90206285Y-88827428D01*
X90206285Y-88633904D01*
X90254666Y-88537142D01*
X90303047Y-88488761D01*
X90399809Y-88440380D01*
X90690095Y-88440380D01*
X90786857Y-88488761D01*
X90835238Y-88537142D01*
X90883619Y-88633904D01*
X90883619Y-88827428D01*
X90835238Y-88924190D01*
X90835238Y-87617904D02*
X90883619Y-87714666D01*
X90883619Y-87908190D01*
X90835238Y-88004952D01*
X90738476Y-88053333D01*
X90351428Y-88053333D01*
X90254666Y-88004952D01*
X90206285Y-87908190D01*
X90206285Y-87714666D01*
X90254666Y-87617904D01*
X90351428Y-87569523D01*
X90448190Y-87569523D01*
X90544952Y-88053333D01*
X90883619Y-87134095D02*
X90206285Y-87134095D01*
X90399809Y-87134095D02*
X90303047Y-87085714D01*
X90254666Y-87037333D01*
X90206285Y-86940571D01*
X90206285Y-86843809D01*
X90786857Y-86505142D02*
X90835238Y-86456761D01*
X90883619Y-86505142D01*
X90835238Y-86553523D01*
X90786857Y-86505142D01*
X90883619Y-86505142D01*
X90254666Y-86505142D02*
X90303047Y-86456761D01*
X90351428Y-86505142D01*
X90303047Y-86553523D01*
X90254666Y-86505142D01*
X90351428Y-86505142D01*
X90883619Y-84715047D02*
X90883619Y-85295619D01*
X90883619Y-85005333D02*
X89867619Y-85005333D01*
X90012761Y-85102095D01*
X90109523Y-85198857D01*
X90157904Y-85295619D01*
X89964380Y-84328000D02*
X89916000Y-84279619D01*
X89867619Y-84182857D01*
X89867619Y-83940952D01*
X89916000Y-83844190D01*
X89964380Y-83795809D01*
X90061142Y-83747428D01*
X90157904Y-83747428D01*
X90303047Y-83795809D01*
X90883619Y-84376380D01*
X90883619Y-83747428D01*
X89964380Y-83360380D02*
X89916000Y-83312000D01*
X89867619Y-83215238D01*
X89867619Y-82973333D01*
X89916000Y-82876571D01*
X89964380Y-82828190D01*
X90061142Y-82779809D01*
X90157904Y-82779809D01*
X90303047Y-82828190D01*
X90883619Y-83408761D01*
X90883619Y-82779809D01*
X90883619Y-81812190D02*
X90883619Y-82392761D01*
X90883619Y-82102476D02*
X89867619Y-82102476D01*
X90012761Y-82199238D01*
X90109523Y-82295999D01*
X90157904Y-82392761D01*
X91645619Y-96786095D02*
X91645619Y-96689333D01*
X91694000Y-96592571D01*
X91742380Y-96544190D01*
X91839142Y-96495809D01*
X92032666Y-96447428D01*
X92274571Y-96447428D01*
X92468095Y-96495809D01*
X92564857Y-96544190D01*
X92613238Y-96592571D01*
X92661619Y-96689333D01*
X92661619Y-96786095D01*
X92613238Y-96882857D01*
X92564857Y-96931238D01*
X92468095Y-96979619D01*
X92274571Y-97028000D01*
X92032666Y-97028000D01*
X91839142Y-96979619D01*
X91742380Y-96931238D01*
X91694000Y-96882857D01*
X91645619Y-96786095D01*
X91645619Y-96108761D02*
X91645619Y-95479809D01*
X92032666Y-95818476D01*
X92032666Y-95673333D01*
X92081047Y-95576571D01*
X92129428Y-95528190D01*
X92226190Y-95479809D01*
X92468095Y-95479809D01*
X92564857Y-95528190D01*
X92613238Y-95576571D01*
X92661619Y-95673333D01*
X92661619Y-95963619D01*
X92613238Y-96060380D01*
X92564857Y-96108761D01*
X91597238Y-94318666D02*
X92903523Y-95189523D01*
X91742380Y-94028380D02*
X91694000Y-93980000D01*
X91645619Y-93883238D01*
X91645619Y-93641333D01*
X91694000Y-93544571D01*
X91742380Y-93496190D01*
X91839142Y-93447809D01*
X91935904Y-93447809D01*
X92081047Y-93496190D01*
X92661619Y-94076761D01*
X92661619Y-93447809D01*
X91645619Y-92818857D02*
X91645619Y-92722095D01*
X91694000Y-92625333D01*
X91742380Y-92576952D01*
X91839142Y-92528571D01*
X92032666Y-92480190D01*
X92274571Y-92480190D01*
X92468095Y-92528571D01*
X92564857Y-92576952D01*
X92613238Y-92625333D01*
X92661619Y-92722095D01*
X92661619Y-92818857D01*
X92613238Y-92915619D01*
X92564857Y-92964000D01*
X92468095Y-93012380D01*
X92274571Y-93060761D01*
X92032666Y-93060761D01*
X91839142Y-93012380D01*
X91742380Y-92964000D01*
X91694000Y-92915619D01*
X91645619Y-92818857D01*
X92661619Y-91512571D02*
X92661619Y-92093142D01*
X92661619Y-91802857D02*
X91645619Y-91802857D01*
X91790761Y-91899619D01*
X91887523Y-91996380D01*
X91935904Y-92093142D01*
X91645619Y-91173904D02*
X91645619Y-90496571D01*
X92661619Y-90932000D01*
X91984285Y-89432190D02*
X92661619Y-89190285D01*
X91984285Y-88948380D01*
X92613238Y-88174285D02*
X92661619Y-88271047D01*
X92661619Y-88464571D01*
X92613238Y-88561333D01*
X92516476Y-88609714D01*
X92129428Y-88609714D01*
X92032666Y-88561333D01*
X91984285Y-88464571D01*
X91984285Y-88271047D01*
X92032666Y-88174285D01*
X92129428Y-88125904D01*
X92226190Y-88125904D01*
X92322952Y-88609714D01*
X92661619Y-87690476D02*
X91984285Y-87690476D01*
X92177809Y-87690476D02*
X92081047Y-87642095D01*
X92032666Y-87593714D01*
X91984285Y-87496952D01*
X91984285Y-87400190D01*
X92661619Y-85755238D02*
X92661619Y-86335809D01*
X92661619Y-86045523D02*
X91645619Y-86045523D01*
X91790761Y-86142285D01*
X91887523Y-86239047D01*
X91935904Y-86335809D01*
X92564857Y-85319809D02*
X92613238Y-85271428D01*
X92661619Y-85319809D01*
X92613238Y-85368190D01*
X92564857Y-85319809D01*
X92661619Y-85319809D01*
X91645619Y-84642476D02*
X91645619Y-84545714D01*
X91694000Y-84448952D01*
X91742380Y-84400571D01*
X91839142Y-84352190D01*
X92032666Y-84303809D01*
X92274571Y-84303809D01*
X92468095Y-84352190D01*
X92564857Y-84400571D01*
X92613238Y-84448952D01*
X92661619Y-84545714D01*
X92661619Y-84642476D01*
X92613238Y-84739238D01*
X92564857Y-84787619D01*
X92468095Y-84836000D01*
X92274571Y-84884380D01*
X92032666Y-84884380D01*
X91839142Y-84836000D01*
X91742380Y-84787619D01*
X91694000Y-84739238D01*
X91645619Y-84642476D01*
X91645619Y-83191047D02*
X91645619Y-82562095D01*
X92032666Y-82900761D01*
X92032666Y-82755619D01*
X92081047Y-82658857D01*
X92129428Y-82610476D01*
X92226190Y-82562095D01*
X92468095Y-82562095D01*
X92564857Y-82610476D01*
X92613238Y-82658857D01*
X92661619Y-82755619D01*
X92661619Y-83045904D01*
X92613238Y-83142666D01*
X92564857Y-83191047D01*
X92661619Y-82223428D02*
X91984285Y-81691238D01*
X91984285Y-82223428D02*
X92661619Y-81691238D01*
X91742380Y-81352571D02*
X91694000Y-81304190D01*
X91645619Y-81207428D01*
X91645619Y-80965523D01*
X91694000Y-80868761D01*
X91742380Y-80820380D01*
X91839142Y-80772000D01*
X91935904Y-80772000D01*
X92081047Y-80820380D01*
X92661619Y-81400952D01*
X92661619Y-80772000D01*
D12*
X92075000Y-76200000D02*
G75*
G03X92075000Y-76200000I-2540000J0D01*
G01*
X92075000Y-101600000D02*
G75*
G03X92075000Y-101600000I-2540000J0D01*
G01*
X132715000Y-106680000D02*
G75*
G03X132715000Y-106680000I-2540000J0D01*
G01*
X132715000Y-71120000D02*
G75*
G03X132715000Y-71120000I-2540000J0D01*
G01*
D15*
X143510000Y-78740000D02*
X144272000Y-79502000D01*
X142240000Y-74930000D02*
X143764000Y-73914000D01*
X155575000Y-69850000D02*
X156210000Y-69850000D01*
X156210000Y-69850000D02*
X156210000Y-82550000D01*
X156210000Y-82550000D02*
X155575000Y-82550000D01*
X155575000Y-68580000D02*
X139700000Y-68580000D01*
X139700000Y-68580000D02*
X139700000Y-83820000D01*
X139700000Y-83820000D02*
X155575000Y-83820000D01*
X155575000Y-83820000D02*
X155575000Y-68580000D01*
X141605000Y-80518000D02*
X145415000Y-76708000D01*
X142240000Y-76200000D02*
X142240000Y-73660000D01*
X142240000Y-101600000D02*
X142240000Y-99060000D01*
X141605000Y-105918000D02*
X145415000Y-102108000D01*
X155575000Y-109220000D02*
X155575000Y-93980000D01*
X139700000Y-109220000D02*
X155575000Y-109220000D01*
X139700000Y-93980000D02*
X139700000Y-109220000D01*
X155575000Y-93980000D02*
X139700000Y-93980000D01*
X156210000Y-107950000D02*
X155575000Y-107950000D01*
X156210000Y-95250000D02*
X156210000Y-107950000D01*
X155575000Y-95250000D02*
X156210000Y-95250000D01*
X142240000Y-100330000D02*
X143764000Y-99314000D01*
X143510000Y-104140000D02*
X144272000Y-104902000D01*
X108585000Y-79375000D02*
X108585000Y-77851000D01*
X100965000Y-79375000D02*
X100965000Y-77851000D01*
X109220000Y-76708000D02*
X109855000Y-77978000D01*
X109855000Y-77978000D02*
X110490000Y-76708000D01*
X110490000Y-76708000D02*
X109220000Y-76708000D01*
X100965000Y-77851000D02*
X108585000Y-77851000D01*
X97155000Y-79375000D02*
X97155000Y-84455000D01*
X97155000Y-84455000D02*
X112395000Y-84455000D01*
X112395000Y-84455000D02*
X112395000Y-79375000D01*
X112395000Y-79375000D02*
X97155000Y-79375000D01*
X132715000Y-79375000D02*
X117475000Y-79375000D01*
X132715000Y-84455000D02*
X132715000Y-79375000D01*
X117475000Y-84455000D02*
X132715000Y-84455000D01*
X117475000Y-79375000D02*
X117475000Y-84455000D01*
X121285000Y-77851000D02*
X128905000Y-77851000D01*
X130810000Y-76708000D02*
X129540000Y-76708000D01*
X130175000Y-77978000D02*
X130810000Y-76708000D01*
X129540000Y-76708000D02*
X130175000Y-77978000D01*
X121285000Y-79375000D02*
X121285000Y-77851000D01*
X128905000Y-79375000D02*
X128905000Y-77851000D01*
X108585000Y-93345000D02*
X108585000Y-91821000D01*
X100965000Y-93345000D02*
X100965000Y-91821000D01*
X109220000Y-90678000D02*
X109855000Y-91948000D01*
X109855000Y-91948000D02*
X110490000Y-90678000D01*
X110490000Y-90678000D02*
X109220000Y-90678000D01*
X100965000Y-91821000D02*
X108585000Y-91821000D01*
X97155000Y-93345000D02*
X97155000Y-98425000D01*
X97155000Y-98425000D02*
X112395000Y-98425000D01*
X112395000Y-98425000D02*
X112395000Y-93345000D01*
X112395000Y-93345000D02*
X97155000Y-93345000D01*
X132715000Y-93345000D02*
X117475000Y-93345000D01*
X132715000Y-98425000D02*
X132715000Y-93345000D01*
X117475000Y-98425000D02*
X132715000Y-98425000D01*
X117475000Y-93345000D02*
X117475000Y-98425000D01*
X121285000Y-91821000D02*
X128905000Y-91821000D01*
X130810000Y-90678000D02*
X129540000Y-90678000D01*
X130175000Y-91948000D02*
X130810000Y-90678000D01*
X129540000Y-90678000D02*
X130175000Y-91948000D01*
X121285000Y-93345000D02*
X121285000Y-91821000D01*
X128905000Y-93345000D02*
X128905000Y-91821000D01*
D14*
X153555095Y-85549619D02*
X153555095Y-84533619D01*
X153942142Y-84533619D01*
X154038904Y-84582000D01*
X154087285Y-84630380D01*
X154135666Y-84727142D01*
X154135666Y-84872285D01*
X154087285Y-84969047D01*
X154038904Y-85017428D01*
X153942142Y-85065809D01*
X153555095Y-85065809D01*
X155103285Y-85549619D02*
X154522714Y-85549619D01*
X154813000Y-85549619D02*
X154813000Y-84533619D01*
X154716238Y-84678761D01*
X154619476Y-84775523D01*
X154522714Y-84823904D01*
X136603619Y-81788000D02*
X136603619Y-81207428D01*
X137619619Y-81497714D02*
X136603619Y-81497714D01*
X137619619Y-80723619D02*
X137571238Y-80820380D01*
X137522857Y-80868761D01*
X137426095Y-80917142D01*
X137135809Y-80917142D01*
X137039047Y-80868761D01*
X136990666Y-80820380D01*
X136942285Y-80723619D01*
X136942285Y-80578476D01*
X136990666Y-80481714D01*
X137039047Y-80433333D01*
X137135809Y-80384952D01*
X137426095Y-80384952D01*
X137522857Y-80433333D01*
X137571238Y-80481714D01*
X137619619Y-80578476D01*
X137619619Y-80723619D01*
X136942285Y-79949523D02*
X137958285Y-79949523D01*
X136990666Y-79949523D02*
X136942285Y-79852761D01*
X136942285Y-79659238D01*
X136990666Y-79562476D01*
X137039047Y-79514095D01*
X137135809Y-79465714D01*
X137426095Y-79465714D01*
X137522857Y-79514095D01*
X137571238Y-79562476D01*
X137619619Y-79659238D01*
X137619619Y-79852761D01*
X137571238Y-79949523D01*
X137522857Y-79030285D02*
X137571238Y-78981904D01*
X137619619Y-79030285D01*
X137571238Y-79078666D01*
X137522857Y-79030285D01*
X137619619Y-79030285D01*
X136990666Y-79030285D02*
X137039047Y-78981904D01*
X137087428Y-79030285D01*
X137039047Y-79078666D01*
X136990666Y-79030285D01*
X137087428Y-79030285D01*
X136603619Y-77578857D02*
X136603619Y-77385333D01*
X136652000Y-77288571D01*
X136748761Y-77191809D01*
X136942285Y-77143428D01*
X137280952Y-77143428D01*
X137474476Y-77191809D01*
X137571238Y-77288571D01*
X137619619Y-77385333D01*
X137619619Y-77578857D01*
X137571238Y-77675619D01*
X137474476Y-77772380D01*
X137280952Y-77820761D01*
X136942285Y-77820761D01*
X136748761Y-77772380D01*
X136652000Y-77675619D01*
X136603619Y-77578857D01*
X136603619Y-76708000D02*
X137426095Y-76708000D01*
X137522857Y-76659619D01*
X137571238Y-76611238D01*
X137619619Y-76514476D01*
X137619619Y-76320952D01*
X137571238Y-76224190D01*
X137522857Y-76175809D01*
X137426095Y-76127428D01*
X136603619Y-76127428D01*
X136603619Y-75788761D02*
X136603619Y-75208190D01*
X137619619Y-75498476D02*
X136603619Y-75498476D01*
X137619619Y-74869523D02*
X136603619Y-74869523D01*
X136603619Y-74482476D01*
X136652000Y-74385714D01*
X136700380Y-74337333D01*
X136797142Y-74288952D01*
X136942285Y-74288952D01*
X137039047Y-74337333D01*
X137087428Y-74385714D01*
X137135809Y-74482476D01*
X137135809Y-74869523D01*
X136603619Y-73853523D02*
X137426095Y-73853523D01*
X137522857Y-73805142D01*
X137571238Y-73756761D01*
X137619619Y-73660000D01*
X137619619Y-73466476D01*
X137571238Y-73369714D01*
X137522857Y-73321333D01*
X137426095Y-73272952D01*
X136603619Y-73272952D01*
X136603619Y-72934285D02*
X136603619Y-72353714D01*
X137619619Y-72644000D02*
X136603619Y-72644000D01*
X137716380Y-72256952D02*
X137716380Y-71482857D01*
X137619619Y-70708761D02*
X137619619Y-71289333D01*
X137619619Y-70999047D02*
X136603619Y-70999047D01*
X136748761Y-71095809D01*
X136845523Y-71192571D01*
X136893904Y-71289333D01*
X138611428Y-82683047D02*
X138659809Y-82537904D01*
X138708190Y-82489523D01*
X138804952Y-82441142D01*
X138950095Y-82441142D01*
X139046857Y-82489523D01*
X139095238Y-82537904D01*
X139143619Y-82634666D01*
X139143619Y-83021714D01*
X138127619Y-83021714D01*
X138127619Y-82683047D01*
X138176000Y-82586285D01*
X138224380Y-82537904D01*
X138321142Y-82489523D01*
X138417904Y-82489523D01*
X138514666Y-82537904D01*
X138563047Y-82586285D01*
X138611428Y-82683047D01*
X138611428Y-83021714D01*
X139143619Y-81860571D02*
X139095238Y-81957333D01*
X139046857Y-82005714D01*
X138950095Y-82054095D01*
X138659809Y-82054095D01*
X138563047Y-82005714D01*
X138514666Y-81957333D01*
X138466285Y-81860571D01*
X138466285Y-81715428D01*
X138514666Y-81618666D01*
X138563047Y-81570285D01*
X138659809Y-81521904D01*
X138950095Y-81521904D01*
X139046857Y-81570285D01*
X139095238Y-81618666D01*
X139143619Y-81715428D01*
X139143619Y-81860571D01*
X138466285Y-81231619D02*
X138466285Y-80844571D01*
X138127619Y-81086476D02*
X138998476Y-81086476D01*
X139095238Y-81038095D01*
X139143619Y-80941333D01*
X139143619Y-80844571D01*
X138466285Y-80651047D02*
X138466285Y-80264000D01*
X138127619Y-80505904D02*
X138998476Y-80505904D01*
X139095238Y-80457523D01*
X139143619Y-80360761D01*
X139143619Y-80264000D01*
X139143619Y-79780190D02*
X139095238Y-79876952D01*
X139046857Y-79925333D01*
X138950095Y-79973714D01*
X138659809Y-79973714D01*
X138563047Y-79925333D01*
X138514666Y-79876952D01*
X138466285Y-79780190D01*
X138466285Y-79635047D01*
X138514666Y-79538285D01*
X138563047Y-79489904D01*
X138659809Y-79441523D01*
X138950095Y-79441523D01*
X139046857Y-79489904D01*
X139095238Y-79538285D01*
X139143619Y-79635047D01*
X139143619Y-79780190D01*
X139143619Y-79006095D02*
X138466285Y-79006095D01*
X138563047Y-79006095D02*
X138514666Y-78957714D01*
X138466285Y-78860952D01*
X138466285Y-78715809D01*
X138514666Y-78619047D01*
X138611428Y-78570666D01*
X139143619Y-78570666D01*
X138611428Y-78570666D02*
X138514666Y-78522285D01*
X138466285Y-78425523D01*
X138466285Y-78280380D01*
X138514666Y-78183619D01*
X138611428Y-78135238D01*
X139143619Y-78135238D01*
X139046857Y-77651428D02*
X139095238Y-77603047D01*
X139143619Y-77651428D01*
X139095238Y-77699809D01*
X139046857Y-77651428D01*
X139143619Y-77651428D01*
X138514666Y-77651428D02*
X138563047Y-77603047D01*
X138611428Y-77651428D01*
X138563047Y-77699809D01*
X138514666Y-77651428D01*
X138611428Y-77651428D01*
X138127619Y-76200000D02*
X138127619Y-76006476D01*
X138176000Y-75909714D01*
X138272761Y-75812952D01*
X138466285Y-75764571D01*
X138804952Y-75764571D01*
X138998476Y-75812952D01*
X139095238Y-75909714D01*
X139143619Y-76006476D01*
X139143619Y-76200000D01*
X139095238Y-76296761D01*
X138998476Y-76393523D01*
X138804952Y-76441904D01*
X138466285Y-76441904D01*
X138272761Y-76393523D01*
X138176000Y-76296761D01*
X138127619Y-76200000D01*
X138127619Y-75329142D02*
X138950095Y-75329142D01*
X139046857Y-75280761D01*
X139095238Y-75232380D01*
X139143619Y-75135619D01*
X139143619Y-74942095D01*
X139095238Y-74845333D01*
X139046857Y-74796952D01*
X138950095Y-74748571D01*
X138127619Y-74748571D01*
X138127619Y-74409904D02*
X138127619Y-73829333D01*
X139143619Y-74119619D02*
X138127619Y-74119619D01*
X139143619Y-73490666D02*
X138127619Y-73490666D01*
X138127619Y-73103619D01*
X138176000Y-73006857D01*
X138224380Y-72958476D01*
X138321142Y-72910095D01*
X138466285Y-72910095D01*
X138563047Y-72958476D01*
X138611428Y-73006857D01*
X138659809Y-73103619D01*
X138659809Y-73490666D01*
X138127619Y-72474666D02*
X138950095Y-72474666D01*
X139046857Y-72426285D01*
X139095238Y-72377904D01*
X139143619Y-72281142D01*
X139143619Y-72087619D01*
X139095238Y-71990857D01*
X139046857Y-71942476D01*
X138950095Y-71894095D01*
X138127619Y-71894095D01*
X138127619Y-71555428D02*
X138127619Y-70974857D01*
X139143619Y-71265142D02*
X138127619Y-71265142D01*
X139240380Y-70878095D02*
X139240380Y-70104000D01*
X138127619Y-69668571D02*
X138127619Y-69571809D01*
X138176000Y-69475047D01*
X138224380Y-69426666D01*
X138321142Y-69378285D01*
X138514666Y-69329904D01*
X138756571Y-69329904D01*
X138950095Y-69378285D01*
X139046857Y-69426666D01*
X139095238Y-69475047D01*
X139143619Y-69571809D01*
X139143619Y-69668571D01*
X139095238Y-69765333D01*
X139046857Y-69813714D01*
X138950095Y-69862095D01*
X138756571Y-69910476D01*
X138514666Y-69910476D01*
X138321142Y-69862095D01*
X138224380Y-69813714D01*
X138176000Y-69765333D01*
X138127619Y-69668571D01*
X144453428Y-80191428D02*
X144501809Y-80046285D01*
X144550190Y-79997904D01*
X144646952Y-79949523D01*
X144792095Y-79949523D01*
X144888857Y-79997904D01*
X144937238Y-80046285D01*
X144985619Y-80143047D01*
X144985619Y-80530095D01*
X143969619Y-80530095D01*
X143969619Y-80191428D01*
X144018000Y-80094666D01*
X144066380Y-80046285D01*
X144163142Y-79997904D01*
X144259904Y-79997904D01*
X144356666Y-80046285D01*
X144405047Y-80094666D01*
X144453428Y-80191428D01*
X144453428Y-80530095D01*
X144223619Y-73950285D02*
X144223619Y-73369714D01*
X145239619Y-73660000D02*
X144223619Y-73660000D01*
X153555095Y-93169619D02*
X153555095Y-92153619D01*
X153942142Y-92153619D01*
X154038904Y-92202000D01*
X154087285Y-92250380D01*
X154135666Y-92347142D01*
X154135666Y-92492285D01*
X154087285Y-92589047D01*
X154038904Y-92637428D01*
X153942142Y-92685809D01*
X153555095Y-92685809D01*
X154522714Y-92250380D02*
X154571095Y-92202000D01*
X154667857Y-92153619D01*
X154909761Y-92153619D01*
X155006523Y-92202000D01*
X155054904Y-92250380D01*
X155103285Y-92347142D01*
X155103285Y-92443904D01*
X155054904Y-92589047D01*
X154474333Y-93169619D01*
X155103285Y-93169619D01*
X144223619Y-99350285D02*
X144223619Y-98769714D01*
X145239619Y-99060000D02*
X144223619Y-99060000D01*
X144453428Y-105591428D02*
X144501809Y-105446285D01*
X144550190Y-105397904D01*
X144646952Y-105349523D01*
X144792095Y-105349523D01*
X144888857Y-105397904D01*
X144937238Y-105446285D01*
X144985619Y-105543047D01*
X144985619Y-105930095D01*
X143969619Y-105930095D01*
X143969619Y-105591428D01*
X144018000Y-105494666D01*
X144066380Y-105446285D01*
X144163142Y-105397904D01*
X144259904Y-105397904D01*
X144356666Y-105446285D01*
X144405047Y-105494666D01*
X144453428Y-105591428D01*
X144453428Y-105930095D01*
X138611428Y-108083047D02*
X138659809Y-107937904D01*
X138708190Y-107889523D01*
X138804952Y-107841142D01*
X138950095Y-107841142D01*
X139046857Y-107889523D01*
X139095238Y-107937904D01*
X139143619Y-108034666D01*
X139143619Y-108421714D01*
X138127619Y-108421714D01*
X138127619Y-108083047D01*
X138176000Y-107986285D01*
X138224380Y-107937904D01*
X138321142Y-107889523D01*
X138417904Y-107889523D01*
X138514666Y-107937904D01*
X138563047Y-107986285D01*
X138611428Y-108083047D01*
X138611428Y-108421714D01*
X139143619Y-107260571D02*
X139095238Y-107357333D01*
X139046857Y-107405714D01*
X138950095Y-107454095D01*
X138659809Y-107454095D01*
X138563047Y-107405714D01*
X138514666Y-107357333D01*
X138466285Y-107260571D01*
X138466285Y-107115428D01*
X138514666Y-107018666D01*
X138563047Y-106970285D01*
X138659809Y-106921904D01*
X138950095Y-106921904D01*
X139046857Y-106970285D01*
X139095238Y-107018666D01*
X139143619Y-107115428D01*
X139143619Y-107260571D01*
X138466285Y-106631619D02*
X138466285Y-106244571D01*
X138127619Y-106486476D02*
X138998476Y-106486476D01*
X139095238Y-106438095D01*
X139143619Y-106341333D01*
X139143619Y-106244571D01*
X138466285Y-106051047D02*
X138466285Y-105664000D01*
X138127619Y-105905904D02*
X138998476Y-105905904D01*
X139095238Y-105857523D01*
X139143619Y-105760761D01*
X139143619Y-105664000D01*
X139143619Y-105180190D02*
X139095238Y-105276952D01*
X139046857Y-105325333D01*
X138950095Y-105373714D01*
X138659809Y-105373714D01*
X138563047Y-105325333D01*
X138514666Y-105276952D01*
X138466285Y-105180190D01*
X138466285Y-105035047D01*
X138514666Y-104938285D01*
X138563047Y-104889904D01*
X138659809Y-104841523D01*
X138950095Y-104841523D01*
X139046857Y-104889904D01*
X139095238Y-104938285D01*
X139143619Y-105035047D01*
X139143619Y-105180190D01*
X139143619Y-104406095D02*
X138466285Y-104406095D01*
X138563047Y-104406095D02*
X138514666Y-104357714D01*
X138466285Y-104260952D01*
X138466285Y-104115809D01*
X138514666Y-104019047D01*
X138611428Y-103970666D01*
X139143619Y-103970666D01*
X138611428Y-103970666D02*
X138514666Y-103922285D01*
X138466285Y-103825523D01*
X138466285Y-103680380D01*
X138514666Y-103583619D01*
X138611428Y-103535238D01*
X139143619Y-103535238D01*
X139046857Y-103051428D02*
X139095238Y-103003047D01*
X139143619Y-103051428D01*
X139095238Y-103099809D01*
X139046857Y-103051428D01*
X139143619Y-103051428D01*
X138514666Y-103051428D02*
X138563047Y-103003047D01*
X138611428Y-103051428D01*
X138563047Y-103099809D01*
X138514666Y-103051428D01*
X138611428Y-103051428D01*
X138127619Y-101600000D02*
X138127619Y-101406476D01*
X138176000Y-101309714D01*
X138272761Y-101212952D01*
X138466285Y-101164571D01*
X138804952Y-101164571D01*
X138998476Y-101212952D01*
X139095238Y-101309714D01*
X139143619Y-101406476D01*
X139143619Y-101600000D01*
X139095238Y-101696761D01*
X138998476Y-101793523D01*
X138804952Y-101841904D01*
X138466285Y-101841904D01*
X138272761Y-101793523D01*
X138176000Y-101696761D01*
X138127619Y-101600000D01*
X138127619Y-100729142D02*
X138950095Y-100729142D01*
X139046857Y-100680761D01*
X139095238Y-100632380D01*
X139143619Y-100535619D01*
X139143619Y-100342095D01*
X139095238Y-100245333D01*
X139046857Y-100196952D01*
X138950095Y-100148571D01*
X138127619Y-100148571D01*
X138127619Y-99809904D02*
X138127619Y-99229333D01*
X139143619Y-99519619D02*
X138127619Y-99519619D01*
X139143619Y-98890666D02*
X138127619Y-98890666D01*
X138127619Y-98503619D01*
X138176000Y-98406857D01*
X138224380Y-98358476D01*
X138321142Y-98310095D01*
X138466285Y-98310095D01*
X138563047Y-98358476D01*
X138611428Y-98406857D01*
X138659809Y-98503619D01*
X138659809Y-98890666D01*
X138127619Y-97874666D02*
X138950095Y-97874666D01*
X139046857Y-97826285D01*
X139095238Y-97777904D01*
X139143619Y-97681142D01*
X139143619Y-97487619D01*
X139095238Y-97390857D01*
X139046857Y-97342476D01*
X138950095Y-97294095D01*
X138127619Y-97294095D01*
X138127619Y-96955428D02*
X138127619Y-96374857D01*
X139143619Y-96665142D02*
X138127619Y-96665142D01*
X139240380Y-96278095D02*
X139240380Y-95504000D01*
X138224380Y-95310476D02*
X138176000Y-95262095D01*
X138127619Y-95165333D01*
X138127619Y-94923428D01*
X138176000Y-94826666D01*
X138224380Y-94778285D01*
X138321142Y-94729904D01*
X138417904Y-94729904D01*
X138563047Y-94778285D01*
X139143619Y-95358857D01*
X139143619Y-94729904D01*
X136603619Y-107188000D02*
X136603619Y-106607428D01*
X137619619Y-106897714D02*
X136603619Y-106897714D01*
X137619619Y-106123619D02*
X137571238Y-106220380D01*
X137522857Y-106268761D01*
X137426095Y-106317142D01*
X137135809Y-106317142D01*
X137039047Y-106268761D01*
X136990666Y-106220380D01*
X136942285Y-106123619D01*
X136942285Y-105978476D01*
X136990666Y-105881714D01*
X137039047Y-105833333D01*
X137135809Y-105784952D01*
X137426095Y-105784952D01*
X137522857Y-105833333D01*
X137571238Y-105881714D01*
X137619619Y-105978476D01*
X137619619Y-106123619D01*
X136942285Y-105349523D02*
X137958285Y-105349523D01*
X136990666Y-105349523D02*
X136942285Y-105252761D01*
X136942285Y-105059238D01*
X136990666Y-104962476D01*
X137039047Y-104914095D01*
X137135809Y-104865714D01*
X137426095Y-104865714D01*
X137522857Y-104914095D01*
X137571238Y-104962476D01*
X137619619Y-105059238D01*
X137619619Y-105252761D01*
X137571238Y-105349523D01*
X137522857Y-104430285D02*
X137571238Y-104381904D01*
X137619619Y-104430285D01*
X137571238Y-104478666D01*
X137522857Y-104430285D01*
X137619619Y-104430285D01*
X136990666Y-104430285D02*
X137039047Y-104381904D01*
X137087428Y-104430285D01*
X137039047Y-104478666D01*
X136990666Y-104430285D01*
X137087428Y-104430285D01*
X136603619Y-102978857D02*
X136603619Y-102785333D01*
X136652000Y-102688571D01*
X136748761Y-102591809D01*
X136942285Y-102543428D01*
X137280952Y-102543428D01*
X137474476Y-102591809D01*
X137571238Y-102688571D01*
X137619619Y-102785333D01*
X137619619Y-102978857D01*
X137571238Y-103075619D01*
X137474476Y-103172380D01*
X137280952Y-103220761D01*
X136942285Y-103220761D01*
X136748761Y-103172380D01*
X136652000Y-103075619D01*
X136603619Y-102978857D01*
X136603619Y-102108000D02*
X137426095Y-102108000D01*
X137522857Y-102059619D01*
X137571238Y-102011238D01*
X137619619Y-101914476D01*
X137619619Y-101720952D01*
X137571238Y-101624190D01*
X137522857Y-101575809D01*
X137426095Y-101527428D01*
X136603619Y-101527428D01*
X136603619Y-101188761D02*
X136603619Y-100608190D01*
X137619619Y-100898476D02*
X136603619Y-100898476D01*
X137619619Y-100269523D02*
X136603619Y-100269523D01*
X136603619Y-99882476D01*
X136652000Y-99785714D01*
X136700380Y-99737333D01*
X136797142Y-99688952D01*
X136942285Y-99688952D01*
X137039047Y-99737333D01*
X137087428Y-99785714D01*
X137135809Y-99882476D01*
X137135809Y-100269523D01*
X136603619Y-99253523D02*
X137426095Y-99253523D01*
X137522857Y-99205142D01*
X137571238Y-99156761D01*
X137619619Y-99060000D01*
X137619619Y-98866476D01*
X137571238Y-98769714D01*
X137522857Y-98721333D01*
X137426095Y-98672952D01*
X136603619Y-98672952D01*
X136603619Y-98334285D02*
X136603619Y-97753714D01*
X137619619Y-98044000D02*
X136603619Y-98044000D01*
X137716380Y-97656952D02*
X137716380Y-96882857D01*
X136603619Y-96737714D02*
X136603619Y-96108761D01*
X136990666Y-96447428D01*
X136990666Y-96302285D01*
X137039047Y-96205523D01*
X137087428Y-96157142D01*
X137184190Y-96108761D01*
X137426095Y-96108761D01*
X137522857Y-96157142D01*
X137571238Y-96205523D01*
X137619619Y-96302285D01*
X137619619Y-96592571D01*
X137571238Y-96689333D01*
X137522857Y-96737714D01*
X114124619Y-82664904D02*
X113108619Y-82664904D01*
X113108619Y-82277857D01*
X113157000Y-82181095D01*
X113205380Y-82132714D01*
X113302142Y-82084333D01*
X113447285Y-82084333D01*
X113544047Y-82132714D01*
X113592428Y-82181095D01*
X113640809Y-82277857D01*
X113640809Y-82664904D01*
X113108619Y-81745666D02*
X113108619Y-81116714D01*
X113495666Y-81455380D01*
X113495666Y-81310238D01*
X113544047Y-81213476D01*
X113592428Y-81165095D01*
X113689190Y-81116714D01*
X113931095Y-81116714D01*
X114027857Y-81165095D01*
X114076238Y-81213476D01*
X114124619Y-81310238D01*
X114124619Y-81600523D01*
X114076238Y-81697285D01*
X114027857Y-81745666D01*
X134444619Y-82664904D02*
X133428619Y-82664904D01*
X133428619Y-82277857D01*
X133477000Y-82181095D01*
X133525380Y-82132714D01*
X133622142Y-82084333D01*
X133767285Y-82084333D01*
X133864047Y-82132714D01*
X133912428Y-82181095D01*
X133960809Y-82277857D01*
X133960809Y-82664904D01*
X133767285Y-81213476D02*
X134444619Y-81213476D01*
X133380238Y-81455380D02*
X134105952Y-81697285D01*
X134105952Y-81068333D01*
X114124619Y-96634904D02*
X113108619Y-96634904D01*
X113108619Y-96247857D01*
X113157000Y-96151095D01*
X113205380Y-96102714D01*
X113302142Y-96054333D01*
X113447285Y-96054333D01*
X113544047Y-96102714D01*
X113592428Y-96151095D01*
X113640809Y-96247857D01*
X113640809Y-96634904D01*
X113108619Y-95135095D02*
X113108619Y-95618904D01*
X113592428Y-95667285D01*
X113544047Y-95618904D01*
X113495666Y-95522142D01*
X113495666Y-95280238D01*
X113544047Y-95183476D01*
X113592428Y-95135095D01*
X113689190Y-95086714D01*
X113931095Y-95086714D01*
X114027857Y-95135095D01*
X114076238Y-95183476D01*
X114124619Y-95280238D01*
X114124619Y-95522142D01*
X114076238Y-95618904D01*
X114027857Y-95667285D01*
X134444619Y-96634904D02*
X133428619Y-96634904D01*
X133428619Y-96247857D01*
X133477000Y-96151095D01*
X133525380Y-96102714D01*
X133622142Y-96054333D01*
X133767285Y-96054333D01*
X133864047Y-96102714D01*
X133912428Y-96151095D01*
X133960809Y-96247857D01*
X133960809Y-96634904D01*
X133428619Y-95183476D02*
X133428619Y-95377000D01*
X133477000Y-95473761D01*
X133525380Y-95522142D01*
X133670523Y-95618904D01*
X133864047Y-95667285D01*
X134251095Y-95667285D01*
X134347857Y-95618904D01*
X134396238Y-95570523D01*
X134444619Y-95473761D01*
X134444619Y-95280238D01*
X134396238Y-95183476D01*
X134347857Y-95135095D01*
X134251095Y-95086714D01*
X134009190Y-95086714D01*
X133912428Y-95135095D01*
X133864047Y-95183476D01*
X133815666Y-95280238D01*
X133815666Y-95473761D01*
X133864047Y-95570523D01*
X133912428Y-95618904D01*
X134009190Y-95667285D01*
%LPC*%
D16*
X90805000Y-71120000D03*
X93345000Y-71120000D03*
D17*
X88265000Y-71120000D03*
D16*
X95885000Y-71120000D03*
X98425000Y-71120000D03*
X100965000Y-71120000D03*
X103505000Y-71120000D03*
X106045000Y-71120000D03*
X108585000Y-71120000D03*
X111125000Y-71120000D03*
X113665000Y-71120000D03*
X116205000Y-71120000D03*
X118745000Y-71120000D03*
X121285000Y-71120000D03*
X123825000Y-71120000D03*
X126365000Y-71120000D03*
X126365000Y-106680000D03*
X123825000Y-106680000D03*
X121285000Y-106680000D03*
X118745000Y-106680000D03*
X116205000Y-106680000D03*
X113665000Y-106680000D03*
X111125000Y-106680000D03*
X108585000Y-106680000D03*
X106045000Y-106680000D03*
X103505000Y-106680000D03*
X100965000Y-106680000D03*
X98425000Y-106680000D03*
X95885000Y-106680000D03*
X93345000Y-106680000D03*
X90805000Y-106680000D03*
X88265000Y-106680000D03*
D18*
X89535000Y-76200000D03*
X89535000Y-101600000D03*
X130175000Y-106680000D03*
X130175000Y-71120000D03*
D19*
X149860000Y-71120000D03*
X149860000Y-81280000D03*
D20*
X143764000Y-76200000D03*
D21*
X140970000Y-76200000D03*
X140970000Y-78994000D03*
X140970000Y-73406000D03*
X140970000Y-98806000D03*
X140970000Y-104394000D03*
X140970000Y-101600000D03*
D20*
X143764000Y-101600000D03*
D19*
X149860000Y-106680000D03*
X149860000Y-96520000D03*
D22*
X107315000Y-84010500D03*
X109855000Y-79819500D03*
X104775000Y-79819500D03*
X102235000Y-84010500D03*
X99695000Y-79819500D03*
X120015000Y-79819500D03*
X122555000Y-84010500D03*
X125095000Y-79819500D03*
X130175000Y-79819500D03*
X127635000Y-84010500D03*
X107315000Y-97980500D03*
X109855000Y-93789500D03*
X104775000Y-93789500D03*
X102235000Y-97980500D03*
X99695000Y-93789500D03*
X120015000Y-93789500D03*
X122555000Y-97980500D03*
X125095000Y-93789500D03*
X130175000Y-93789500D03*
X127635000Y-97980500D03*
M02*
