M48
;DRILL file {KiCad no-vcs-found-6223534~58~ubuntu16.04.1} date Wed Mar  8 16:15:15 2017
;FORMAT={-:-/ absolute / inch / decimal}
FMAT,2
INCH,TZ
T1C0.025
T2C0.035
T3C0.043
T4C0.090
T5C0.130
%
G90
G05
M72
T1
X4.1303Y-3.4196
X4.3374Y-3.2379
X4.3595Y-3.776
X4.9114Y-3.2326
X4.9832Y-3.6929
X5.0903Y-3.059
X5.1355Y-3.7795
X5.2607Y-3.1715
X5.2797Y-3.2831
T2
X5.55Y-2.9
X5.55Y-3.
X5.55Y-3.1
X5.55Y-3.9
X5.55Y-4.
X5.55Y-4.1
X5.65Y-3.
X5.65Y-4.
T3
X3.475Y-2.8
X3.475Y-4.2
X3.575Y-2.8
X3.575Y-4.2
X3.675Y-2.8
X3.675Y-4.2
X3.775Y-2.8
X3.775Y-4.2
X3.875Y-2.8
X3.875Y-4.2
X3.975Y-2.8
X3.975Y-4.2
X4.075Y-2.8
X4.075Y-4.2
X4.175Y-2.8
X4.175Y-4.2
X4.275Y-2.8
X4.275Y-4.2
X4.375Y-2.8
X4.375Y-4.2
X4.475Y-2.8
X4.475Y-4.2
X4.575Y-2.8
X4.575Y-4.2
X4.675Y-2.8
X4.675Y-4.2
X4.775Y-2.8
X4.775Y-4.2
X4.875Y-2.8
X4.875Y-4.2
X4.975Y-2.8
X4.975Y-4.2
T4
X5.9Y-2.8
X5.9Y-3.2
X5.9Y-3.8
X5.9Y-4.2
T5
X3.525Y-3.
X3.525Y-4.
X5.125Y-2.8
X5.125Y-4.2
T0
M30
