G04 #@! TF.GenerationSoftware,KiCad,Pcbnew,no-vcs-found-6223534~58~ubuntu16.04.1*
G04 #@! TF.CreationDate,2017-03-08T16:15:12-05:00*
G04 #@! TF.ProjectId,optical_switch_interface_3x2,6F70746963616C5F7377697463685F69,1.0*
G04 #@! TF.FileFunction,Copper,L1,Top,Signal*
G04 #@! TF.FilePolarity,Positive*
%FSLAX46Y46*%
G04 Gerber Fmt 4.6, Leading zero omitted, Abs format (unit mm)*
G04 Created by KiCad (PCBNEW no-vcs-found-6223534~58~ubuntu16.04.1) date Wed Mar  8 16:15:12 2017*
%MOMM*%
%LPD*%
G01*
G04 APERTURE LIST*
%ADD10C,0.100000*%
%ADD11C,0.228600*%
%ADD12O,1.854200X2.540000*%
%ADD13R,1.854200X2.540000*%
%ADD14C,3.556000*%
%ADD15O,5.080000X3.048000*%
%ADD16O,2.032000X1.524000*%
%ADD17O,1.524000X2.032000*%
%ADD18R,1.270000X3.175000*%
%ADD19C,0.889000*%
%ADD20C,0.812800*%
%ADD21C,0.203200*%
G04 APERTURE END LIST*
D10*
D11*
X155575000Y-68580000D02*
X85725000Y-68580000D01*
X155575000Y-109220000D02*
X155575000Y-68580000D01*
X85725000Y-109220000D02*
X155575000Y-109220000D01*
X85725000Y-68580000D02*
X85725000Y-109220000D01*
D12*
X90805000Y-71120000D03*
X93345000Y-71120000D03*
D13*
X88265000Y-71120000D03*
D12*
X95885000Y-71120000D03*
X98425000Y-71120000D03*
X100965000Y-71120000D03*
X103505000Y-71120000D03*
X106045000Y-71120000D03*
X108585000Y-71120000D03*
X111125000Y-71120000D03*
X113665000Y-71120000D03*
X116205000Y-71120000D03*
X118745000Y-71120000D03*
X121285000Y-71120000D03*
X123825000Y-71120000D03*
X126365000Y-71120000D03*
X126365000Y-106680000D03*
X123825000Y-106680000D03*
X121285000Y-106680000D03*
X118745000Y-106680000D03*
X116205000Y-106680000D03*
X113665000Y-106680000D03*
X111125000Y-106680000D03*
X108585000Y-106680000D03*
X106045000Y-106680000D03*
X103505000Y-106680000D03*
X100965000Y-106680000D03*
X98425000Y-106680000D03*
X95885000Y-106680000D03*
X93345000Y-106680000D03*
X90805000Y-106680000D03*
X88265000Y-106680000D03*
D14*
X89535000Y-76200000D03*
X89535000Y-101600000D03*
X130175000Y-106680000D03*
X130175000Y-71120000D03*
D15*
X149860000Y-71120000D03*
X149860000Y-81280000D03*
D16*
X143764000Y-76200000D03*
D17*
X140970000Y-76200000D03*
X140970000Y-78994000D03*
X140970000Y-73406000D03*
X140970000Y-98806000D03*
X140970000Y-104394000D03*
X140970000Y-101600000D03*
D16*
X143764000Y-101600000D03*
D15*
X149860000Y-106680000D03*
X149860000Y-96520000D03*
D18*
X107315000Y-84010500D03*
X109855000Y-79819500D03*
X104775000Y-79819500D03*
X102235000Y-84010500D03*
X99695000Y-79819500D03*
X120015000Y-79819500D03*
X122555000Y-84010500D03*
X125095000Y-79819500D03*
X130175000Y-79819500D03*
X127635000Y-84010500D03*
X107315000Y-97980500D03*
X109855000Y-93789500D03*
X104775000Y-93789500D03*
X102235000Y-97980500D03*
X99695000Y-93789500D03*
X120015000Y-93789500D03*
X122555000Y-97980500D03*
X125095000Y-93789500D03*
X130175000Y-93789500D03*
X127635000Y-97980500D03*
D19*
X124750400Y-82108100D03*
X126573200Y-93799500D03*
X104908900Y-86858000D03*
X110169300Y-82243600D03*
X129293800Y-77698600D03*
X110732000Y-95910400D03*
X130442500Y-96000100D03*
X134103300Y-83390000D03*
X133622800Y-80555100D03*
D20*
X125095000Y-82108100D02*
X125095000Y-91541300D01*
X124750400Y-82108100D02*
X125095000Y-82108100D01*
X125095000Y-82108100D02*
X125095000Y-79819500D01*
X125095000Y-92665400D02*
X125095000Y-92793100D01*
X125095000Y-93789500D02*
X125095000Y-92793100D01*
X125095000Y-92665400D02*
X125095000Y-91541300D01*
X126101400Y-93799500D02*
X126573200Y-93799500D01*
X125095000Y-92793100D02*
X126101400Y-93799500D01*
X104775000Y-93789500D02*
X104775000Y-91541300D01*
X104775000Y-79819500D02*
X104775000Y-82067700D01*
X104908900Y-91407400D02*
X104908900Y-86858000D01*
X104775000Y-91541300D02*
X104908900Y-91407400D01*
X104908900Y-82201600D02*
X104775000Y-82067700D01*
X104908900Y-86858000D02*
X104908900Y-82201600D01*
X120015000Y-79819500D02*
X120015000Y-93789500D01*
X107315000Y-97980500D02*
X107315000Y-100101400D01*
X127635000Y-84010500D02*
X127635000Y-81889600D01*
X120015000Y-93789500D02*
X120015000Y-95910400D01*
X140970000Y-99060000D02*
X139674600Y-99060000D01*
X127635000Y-99040900D02*
X123715700Y-99040900D01*
X127635000Y-97980500D02*
X127635000Y-99040900D01*
X127635000Y-99040900D02*
X127635000Y-100101400D01*
X123715700Y-96163000D02*
X123715700Y-99040900D01*
X123396800Y-95844100D02*
X123715700Y-96163000D01*
X121342200Y-95844100D02*
X123396800Y-95844100D01*
X121275900Y-95910400D02*
X121342200Y-95844100D01*
X120015000Y-95910400D02*
X121275900Y-95910400D01*
X138633200Y-101803200D02*
X140970000Y-104140000D01*
X138633200Y-100101400D02*
X138633200Y-101803200D01*
X139674600Y-99060000D02*
X138633200Y-100101400D01*
X138633200Y-100101400D02*
X127635000Y-100101400D01*
X99695000Y-79819500D02*
X99695000Y-77698600D01*
X107315000Y-95859600D02*
X107315000Y-84010500D01*
X97383600Y-77698600D02*
X90805000Y-71120000D01*
X99695000Y-77698600D02*
X97383600Y-77698600D01*
X107315000Y-97980500D02*
X107315000Y-95859600D01*
X123450600Y-100101400D02*
X107315000Y-100101400D01*
X123715700Y-99836300D02*
X123450600Y-100101400D01*
X123715700Y-99040900D02*
X123715700Y-99836300D01*
X99695000Y-98415200D02*
X99695000Y-93789500D01*
X101381200Y-100101400D02*
X99695000Y-98415200D01*
X107315000Y-100101400D02*
X101381200Y-100101400D01*
X99695000Y-93789500D02*
X99695000Y-79819500D01*
X128803400Y-81889600D02*
X127635000Y-81889600D01*
X128869800Y-81956000D02*
X128803400Y-81889600D01*
X131055200Y-81956000D02*
X128869800Y-81956000D01*
X131553500Y-81457700D02*
X131055200Y-81956000D01*
X131553500Y-81277000D02*
X131553500Y-81457700D01*
X134090500Y-78740000D02*
X131553500Y-81277000D01*
X140970000Y-78740000D02*
X134090500Y-78740000D01*
X100965000Y-80619600D02*
X100965000Y-71120000D01*
X102235000Y-81889600D02*
X100965000Y-80619600D01*
X102235000Y-84010500D02*
X102235000Y-81889600D01*
X105321100Y-69303900D02*
X103505000Y-71120000D01*
X126953900Y-69303900D02*
X105321100Y-69303900D01*
X127844500Y-70194500D02*
X126953900Y-69303900D01*
X127844500Y-73890500D02*
X127844500Y-70194500D01*
X122555000Y-79180000D02*
X127844500Y-73890500D01*
X122555000Y-84010500D02*
X122555000Y-79180000D01*
X103403400Y-73761600D02*
X106045000Y-71120000D01*
X103403400Y-94691200D02*
X103403400Y-73761600D01*
X102235000Y-95859600D02*
X103403400Y-94691200D01*
X102235000Y-97980500D02*
X102235000Y-95859600D01*
X108585000Y-85779100D02*
X108585000Y-71120000D01*
X120786400Y-97980500D02*
X108585000Y-85779100D01*
X122555000Y-97980500D02*
X120786400Y-97980500D01*
X109866100Y-81940400D02*
X109855000Y-81940400D01*
X110169300Y-82243600D02*
X109866100Y-81940400D01*
X109855000Y-79819500D02*
X109855000Y-81940400D01*
X130175000Y-79819500D02*
X130175000Y-77698600D01*
X130175000Y-77698600D02*
X129293800Y-77698600D01*
X109855000Y-93789500D02*
X109855000Y-95910400D01*
X109855000Y-95910400D02*
X110732000Y-95910400D01*
X130175000Y-93789500D02*
X130175000Y-95910400D01*
X130352800Y-95910400D02*
X130442500Y-96000100D01*
X130175000Y-95910400D02*
X130352800Y-95910400D01*
X134103300Y-81035600D02*
X133622800Y-80555100D01*
X134103300Y-83390000D02*
X134103300Y-81035600D01*
D21*
G36*
X103997207Y-69622005D02*
X103976428Y-69608121D01*
X103505000Y-69514348D01*
X103033572Y-69608121D01*
X102633915Y-69875163D01*
X102366873Y-70274820D01*
X102273100Y-70746248D01*
X102273100Y-71493752D01*
X102366873Y-71965180D01*
X102633915Y-72364837D01*
X103033572Y-72631879D01*
X103445413Y-72713799D01*
X102900506Y-73258706D01*
X102746337Y-73489435D01*
X102746337Y-73489436D01*
X102692200Y-73761600D01*
X102692200Y-81341011D01*
X101676200Y-80325012D01*
X101676200Y-72471669D01*
X101836085Y-72364837D01*
X102103127Y-71965180D01*
X102196900Y-71493752D01*
X102196900Y-70746248D01*
X102103127Y-70274820D01*
X101836085Y-69875163D01*
X101436428Y-69608121D01*
X100965000Y-69514348D01*
X100493572Y-69608121D01*
X100093915Y-69875163D01*
X99826873Y-70274820D01*
X99733100Y-70746248D01*
X99733100Y-71493752D01*
X99826873Y-71965180D01*
X100093915Y-72364837D01*
X100253800Y-72471669D01*
X100253800Y-77622400D01*
X99999800Y-77622400D01*
X99847400Y-77774800D01*
X99847400Y-79667100D01*
X99867400Y-79667100D01*
X99867400Y-79971900D01*
X99847400Y-79971900D01*
X99847400Y-81864200D01*
X99999800Y-82016600D01*
X100451257Y-82016600D01*
X100675311Y-81923794D01*
X100846794Y-81752311D01*
X100918590Y-81578979D01*
X101477730Y-82138119D01*
X101380252Y-82203252D01*
X101312885Y-82304073D01*
X101289229Y-82423000D01*
X101289229Y-85598000D01*
X101312885Y-85716927D01*
X101380252Y-85817748D01*
X101481073Y-85885115D01*
X101600000Y-85908771D01*
X102692200Y-85908771D01*
X102692200Y-94396612D01*
X101732106Y-95356706D01*
X101577937Y-95587435D01*
X101549990Y-95727935D01*
X101523800Y-95859600D01*
X101523800Y-96097386D01*
X101481073Y-96105885D01*
X101380252Y-96173252D01*
X101312885Y-96274073D01*
X101289229Y-96393000D01*
X101289229Y-99568000D01*
X101312885Y-99686927D01*
X101380252Y-99787748D01*
X101481073Y-99855115D01*
X101600000Y-99878771D01*
X102870000Y-99878771D01*
X102988927Y-99855115D01*
X103089748Y-99787748D01*
X103157115Y-99686927D01*
X103180771Y-99568000D01*
X103180771Y-98285300D01*
X106070400Y-98285300D01*
X106070400Y-99689257D01*
X106163206Y-99913311D01*
X106334689Y-100084794D01*
X106558743Y-100177600D01*
X107010200Y-100177600D01*
X107162600Y-100025200D01*
X107162600Y-98132900D01*
X107467400Y-98132900D01*
X107467400Y-100025200D01*
X107619800Y-100177600D01*
X108071257Y-100177600D01*
X108295311Y-100084794D01*
X108466794Y-99913311D01*
X108559600Y-99689257D01*
X108559600Y-98285300D01*
X108407200Y-98132900D01*
X107467400Y-98132900D01*
X107162600Y-98132900D01*
X106222800Y-98132900D01*
X106070400Y-98285300D01*
X103180771Y-98285300D01*
X103180771Y-96393000D01*
X103157115Y-96274073D01*
X103155559Y-96271743D01*
X106070400Y-96271743D01*
X106070400Y-97675700D01*
X106222800Y-97828100D01*
X107162600Y-97828100D01*
X107162600Y-95935800D01*
X107467400Y-95935800D01*
X107467400Y-97828100D01*
X108407200Y-97828100D01*
X108559600Y-97675700D01*
X108559600Y-96271743D01*
X108466794Y-96047689D01*
X108295311Y-95876206D01*
X108071257Y-95783400D01*
X107619800Y-95783400D01*
X107467400Y-95935800D01*
X107162600Y-95935800D01*
X107010200Y-95783400D01*
X106558743Y-95783400D01*
X106334689Y-95876206D01*
X106163206Y-96047689D01*
X106070400Y-96271743D01*
X103155559Y-96271743D01*
X103089748Y-96173252D01*
X102992270Y-96108118D01*
X103777434Y-95322954D01*
X103777434Y-95377000D01*
X103805033Y-95515748D01*
X103883627Y-95633373D01*
X104001252Y-95711967D01*
X104140000Y-95739566D01*
X105410000Y-95739566D01*
X105548748Y-95711967D01*
X105666373Y-95633373D01*
X105744967Y-95515748D01*
X105772566Y-95377000D01*
X105772566Y-92202000D01*
X108909229Y-92202000D01*
X108909229Y-95377000D01*
X108932885Y-95495927D01*
X109000252Y-95596748D01*
X109101073Y-95664115D01*
X109143800Y-95672614D01*
X109143800Y-95910400D01*
X109197937Y-96182564D01*
X109352106Y-96413294D01*
X109582836Y-96567463D01*
X109855000Y-96621600D01*
X110490859Y-96621600D01*
X110582301Y-96659570D01*
X110880391Y-96659830D01*
X111155890Y-96545996D01*
X111366856Y-96335399D01*
X111481170Y-96060099D01*
X111481430Y-95762009D01*
X111367596Y-95486510D01*
X111156999Y-95275544D01*
X110881699Y-95161230D01*
X110800771Y-95161159D01*
X110800771Y-92202000D01*
X110777115Y-92083073D01*
X110709748Y-91982252D01*
X110608927Y-91914885D01*
X110490000Y-91891229D01*
X109220000Y-91891229D01*
X109101073Y-91914885D01*
X109000252Y-91982252D01*
X108932885Y-92083073D01*
X108909229Y-92202000D01*
X105772566Y-92202000D01*
X105744967Y-92063252D01*
X105666373Y-91945627D01*
X105548748Y-91867033D01*
X105537000Y-91864696D01*
X105537000Y-91812591D01*
X105612896Y-91699005D01*
X105634101Y-91592400D01*
X105670900Y-91407400D01*
X105670900Y-87109268D01*
X105708861Y-87017848D01*
X105709139Y-86699548D01*
X105670900Y-86607003D01*
X105670900Y-84315300D01*
X106070400Y-84315300D01*
X106070400Y-85719257D01*
X106163206Y-85943311D01*
X106334689Y-86114794D01*
X106558743Y-86207600D01*
X107010200Y-86207600D01*
X107162600Y-86055200D01*
X107162600Y-84162900D01*
X106222800Y-84162900D01*
X106070400Y-84315300D01*
X105670900Y-84315300D01*
X105670900Y-82301743D01*
X106070400Y-82301743D01*
X106070400Y-83705700D01*
X106222800Y-83858100D01*
X107162600Y-83858100D01*
X107162600Y-81965800D01*
X107010200Y-81813400D01*
X106558743Y-81813400D01*
X106334689Y-81906206D01*
X106163206Y-82077689D01*
X106070400Y-82301743D01*
X105670900Y-82301743D01*
X105670900Y-82201600D01*
X105612896Y-81909995D01*
X105610364Y-81906206D01*
X105537000Y-81796409D01*
X105537000Y-81744304D01*
X105548748Y-81741967D01*
X105666373Y-81663373D01*
X105744967Y-81545748D01*
X105772566Y-81407000D01*
X105772566Y-78232000D01*
X105744967Y-78093252D01*
X105666373Y-77975627D01*
X105548748Y-77897033D01*
X105410000Y-77869434D01*
X104140000Y-77869434D01*
X104114600Y-77874486D01*
X104114600Y-74056188D01*
X105552793Y-72617995D01*
X105573572Y-72631879D01*
X106045000Y-72725652D01*
X106516428Y-72631879D01*
X106916085Y-72364837D01*
X107183127Y-71965180D01*
X107276900Y-71493752D01*
X107276900Y-70746248D01*
X107183127Y-70274820D01*
X107009588Y-70015100D01*
X107620412Y-70015100D01*
X107446873Y-70274820D01*
X107353100Y-70746248D01*
X107353100Y-71493752D01*
X107446873Y-71965180D01*
X107713915Y-72364837D01*
X107873800Y-72471669D01*
X107873800Y-81813400D01*
X107619800Y-81813400D01*
X107467400Y-81965800D01*
X107467400Y-83858100D01*
X107487400Y-83858100D01*
X107487400Y-84162900D01*
X107467400Y-84162900D01*
X107467400Y-86055200D01*
X107619800Y-86207600D01*
X108032397Y-86207600D01*
X108082106Y-86281994D01*
X120283505Y-98483394D01*
X120437674Y-98586406D01*
X120514236Y-98637563D01*
X120786400Y-98691700D01*
X121609229Y-98691700D01*
X121609229Y-99568000D01*
X121632885Y-99686927D01*
X121700252Y-99787748D01*
X121801073Y-99855115D01*
X121920000Y-99878771D01*
X123190000Y-99878771D01*
X123308927Y-99855115D01*
X123409748Y-99787748D01*
X123477115Y-99686927D01*
X123500771Y-99568000D01*
X123500771Y-98285300D01*
X126390400Y-98285300D01*
X126390400Y-99689257D01*
X126483206Y-99913311D01*
X126654689Y-100084794D01*
X126878743Y-100177600D01*
X127330200Y-100177600D01*
X127482600Y-100025200D01*
X127482600Y-98132900D01*
X127787400Y-98132900D01*
X127787400Y-100025200D01*
X127939800Y-100177600D01*
X128391257Y-100177600D01*
X128615311Y-100084794D01*
X128786794Y-99913311D01*
X128879600Y-99689257D01*
X128879600Y-99175096D01*
X139593837Y-99175096D01*
X139742637Y-99692970D01*
X140078292Y-100114480D01*
X140522796Y-100360559D01*
X140215658Y-100565782D01*
X139984405Y-100911877D01*
X139903200Y-101320124D01*
X139903200Y-101879876D01*
X139984405Y-102288123D01*
X140215658Y-102634218D01*
X140522796Y-102839441D01*
X140078292Y-103085520D01*
X139742637Y-103507030D01*
X139593837Y-104024904D01*
X139745175Y-104241600D01*
X140817600Y-104241600D01*
X140817600Y-104221600D01*
X141122400Y-104221600D01*
X141122400Y-104241600D01*
X142194825Y-104241600D01*
X142346163Y-104024904D01*
X142197363Y-103507030D01*
X141861708Y-103085520D01*
X141417204Y-102839441D01*
X141724342Y-102634218D01*
X141955595Y-102288123D01*
X142036800Y-101879876D01*
X142036800Y-101600000D01*
X142417324Y-101600000D01*
X142498529Y-102008247D01*
X142729782Y-102354342D01*
X143075877Y-102585595D01*
X143484124Y-102666800D01*
X144043876Y-102666800D01*
X144452123Y-102585595D01*
X144798218Y-102354342D01*
X145029471Y-102008247D01*
X145110676Y-101600000D01*
X145029471Y-101191753D01*
X144798218Y-100845658D01*
X144452123Y-100614405D01*
X144043876Y-100533200D01*
X143484124Y-100533200D01*
X143075877Y-100614405D01*
X142729782Y-100845658D01*
X142498529Y-101191753D01*
X142417324Y-101600000D01*
X142036800Y-101600000D01*
X142036800Y-101320124D01*
X141955595Y-100911877D01*
X141724342Y-100565782D01*
X141417204Y-100360559D01*
X141861708Y-100114480D01*
X142197363Y-99692970D01*
X142346163Y-99175096D01*
X142194825Y-98958400D01*
X141122400Y-98958400D01*
X141122400Y-98978400D01*
X140817600Y-98978400D01*
X140817600Y-98958400D01*
X139745175Y-98958400D01*
X139593837Y-99175096D01*
X128879600Y-99175096D01*
X128879600Y-98436904D01*
X139593837Y-98436904D01*
X139745175Y-98653600D01*
X140817600Y-98653600D01*
X140817600Y-97342363D01*
X141122400Y-97342363D01*
X141122400Y-98653600D01*
X142194825Y-98653600D01*
X142346163Y-98436904D01*
X142197363Y-97919030D01*
X141861708Y-97497520D01*
X141390299Y-97236546D01*
X141333761Y-97229516D01*
X141122400Y-97342363D01*
X140817600Y-97342363D01*
X140606239Y-97229516D01*
X140549701Y-97236546D01*
X140078292Y-97497520D01*
X139742637Y-97919030D01*
X139593837Y-98436904D01*
X128879600Y-98436904D01*
X128879600Y-98285300D01*
X128727200Y-98132900D01*
X127787400Y-98132900D01*
X127482600Y-98132900D01*
X126542800Y-98132900D01*
X126390400Y-98285300D01*
X123500771Y-98285300D01*
X123500771Y-96393000D01*
X123477115Y-96274073D01*
X123475559Y-96271743D01*
X126390400Y-96271743D01*
X126390400Y-97675700D01*
X126542800Y-97828100D01*
X127482600Y-97828100D01*
X127482600Y-95935800D01*
X127787400Y-95935800D01*
X127787400Y-97828100D01*
X128727200Y-97828100D01*
X128879600Y-97675700D01*
X128879600Y-96271743D01*
X128786794Y-96047689D01*
X128615311Y-95876206D01*
X128391257Y-95783400D01*
X127939800Y-95783400D01*
X127787400Y-95935800D01*
X127482600Y-95935800D01*
X127330200Y-95783400D01*
X126878743Y-95783400D01*
X126654689Y-95876206D01*
X126483206Y-96047689D01*
X126390400Y-96271743D01*
X123475559Y-96271743D01*
X123409748Y-96173252D01*
X123308927Y-96105885D01*
X123190000Y-96082229D01*
X121920000Y-96082229D01*
X121801073Y-96105885D01*
X121700252Y-96173252D01*
X121632885Y-96274073D01*
X121609229Y-96393000D01*
X121609229Y-97269300D01*
X121080989Y-97269300D01*
X119754244Y-95942556D01*
X119862600Y-95834200D01*
X119862600Y-93941900D01*
X120167400Y-93941900D01*
X120167400Y-95834200D01*
X120319800Y-95986600D01*
X120771257Y-95986600D01*
X120995311Y-95893794D01*
X121166794Y-95722311D01*
X121259600Y-95498257D01*
X121259600Y-94094300D01*
X121107200Y-93941900D01*
X120167400Y-93941900D01*
X119862600Y-93941900D01*
X118922800Y-93941900D01*
X118770400Y-94094300D01*
X118770400Y-94958711D01*
X115892432Y-92080743D01*
X118770400Y-92080743D01*
X118770400Y-93484700D01*
X118922800Y-93637100D01*
X119862600Y-93637100D01*
X119862600Y-91744800D01*
X120167400Y-91744800D01*
X120167400Y-93637100D01*
X121107200Y-93637100D01*
X121259600Y-93484700D01*
X121259600Y-92080743D01*
X121166794Y-91856689D01*
X120995311Y-91685206D01*
X120771257Y-91592400D01*
X120319800Y-91592400D01*
X120167400Y-91744800D01*
X119862600Y-91744800D01*
X119710200Y-91592400D01*
X119258743Y-91592400D01*
X119034689Y-91685206D01*
X118863206Y-91856689D01*
X118770400Y-92080743D01*
X115892432Y-92080743D01*
X109296200Y-85484512D01*
X109296200Y-82359625D01*
X109352106Y-82443294D01*
X109385558Y-82465646D01*
X109495894Y-82575982D01*
X109533704Y-82667490D01*
X109744301Y-82878456D01*
X110019601Y-82992770D01*
X110317691Y-82993030D01*
X110593190Y-82879196D01*
X110804156Y-82668599D01*
X110918470Y-82393299D01*
X110918730Y-82095209D01*
X110804896Y-81819710D01*
X110651274Y-81665819D01*
X110709748Y-81626748D01*
X110777115Y-81525927D01*
X110800771Y-81407000D01*
X110800771Y-80124300D01*
X118770400Y-80124300D01*
X118770400Y-81528257D01*
X118863206Y-81752311D01*
X119034689Y-81923794D01*
X119258743Y-82016600D01*
X119710200Y-82016600D01*
X119862600Y-81864200D01*
X119862600Y-79971900D01*
X120167400Y-79971900D01*
X120167400Y-81864200D01*
X120319800Y-82016600D01*
X120771257Y-82016600D01*
X120995311Y-81923794D01*
X121166794Y-81752311D01*
X121259600Y-81528257D01*
X121259600Y-80124300D01*
X121107200Y-79971900D01*
X120167400Y-79971900D01*
X119862600Y-79971900D01*
X118922800Y-79971900D01*
X118770400Y-80124300D01*
X110800771Y-80124300D01*
X110800771Y-78232000D01*
X110777115Y-78113073D01*
X110775559Y-78110743D01*
X118770400Y-78110743D01*
X118770400Y-79514700D01*
X118922800Y-79667100D01*
X119862600Y-79667100D01*
X119862600Y-77774800D01*
X120167400Y-77774800D01*
X120167400Y-79667100D01*
X121107200Y-79667100D01*
X121259600Y-79514700D01*
X121259600Y-78110743D01*
X121166794Y-77886689D01*
X120995311Y-77715206D01*
X120771257Y-77622400D01*
X120319800Y-77622400D01*
X120167400Y-77774800D01*
X119862600Y-77774800D01*
X119710200Y-77622400D01*
X119258743Y-77622400D01*
X119034689Y-77715206D01*
X118863206Y-77886689D01*
X118770400Y-78110743D01*
X110775559Y-78110743D01*
X110709748Y-78012252D01*
X110608927Y-77944885D01*
X110490000Y-77921229D01*
X109296200Y-77921229D01*
X109296200Y-72471669D01*
X109456085Y-72364837D01*
X109723127Y-71965180D01*
X109816900Y-71493752D01*
X109816900Y-70746248D01*
X109723127Y-70274820D01*
X109549588Y-70015100D01*
X110160412Y-70015100D01*
X109986873Y-70274820D01*
X109893100Y-70746248D01*
X109893100Y-71493752D01*
X109986873Y-71965180D01*
X110253915Y-72364837D01*
X110653572Y-72631879D01*
X111125000Y-72725652D01*
X111596428Y-72631879D01*
X111996085Y-72364837D01*
X112263127Y-71965180D01*
X112356900Y-71493752D01*
X112356900Y-70746248D01*
X112263127Y-70274820D01*
X112089588Y-70015100D01*
X112700412Y-70015100D01*
X112526873Y-70274820D01*
X112433100Y-70746248D01*
X112433100Y-71493752D01*
X112526873Y-71965180D01*
X112793915Y-72364837D01*
X113193572Y-72631879D01*
X113665000Y-72725652D01*
X114136428Y-72631879D01*
X114536085Y-72364837D01*
X114803127Y-71965180D01*
X114896900Y-71493752D01*
X114896900Y-70746248D01*
X114803127Y-70274820D01*
X114629588Y-70015100D01*
X115240412Y-70015100D01*
X115066873Y-70274820D01*
X114973100Y-70746248D01*
X114973100Y-71493752D01*
X115066873Y-71965180D01*
X115333915Y-72364837D01*
X115733572Y-72631879D01*
X116205000Y-72725652D01*
X116676428Y-72631879D01*
X117076085Y-72364837D01*
X117343127Y-71965180D01*
X117436900Y-71493752D01*
X117436900Y-70746248D01*
X117343127Y-70274820D01*
X117169588Y-70015100D01*
X117780412Y-70015100D01*
X117606873Y-70274820D01*
X117513100Y-70746248D01*
X117513100Y-71493752D01*
X117606873Y-71965180D01*
X117873915Y-72364837D01*
X118273572Y-72631879D01*
X118745000Y-72725652D01*
X119216428Y-72631879D01*
X119616085Y-72364837D01*
X119883127Y-71965180D01*
X119976900Y-71493752D01*
X119976900Y-70746248D01*
X119883127Y-70274820D01*
X119709588Y-70015100D01*
X120320412Y-70015100D01*
X120146873Y-70274820D01*
X120053100Y-70746248D01*
X120053100Y-71493752D01*
X120146873Y-71965180D01*
X120413915Y-72364837D01*
X120813572Y-72631879D01*
X121285000Y-72725652D01*
X121756428Y-72631879D01*
X122156085Y-72364837D01*
X122423127Y-71965180D01*
X122516900Y-71493752D01*
X122516900Y-70746248D01*
X122423127Y-70274820D01*
X122249588Y-70015100D01*
X122860412Y-70015100D01*
X122686873Y-70274820D01*
X122593100Y-70746248D01*
X122593100Y-71493752D01*
X122686873Y-71965180D01*
X122953915Y-72364837D01*
X123353572Y-72631879D01*
X123825000Y-72725652D01*
X124296428Y-72631879D01*
X124696085Y-72364837D01*
X124963127Y-71965180D01*
X125056900Y-71493752D01*
X125056900Y-70746248D01*
X124963127Y-70274820D01*
X124789588Y-70015100D01*
X125400412Y-70015100D01*
X125226873Y-70274820D01*
X125133100Y-70746248D01*
X125133100Y-71493752D01*
X125226873Y-71965180D01*
X125493915Y-72364837D01*
X125893572Y-72631879D01*
X126365000Y-72725652D01*
X126836428Y-72631879D01*
X127133300Y-72433516D01*
X127133300Y-73595911D01*
X122052106Y-78677106D01*
X121897937Y-78907835D01*
X121843800Y-79180000D01*
X121843800Y-82127386D01*
X121801073Y-82135885D01*
X121700252Y-82203252D01*
X121632885Y-82304073D01*
X121609229Y-82423000D01*
X121609229Y-85598000D01*
X121632885Y-85716927D01*
X121700252Y-85817748D01*
X121801073Y-85885115D01*
X121920000Y-85908771D01*
X123190000Y-85908771D01*
X123308927Y-85885115D01*
X123409748Y-85817748D01*
X123477115Y-85716927D01*
X123500771Y-85598000D01*
X123500771Y-82423000D01*
X123477115Y-82304073D01*
X123409748Y-82203252D01*
X123308927Y-82135885D01*
X123266200Y-82127386D01*
X123266200Y-79474588D01*
X124097434Y-78643354D01*
X124097434Y-81407000D01*
X124125033Y-81545748D01*
X124147520Y-81579403D01*
X124072504Y-81654288D01*
X123950439Y-81948252D01*
X123950161Y-82266552D01*
X124071713Y-82560728D01*
X124296588Y-82785996D01*
X124333000Y-82801116D01*
X124333000Y-91864696D01*
X124321252Y-91867033D01*
X124203627Y-91945627D01*
X124125033Y-92063252D01*
X124097434Y-92202000D01*
X124097434Y-95377000D01*
X124125033Y-95515748D01*
X124203627Y-95633373D01*
X124321252Y-95711967D01*
X124460000Y-95739566D01*
X125730000Y-95739566D01*
X125868748Y-95711967D01*
X125986373Y-95633373D01*
X126064967Y-95515748D01*
X126092566Y-95377000D01*
X126092566Y-94559743D01*
X126101400Y-94561500D01*
X126321932Y-94561500D01*
X126413352Y-94599461D01*
X126731652Y-94599739D01*
X127025828Y-94478187D01*
X127251096Y-94253312D01*
X127373161Y-93959348D01*
X127373439Y-93641048D01*
X127251887Y-93346872D01*
X127027012Y-93121604D01*
X126733048Y-92999539D01*
X126414748Y-92999261D01*
X126389305Y-93009774D01*
X126092566Y-92713036D01*
X126092566Y-92202000D01*
X129229229Y-92202000D01*
X129229229Y-95377000D01*
X129252885Y-95495927D01*
X129320252Y-95596748D01*
X129421073Y-95664115D01*
X129463800Y-95672614D01*
X129463800Y-95910400D01*
X129517937Y-96182564D01*
X129672106Y-96413294D01*
X129902836Y-96567463D01*
X129961843Y-96579200D01*
X130017501Y-96634956D01*
X130292801Y-96749270D01*
X130590891Y-96749530D01*
X130866390Y-96635696D01*
X130982288Y-96520000D01*
X146959467Y-96520000D01*
X147098676Y-97219851D01*
X147495110Y-97813157D01*
X148088416Y-98209591D01*
X148788267Y-98348800D01*
X150931733Y-98348800D01*
X151631584Y-98209591D01*
X152224890Y-97813157D01*
X152621324Y-97219851D01*
X152760533Y-96520000D01*
X152621324Y-95820149D01*
X152224890Y-95226843D01*
X151631584Y-94830409D01*
X150931733Y-94691200D01*
X148788267Y-94691200D01*
X148088416Y-94830409D01*
X147495110Y-95226843D01*
X147098676Y-95820149D01*
X146959467Y-96520000D01*
X130982288Y-96520000D01*
X131077356Y-96425099D01*
X131191670Y-96149799D01*
X131191930Y-95851709D01*
X131078096Y-95576210D01*
X131057355Y-95555432D01*
X131097115Y-95495927D01*
X131120771Y-95377000D01*
X131120771Y-92202000D01*
X131097115Y-92083073D01*
X131029748Y-91982252D01*
X130928927Y-91914885D01*
X130810000Y-91891229D01*
X129540000Y-91891229D01*
X129421073Y-91914885D01*
X129320252Y-91982252D01*
X129252885Y-92083073D01*
X129229229Y-92202000D01*
X126092566Y-92202000D01*
X126064967Y-92063252D01*
X125986373Y-91945627D01*
X125868748Y-91867033D01*
X125857000Y-91864696D01*
X125857000Y-84315300D01*
X126390400Y-84315300D01*
X126390400Y-85719257D01*
X126483206Y-85943311D01*
X126654689Y-86114794D01*
X126878743Y-86207600D01*
X127330200Y-86207600D01*
X127482600Y-86055200D01*
X127482600Y-84162900D01*
X127787400Y-84162900D01*
X127787400Y-86055200D01*
X127939800Y-86207600D01*
X128391257Y-86207600D01*
X128615311Y-86114794D01*
X128786794Y-85943311D01*
X128879600Y-85719257D01*
X128879600Y-84315300D01*
X128727200Y-84162900D01*
X127787400Y-84162900D01*
X127482600Y-84162900D01*
X126542800Y-84162900D01*
X126390400Y-84315300D01*
X125857000Y-84315300D01*
X125857000Y-82301743D01*
X126390400Y-82301743D01*
X126390400Y-83705700D01*
X126542800Y-83858100D01*
X127482600Y-83858100D01*
X127482600Y-81965800D01*
X127787400Y-81965800D01*
X127787400Y-83858100D01*
X128727200Y-83858100D01*
X128879600Y-83705700D01*
X128879600Y-82301743D01*
X128786794Y-82077689D01*
X128615311Y-81906206D01*
X128391257Y-81813400D01*
X127939800Y-81813400D01*
X127787400Y-81965800D01*
X127482600Y-81965800D01*
X127330200Y-81813400D01*
X126878743Y-81813400D01*
X126654689Y-81906206D01*
X126483206Y-82077689D01*
X126390400Y-82301743D01*
X125857000Y-82301743D01*
X125857000Y-81744304D01*
X125868748Y-81741967D01*
X125986373Y-81663373D01*
X126064967Y-81545748D01*
X126092566Y-81407000D01*
X126092566Y-78232000D01*
X126064967Y-78093252D01*
X125986373Y-77975627D01*
X125868748Y-77897033D01*
X125730000Y-77869434D01*
X124871354Y-77869434D01*
X124893797Y-77846991D01*
X128544370Y-77846991D01*
X128658204Y-78122490D01*
X128868801Y-78333456D01*
X129144101Y-78447770D01*
X129229229Y-78447844D01*
X129229229Y-81407000D01*
X129252885Y-81525927D01*
X129320252Y-81626748D01*
X129421073Y-81694115D01*
X129540000Y-81717771D01*
X130810000Y-81717771D01*
X130928927Y-81694115D01*
X131029748Y-81626748D01*
X131097115Y-81525927D01*
X131120771Y-81407000D01*
X131120771Y-80703491D01*
X132873370Y-80703491D01*
X132987204Y-80978990D01*
X133197801Y-81189956D01*
X133290260Y-81228348D01*
X133392100Y-81330189D01*
X133392100Y-83148859D01*
X133354130Y-83240301D01*
X133353870Y-83538391D01*
X133467704Y-83813890D01*
X133678301Y-84024856D01*
X133953601Y-84139170D01*
X134251691Y-84139430D01*
X134527190Y-84025596D01*
X134738156Y-83814999D01*
X134852470Y-83539699D01*
X134852730Y-83241609D01*
X134814500Y-83149085D01*
X134814500Y-81280000D01*
X146959467Y-81280000D01*
X147098676Y-81979851D01*
X147495110Y-82573157D01*
X148088416Y-82969591D01*
X148788267Y-83108800D01*
X150931733Y-83108800D01*
X151631584Y-82969591D01*
X152224890Y-82573157D01*
X152621324Y-81979851D01*
X152760533Y-81280000D01*
X152621324Y-80580149D01*
X152224890Y-79986843D01*
X151631584Y-79590409D01*
X150931733Y-79451200D01*
X148788267Y-79451200D01*
X148088416Y-79590409D01*
X147495110Y-79986843D01*
X147098676Y-80580149D01*
X146959467Y-81280000D01*
X134814500Y-81280000D01*
X134814500Y-81035600D01*
X134760363Y-80763436D01*
X134664255Y-80619600D01*
X134606195Y-80532706D01*
X134296206Y-80222718D01*
X134258396Y-80131210D01*
X134047799Y-79920244D01*
X133772499Y-79805930D01*
X133474409Y-79805670D01*
X133198910Y-79919504D01*
X132987944Y-80130101D01*
X132873630Y-80405401D01*
X132873370Y-80703491D01*
X131120771Y-80703491D01*
X131120771Y-79363096D01*
X139593837Y-79363096D01*
X139742637Y-79880970D01*
X140078292Y-80302480D01*
X140549701Y-80563454D01*
X140606239Y-80570484D01*
X140817600Y-80457637D01*
X140817600Y-79146400D01*
X141122400Y-79146400D01*
X141122400Y-80457637D01*
X141333761Y-80570484D01*
X141390299Y-80563454D01*
X141861708Y-80302480D01*
X142197363Y-79880970D01*
X142346163Y-79363096D01*
X142194825Y-79146400D01*
X141122400Y-79146400D01*
X140817600Y-79146400D01*
X139745175Y-79146400D01*
X139593837Y-79363096D01*
X131120771Y-79363096D01*
X131120771Y-78232000D01*
X131097115Y-78113073D01*
X131029748Y-78012252D01*
X130928927Y-77944885D01*
X130886200Y-77936386D01*
X130886200Y-77698600D01*
X130832063Y-77426436D01*
X130677894Y-77195706D01*
X130447164Y-77041537D01*
X130175000Y-76987400D01*
X129534941Y-76987400D01*
X129443499Y-76949430D01*
X129145409Y-76949170D01*
X128869910Y-77063004D01*
X128658944Y-77273601D01*
X128544630Y-77548901D01*
X128544370Y-77846991D01*
X124893797Y-77846991D01*
X128347395Y-74393394D01*
X128501563Y-74162664D01*
X128555700Y-73890500D01*
X128555700Y-73775096D01*
X139593837Y-73775096D01*
X139742637Y-74292970D01*
X140078292Y-74714480D01*
X140522796Y-74960559D01*
X140215658Y-75165782D01*
X139984405Y-75511877D01*
X139903200Y-75920124D01*
X139903200Y-76479876D01*
X139984405Y-76888123D01*
X140215658Y-77234218D01*
X140522796Y-77439441D01*
X140078292Y-77685520D01*
X139742637Y-78107030D01*
X139593837Y-78624904D01*
X139745175Y-78841600D01*
X140817600Y-78841600D01*
X140817600Y-78821600D01*
X141122400Y-78821600D01*
X141122400Y-78841600D01*
X142194825Y-78841600D01*
X142346163Y-78624904D01*
X142197363Y-78107030D01*
X141861708Y-77685520D01*
X141417204Y-77439441D01*
X141724342Y-77234218D01*
X141955595Y-76888123D01*
X142036800Y-76479876D01*
X142036800Y-76200000D01*
X142417324Y-76200000D01*
X142498529Y-76608247D01*
X142729782Y-76954342D01*
X143075877Y-77185595D01*
X143484124Y-77266800D01*
X144043876Y-77266800D01*
X144452123Y-77185595D01*
X144798218Y-76954342D01*
X145029471Y-76608247D01*
X145110676Y-76200000D01*
X145029471Y-75791753D01*
X144798218Y-75445658D01*
X144452123Y-75214405D01*
X144043876Y-75133200D01*
X143484124Y-75133200D01*
X143075877Y-75214405D01*
X142729782Y-75445658D01*
X142498529Y-75791753D01*
X142417324Y-76200000D01*
X142036800Y-76200000D01*
X142036800Y-75920124D01*
X141955595Y-75511877D01*
X141724342Y-75165782D01*
X141417204Y-74960559D01*
X141861708Y-74714480D01*
X142197363Y-74292970D01*
X142346163Y-73775096D01*
X142194825Y-73558400D01*
X141122400Y-73558400D01*
X141122400Y-73578400D01*
X140817600Y-73578400D01*
X140817600Y-73558400D01*
X139745175Y-73558400D01*
X139593837Y-73775096D01*
X128555700Y-73775096D01*
X128555700Y-72445969D01*
X128993648Y-72884682D01*
X129758888Y-73202437D01*
X130587477Y-73203160D01*
X130989847Y-73036904D01*
X139593837Y-73036904D01*
X139745175Y-73253600D01*
X140817600Y-73253600D01*
X140817600Y-71942363D01*
X141122400Y-71942363D01*
X141122400Y-73253600D01*
X142194825Y-73253600D01*
X142346163Y-73036904D01*
X142197363Y-72519030D01*
X141861708Y-72097520D01*
X141390299Y-71836546D01*
X141333761Y-71829516D01*
X141122400Y-71942363D01*
X140817600Y-71942363D01*
X140606239Y-71829516D01*
X140549701Y-71836546D01*
X140078292Y-72097520D01*
X139742637Y-72519030D01*
X139593837Y-73036904D01*
X130989847Y-73036904D01*
X131353270Y-72886741D01*
X131939682Y-72301352D01*
X132257437Y-71536112D01*
X132257800Y-71120000D01*
X146959467Y-71120000D01*
X147098676Y-71819851D01*
X147495110Y-72413157D01*
X148088416Y-72809591D01*
X148788267Y-72948800D01*
X150931733Y-72948800D01*
X151631584Y-72809591D01*
X152224890Y-72413157D01*
X152621324Y-71819851D01*
X152760533Y-71120000D01*
X152621324Y-70420149D01*
X152224890Y-69826843D01*
X151631584Y-69430409D01*
X150931733Y-69291200D01*
X148788267Y-69291200D01*
X148088416Y-69430409D01*
X147495110Y-69826843D01*
X147098676Y-70420149D01*
X146959467Y-71120000D01*
X132257800Y-71120000D01*
X132258160Y-70707523D01*
X131941741Y-69941730D01*
X131356352Y-69355318D01*
X130591112Y-69037563D01*
X129762523Y-69036840D01*
X128996730Y-69353259D01*
X128471592Y-69877481D01*
X128424361Y-69806795D01*
X128347395Y-69691606D01*
X127654888Y-68999100D01*
X155155900Y-68999100D01*
X155155900Y-108800900D01*
X86144100Y-108800900D01*
X86144100Y-106306248D01*
X87033100Y-106306248D01*
X87033100Y-107053752D01*
X87126873Y-107525180D01*
X87393915Y-107924837D01*
X87793572Y-108191879D01*
X88265000Y-108285652D01*
X88736428Y-108191879D01*
X89136085Y-107924837D01*
X89403127Y-107525180D01*
X89496900Y-107053752D01*
X89496900Y-106306248D01*
X89496703Y-106305253D01*
X89522300Y-106305253D01*
X89522300Y-107054747D01*
X89619940Y-107545615D01*
X89897994Y-107961753D01*
X90314132Y-108239807D01*
X90805000Y-108337447D01*
X91295868Y-108239807D01*
X91712006Y-107961753D01*
X91990060Y-107545615D01*
X92087700Y-107054747D01*
X92087700Y-106306248D01*
X92113100Y-106306248D01*
X92113100Y-107053752D01*
X92206873Y-107525180D01*
X92473915Y-107924837D01*
X92873572Y-108191879D01*
X93345000Y-108285652D01*
X93816428Y-108191879D01*
X94216085Y-107924837D01*
X94483127Y-107525180D01*
X94576900Y-107053752D01*
X94576900Y-106306248D01*
X94653100Y-106306248D01*
X94653100Y-107053752D01*
X94746873Y-107525180D01*
X95013915Y-107924837D01*
X95413572Y-108191879D01*
X95885000Y-108285652D01*
X96356428Y-108191879D01*
X96756085Y-107924837D01*
X97023127Y-107525180D01*
X97116900Y-107053752D01*
X97116900Y-106306248D01*
X97193100Y-106306248D01*
X97193100Y-107053752D01*
X97286873Y-107525180D01*
X97553915Y-107924837D01*
X97953572Y-108191879D01*
X98425000Y-108285652D01*
X98896428Y-108191879D01*
X99296085Y-107924837D01*
X99563127Y-107525180D01*
X99656900Y-107053752D01*
X99656900Y-106306248D01*
X99733100Y-106306248D01*
X99733100Y-107053752D01*
X99826873Y-107525180D01*
X100093915Y-107924837D01*
X100493572Y-108191879D01*
X100965000Y-108285652D01*
X101436428Y-108191879D01*
X101836085Y-107924837D01*
X102103127Y-107525180D01*
X102196900Y-107053752D01*
X102196900Y-106306248D01*
X102273100Y-106306248D01*
X102273100Y-107053752D01*
X102366873Y-107525180D01*
X102633915Y-107924837D01*
X103033572Y-108191879D01*
X103505000Y-108285652D01*
X103976428Y-108191879D01*
X104376085Y-107924837D01*
X104643127Y-107525180D01*
X104736900Y-107053752D01*
X104736900Y-106306248D01*
X104813100Y-106306248D01*
X104813100Y-107053752D01*
X104906873Y-107525180D01*
X105173915Y-107924837D01*
X105573572Y-108191879D01*
X106045000Y-108285652D01*
X106516428Y-108191879D01*
X106916085Y-107924837D01*
X107183127Y-107525180D01*
X107276900Y-107053752D01*
X107276900Y-106306248D01*
X107353100Y-106306248D01*
X107353100Y-107053752D01*
X107446873Y-107525180D01*
X107713915Y-107924837D01*
X108113572Y-108191879D01*
X108585000Y-108285652D01*
X109056428Y-108191879D01*
X109456085Y-107924837D01*
X109723127Y-107525180D01*
X109816900Y-107053752D01*
X109816900Y-106306248D01*
X109893100Y-106306248D01*
X109893100Y-107053752D01*
X109986873Y-107525180D01*
X110253915Y-107924837D01*
X110653572Y-108191879D01*
X111125000Y-108285652D01*
X111596428Y-108191879D01*
X111996085Y-107924837D01*
X112263127Y-107525180D01*
X112356900Y-107053752D01*
X112356900Y-106306248D01*
X112433100Y-106306248D01*
X112433100Y-107053752D01*
X112526873Y-107525180D01*
X112793915Y-107924837D01*
X113193572Y-108191879D01*
X113665000Y-108285652D01*
X114136428Y-108191879D01*
X114536085Y-107924837D01*
X114803127Y-107525180D01*
X114896900Y-107053752D01*
X114896900Y-106306248D01*
X114973100Y-106306248D01*
X114973100Y-107053752D01*
X115066873Y-107525180D01*
X115333915Y-107924837D01*
X115733572Y-108191879D01*
X116205000Y-108285652D01*
X116676428Y-108191879D01*
X117076085Y-107924837D01*
X117343127Y-107525180D01*
X117436900Y-107053752D01*
X117436900Y-106306248D01*
X117513100Y-106306248D01*
X117513100Y-107053752D01*
X117606873Y-107525180D01*
X117873915Y-107924837D01*
X118273572Y-108191879D01*
X118745000Y-108285652D01*
X119216428Y-108191879D01*
X119616085Y-107924837D01*
X119883127Y-107525180D01*
X119976900Y-107053752D01*
X119976900Y-106306248D01*
X120053100Y-106306248D01*
X120053100Y-107053752D01*
X120146873Y-107525180D01*
X120413915Y-107924837D01*
X120813572Y-108191879D01*
X121285000Y-108285652D01*
X121756428Y-108191879D01*
X122156085Y-107924837D01*
X122423127Y-107525180D01*
X122516900Y-107053752D01*
X122516900Y-106306248D01*
X122593100Y-106306248D01*
X122593100Y-107053752D01*
X122686873Y-107525180D01*
X122953915Y-107924837D01*
X123353572Y-108191879D01*
X123825000Y-108285652D01*
X124296428Y-108191879D01*
X124696085Y-107924837D01*
X124963127Y-107525180D01*
X125056900Y-107053752D01*
X125056900Y-106306248D01*
X125133100Y-106306248D01*
X125133100Y-107053752D01*
X125226873Y-107525180D01*
X125493915Y-107924837D01*
X125893572Y-108191879D01*
X126365000Y-108285652D01*
X126836428Y-108191879D01*
X127236085Y-107924837D01*
X127503127Y-107525180D01*
X127589197Y-107092477D01*
X128091840Y-107092477D01*
X128408259Y-107858270D01*
X128993648Y-108444682D01*
X129758888Y-108762437D01*
X130587477Y-108763160D01*
X131353270Y-108446741D01*
X131939682Y-107861352D01*
X132257437Y-107096112D01*
X132257800Y-106680000D01*
X146959467Y-106680000D01*
X147098676Y-107379851D01*
X147495110Y-107973157D01*
X148088416Y-108369591D01*
X148788267Y-108508800D01*
X150931733Y-108508800D01*
X151631584Y-108369591D01*
X152224890Y-107973157D01*
X152621324Y-107379851D01*
X152760533Y-106680000D01*
X152621324Y-105980149D01*
X152224890Y-105386843D01*
X151631584Y-104990409D01*
X150931733Y-104851200D01*
X148788267Y-104851200D01*
X148088416Y-104990409D01*
X147495110Y-105386843D01*
X147098676Y-105980149D01*
X146959467Y-106680000D01*
X132257800Y-106680000D01*
X132258160Y-106267523D01*
X131941741Y-105501730D01*
X131356352Y-104915318D01*
X130989761Y-104763096D01*
X139593837Y-104763096D01*
X139742637Y-105280970D01*
X140078292Y-105702480D01*
X140549701Y-105963454D01*
X140606239Y-105970484D01*
X140817600Y-105857637D01*
X140817600Y-104546400D01*
X141122400Y-104546400D01*
X141122400Y-105857637D01*
X141333761Y-105970484D01*
X141390299Y-105963454D01*
X141861708Y-105702480D01*
X142197363Y-105280970D01*
X142346163Y-104763096D01*
X142194825Y-104546400D01*
X141122400Y-104546400D01*
X140817600Y-104546400D01*
X139745175Y-104546400D01*
X139593837Y-104763096D01*
X130989761Y-104763096D01*
X130591112Y-104597563D01*
X129762523Y-104596840D01*
X128996730Y-104913259D01*
X128410318Y-105498648D01*
X128092563Y-106263888D01*
X128091840Y-107092477D01*
X127589197Y-107092477D01*
X127596900Y-107053752D01*
X127596900Y-106306248D01*
X127503127Y-105834820D01*
X127236085Y-105435163D01*
X126836428Y-105168121D01*
X126365000Y-105074348D01*
X125893572Y-105168121D01*
X125493915Y-105435163D01*
X125226873Y-105834820D01*
X125133100Y-106306248D01*
X125056900Y-106306248D01*
X124963127Y-105834820D01*
X124696085Y-105435163D01*
X124296428Y-105168121D01*
X123825000Y-105074348D01*
X123353572Y-105168121D01*
X122953915Y-105435163D01*
X122686873Y-105834820D01*
X122593100Y-106306248D01*
X122516900Y-106306248D01*
X122423127Y-105834820D01*
X122156085Y-105435163D01*
X121756428Y-105168121D01*
X121285000Y-105074348D01*
X120813572Y-105168121D01*
X120413915Y-105435163D01*
X120146873Y-105834820D01*
X120053100Y-106306248D01*
X119976900Y-106306248D01*
X119883127Y-105834820D01*
X119616085Y-105435163D01*
X119216428Y-105168121D01*
X118745000Y-105074348D01*
X118273572Y-105168121D01*
X117873915Y-105435163D01*
X117606873Y-105834820D01*
X117513100Y-106306248D01*
X117436900Y-106306248D01*
X117343127Y-105834820D01*
X117076085Y-105435163D01*
X116676428Y-105168121D01*
X116205000Y-105074348D01*
X115733572Y-105168121D01*
X115333915Y-105435163D01*
X115066873Y-105834820D01*
X114973100Y-106306248D01*
X114896900Y-106306248D01*
X114803127Y-105834820D01*
X114536085Y-105435163D01*
X114136428Y-105168121D01*
X113665000Y-105074348D01*
X113193572Y-105168121D01*
X112793915Y-105435163D01*
X112526873Y-105834820D01*
X112433100Y-106306248D01*
X112356900Y-106306248D01*
X112263127Y-105834820D01*
X111996085Y-105435163D01*
X111596428Y-105168121D01*
X111125000Y-105074348D01*
X110653572Y-105168121D01*
X110253915Y-105435163D01*
X109986873Y-105834820D01*
X109893100Y-106306248D01*
X109816900Y-106306248D01*
X109723127Y-105834820D01*
X109456085Y-105435163D01*
X109056428Y-105168121D01*
X108585000Y-105074348D01*
X108113572Y-105168121D01*
X107713915Y-105435163D01*
X107446873Y-105834820D01*
X107353100Y-106306248D01*
X107276900Y-106306248D01*
X107183127Y-105834820D01*
X106916085Y-105435163D01*
X106516428Y-105168121D01*
X106045000Y-105074348D01*
X105573572Y-105168121D01*
X105173915Y-105435163D01*
X104906873Y-105834820D01*
X104813100Y-106306248D01*
X104736900Y-106306248D01*
X104643127Y-105834820D01*
X104376085Y-105435163D01*
X103976428Y-105168121D01*
X103505000Y-105074348D01*
X103033572Y-105168121D01*
X102633915Y-105435163D01*
X102366873Y-105834820D01*
X102273100Y-106306248D01*
X102196900Y-106306248D01*
X102103127Y-105834820D01*
X101836085Y-105435163D01*
X101436428Y-105168121D01*
X100965000Y-105074348D01*
X100493572Y-105168121D01*
X100093915Y-105435163D01*
X99826873Y-105834820D01*
X99733100Y-106306248D01*
X99656900Y-106306248D01*
X99563127Y-105834820D01*
X99296085Y-105435163D01*
X98896428Y-105168121D01*
X98425000Y-105074348D01*
X97953572Y-105168121D01*
X97553915Y-105435163D01*
X97286873Y-105834820D01*
X97193100Y-106306248D01*
X97116900Y-106306248D01*
X97023127Y-105834820D01*
X96756085Y-105435163D01*
X96356428Y-105168121D01*
X95885000Y-105074348D01*
X95413572Y-105168121D01*
X95013915Y-105435163D01*
X94746873Y-105834820D01*
X94653100Y-106306248D01*
X94576900Y-106306248D01*
X94483127Y-105834820D01*
X94216085Y-105435163D01*
X93816428Y-105168121D01*
X93345000Y-105074348D01*
X92873572Y-105168121D01*
X92473915Y-105435163D01*
X92206873Y-105834820D01*
X92113100Y-106306248D01*
X92087700Y-106306248D01*
X92087700Y-106305253D01*
X91990060Y-105814385D01*
X91712006Y-105398247D01*
X91295868Y-105120193D01*
X90805000Y-105022553D01*
X90314132Y-105120193D01*
X89897994Y-105398247D01*
X89619940Y-105814385D01*
X89522300Y-106305253D01*
X89496703Y-106305253D01*
X89403127Y-105834820D01*
X89136085Y-105435163D01*
X88736428Y-105168121D01*
X88265000Y-105074348D01*
X87793572Y-105168121D01*
X87393915Y-105435163D01*
X87126873Y-105834820D01*
X87033100Y-106306248D01*
X86144100Y-106306248D01*
X86144100Y-102012477D01*
X87451840Y-102012477D01*
X87768259Y-102778270D01*
X88353648Y-103364682D01*
X89118888Y-103682437D01*
X89947477Y-103683160D01*
X90713270Y-103366741D01*
X91299682Y-102781352D01*
X91617437Y-102016112D01*
X91618160Y-101187523D01*
X91301741Y-100421730D01*
X90716352Y-99835318D01*
X89951112Y-99517563D01*
X89122523Y-99516840D01*
X88356730Y-99833259D01*
X87770318Y-100418648D01*
X87452563Y-101183888D01*
X87451840Y-102012477D01*
X86144100Y-102012477D01*
X86144100Y-94094300D01*
X98450400Y-94094300D01*
X98450400Y-95498257D01*
X98543206Y-95722311D01*
X98714689Y-95893794D01*
X98938743Y-95986600D01*
X99390200Y-95986600D01*
X99542600Y-95834200D01*
X99542600Y-93941900D01*
X99847400Y-93941900D01*
X99847400Y-95834200D01*
X99999800Y-95986600D01*
X100451257Y-95986600D01*
X100675311Y-95893794D01*
X100846794Y-95722311D01*
X100939600Y-95498257D01*
X100939600Y-94094300D01*
X100787200Y-93941900D01*
X99847400Y-93941900D01*
X99542600Y-93941900D01*
X98602800Y-93941900D01*
X98450400Y-94094300D01*
X86144100Y-94094300D01*
X86144100Y-92080743D01*
X98450400Y-92080743D01*
X98450400Y-93484700D01*
X98602800Y-93637100D01*
X99542600Y-93637100D01*
X99542600Y-91744800D01*
X99847400Y-91744800D01*
X99847400Y-93637100D01*
X100787200Y-93637100D01*
X100939600Y-93484700D01*
X100939600Y-92080743D01*
X100846794Y-91856689D01*
X100675311Y-91685206D01*
X100451257Y-91592400D01*
X99999800Y-91592400D01*
X99847400Y-91744800D01*
X99542600Y-91744800D01*
X99390200Y-91592400D01*
X98938743Y-91592400D01*
X98714689Y-91685206D01*
X98543206Y-91856689D01*
X98450400Y-92080743D01*
X86144100Y-92080743D01*
X86144100Y-80124300D01*
X98450400Y-80124300D01*
X98450400Y-81528257D01*
X98543206Y-81752311D01*
X98714689Y-81923794D01*
X98938743Y-82016600D01*
X99390200Y-82016600D01*
X99542600Y-81864200D01*
X99542600Y-79971900D01*
X98602800Y-79971900D01*
X98450400Y-80124300D01*
X86144100Y-80124300D01*
X86144100Y-76612477D01*
X87451840Y-76612477D01*
X87768259Y-77378270D01*
X88353648Y-77964682D01*
X89118888Y-78282437D01*
X89947477Y-78283160D01*
X90364758Y-78110743D01*
X98450400Y-78110743D01*
X98450400Y-79514700D01*
X98602800Y-79667100D01*
X99542600Y-79667100D01*
X99542600Y-77774800D01*
X99390200Y-77622400D01*
X98938743Y-77622400D01*
X98714689Y-77715206D01*
X98543206Y-77886689D01*
X98450400Y-78110743D01*
X90364758Y-78110743D01*
X90713270Y-77966741D01*
X91299682Y-77381352D01*
X91617437Y-76616112D01*
X91618160Y-75787523D01*
X91301741Y-75021730D01*
X90716352Y-74435318D01*
X89951112Y-74117563D01*
X89122523Y-74116840D01*
X88356730Y-74433259D01*
X87770318Y-75018648D01*
X87452563Y-75783888D01*
X87451840Y-76612477D01*
X86144100Y-76612477D01*
X86144100Y-69850000D01*
X87027129Y-69850000D01*
X87027129Y-72390000D01*
X87050785Y-72508927D01*
X87118152Y-72609748D01*
X87218973Y-72677115D01*
X87337900Y-72700771D01*
X89192100Y-72700771D01*
X89311027Y-72677115D01*
X89411848Y-72609748D01*
X89479215Y-72508927D01*
X89502871Y-72390000D01*
X89502871Y-72263898D01*
X89826152Y-72657274D01*
X90357730Y-72940947D01*
X90415269Y-72949357D01*
X90652600Y-72838785D01*
X90652600Y-71272400D01*
X90632600Y-71272400D01*
X90632600Y-70967600D01*
X90652600Y-70967600D01*
X90652600Y-69401215D01*
X90957400Y-69401215D01*
X90957400Y-70967600D01*
X90977400Y-70967600D01*
X90977400Y-71272400D01*
X90957400Y-71272400D01*
X90957400Y-72838785D01*
X91194731Y-72949357D01*
X91252270Y-72940947D01*
X91783848Y-72657274D01*
X92166405Y-72191769D01*
X92226414Y-71994425D01*
X92473915Y-72364837D01*
X92873572Y-72631879D01*
X93345000Y-72725652D01*
X93816428Y-72631879D01*
X94216085Y-72364837D01*
X94483127Y-71965180D01*
X94576900Y-71493752D01*
X94576900Y-70746248D01*
X94653100Y-70746248D01*
X94653100Y-71493752D01*
X94746873Y-71965180D01*
X95013915Y-72364837D01*
X95413572Y-72631879D01*
X95885000Y-72725652D01*
X96356428Y-72631879D01*
X96756085Y-72364837D01*
X97023127Y-71965180D01*
X97116900Y-71493752D01*
X97116900Y-70746248D01*
X97193100Y-70746248D01*
X97193100Y-71493752D01*
X97286873Y-71965180D01*
X97553915Y-72364837D01*
X97953572Y-72631879D01*
X98425000Y-72725652D01*
X98896428Y-72631879D01*
X99296085Y-72364837D01*
X99563127Y-71965180D01*
X99656900Y-71493752D01*
X99656900Y-70746248D01*
X99563127Y-70274820D01*
X99296085Y-69875163D01*
X98896428Y-69608121D01*
X98425000Y-69514348D01*
X97953572Y-69608121D01*
X97553915Y-69875163D01*
X97286873Y-70274820D01*
X97193100Y-70746248D01*
X97116900Y-70746248D01*
X97023127Y-70274820D01*
X96756085Y-69875163D01*
X96356428Y-69608121D01*
X95885000Y-69514348D01*
X95413572Y-69608121D01*
X95013915Y-69875163D01*
X94746873Y-70274820D01*
X94653100Y-70746248D01*
X94576900Y-70746248D01*
X94483127Y-70274820D01*
X94216085Y-69875163D01*
X93816428Y-69608121D01*
X93345000Y-69514348D01*
X92873572Y-69608121D01*
X92473915Y-69875163D01*
X92226414Y-70245575D01*
X92166405Y-70048231D01*
X91783848Y-69582726D01*
X91252270Y-69299053D01*
X91194731Y-69290643D01*
X90957400Y-69401215D01*
X90652600Y-69401215D01*
X90415269Y-69290643D01*
X90357730Y-69299053D01*
X89826152Y-69582726D01*
X89502871Y-69976102D01*
X89502871Y-69850000D01*
X89479215Y-69731073D01*
X89411848Y-69630252D01*
X89311027Y-69562885D01*
X89192100Y-69539229D01*
X87337900Y-69539229D01*
X87218973Y-69562885D01*
X87118152Y-69630252D01*
X87050785Y-69731073D01*
X87027129Y-69850000D01*
X86144100Y-69850000D01*
X86144100Y-68999100D01*
X104620111Y-68999100D01*
X103997207Y-69622005D01*
X103997207Y-69622005D01*
G37*
X103997207Y-69622005D02*
X103976428Y-69608121D01*
X103505000Y-69514348D01*
X103033572Y-69608121D01*
X102633915Y-69875163D01*
X102366873Y-70274820D01*
X102273100Y-70746248D01*
X102273100Y-71493752D01*
X102366873Y-71965180D01*
X102633915Y-72364837D01*
X103033572Y-72631879D01*
X103445413Y-72713799D01*
X102900506Y-73258706D01*
X102746337Y-73489435D01*
X102746337Y-73489436D01*
X102692200Y-73761600D01*
X102692200Y-81341011D01*
X101676200Y-80325012D01*
X101676200Y-72471669D01*
X101836085Y-72364837D01*
X102103127Y-71965180D01*
X102196900Y-71493752D01*
X102196900Y-70746248D01*
X102103127Y-70274820D01*
X101836085Y-69875163D01*
X101436428Y-69608121D01*
X100965000Y-69514348D01*
X100493572Y-69608121D01*
X100093915Y-69875163D01*
X99826873Y-70274820D01*
X99733100Y-70746248D01*
X99733100Y-71493752D01*
X99826873Y-71965180D01*
X100093915Y-72364837D01*
X100253800Y-72471669D01*
X100253800Y-77622400D01*
X99999800Y-77622400D01*
X99847400Y-77774800D01*
X99847400Y-79667100D01*
X99867400Y-79667100D01*
X99867400Y-79971900D01*
X99847400Y-79971900D01*
X99847400Y-81864200D01*
X99999800Y-82016600D01*
X100451257Y-82016600D01*
X100675311Y-81923794D01*
X100846794Y-81752311D01*
X100918590Y-81578979D01*
X101477730Y-82138119D01*
X101380252Y-82203252D01*
X101312885Y-82304073D01*
X101289229Y-82423000D01*
X101289229Y-85598000D01*
X101312885Y-85716927D01*
X101380252Y-85817748D01*
X101481073Y-85885115D01*
X101600000Y-85908771D01*
X102692200Y-85908771D01*
X102692200Y-94396612D01*
X101732106Y-95356706D01*
X101577937Y-95587435D01*
X101549990Y-95727935D01*
X101523800Y-95859600D01*
X101523800Y-96097386D01*
X101481073Y-96105885D01*
X101380252Y-96173252D01*
X101312885Y-96274073D01*
X101289229Y-96393000D01*
X101289229Y-99568000D01*
X101312885Y-99686927D01*
X101380252Y-99787748D01*
X101481073Y-99855115D01*
X101600000Y-99878771D01*
X102870000Y-99878771D01*
X102988927Y-99855115D01*
X103089748Y-99787748D01*
X103157115Y-99686927D01*
X103180771Y-99568000D01*
X103180771Y-98285300D01*
X106070400Y-98285300D01*
X106070400Y-99689257D01*
X106163206Y-99913311D01*
X106334689Y-100084794D01*
X106558743Y-100177600D01*
X107010200Y-100177600D01*
X107162600Y-100025200D01*
X107162600Y-98132900D01*
X107467400Y-98132900D01*
X107467400Y-100025200D01*
X107619800Y-100177600D01*
X108071257Y-100177600D01*
X108295311Y-100084794D01*
X108466794Y-99913311D01*
X108559600Y-99689257D01*
X108559600Y-98285300D01*
X108407200Y-98132900D01*
X107467400Y-98132900D01*
X107162600Y-98132900D01*
X106222800Y-98132900D01*
X106070400Y-98285300D01*
X103180771Y-98285300D01*
X103180771Y-96393000D01*
X103157115Y-96274073D01*
X103155559Y-96271743D01*
X106070400Y-96271743D01*
X106070400Y-97675700D01*
X106222800Y-97828100D01*
X107162600Y-97828100D01*
X107162600Y-95935800D01*
X107467400Y-95935800D01*
X107467400Y-97828100D01*
X108407200Y-97828100D01*
X108559600Y-97675700D01*
X108559600Y-96271743D01*
X108466794Y-96047689D01*
X108295311Y-95876206D01*
X108071257Y-95783400D01*
X107619800Y-95783400D01*
X107467400Y-95935800D01*
X107162600Y-95935800D01*
X107010200Y-95783400D01*
X106558743Y-95783400D01*
X106334689Y-95876206D01*
X106163206Y-96047689D01*
X106070400Y-96271743D01*
X103155559Y-96271743D01*
X103089748Y-96173252D01*
X102992270Y-96108118D01*
X103777434Y-95322954D01*
X103777434Y-95377000D01*
X103805033Y-95515748D01*
X103883627Y-95633373D01*
X104001252Y-95711967D01*
X104140000Y-95739566D01*
X105410000Y-95739566D01*
X105548748Y-95711967D01*
X105666373Y-95633373D01*
X105744967Y-95515748D01*
X105772566Y-95377000D01*
X105772566Y-92202000D01*
X108909229Y-92202000D01*
X108909229Y-95377000D01*
X108932885Y-95495927D01*
X109000252Y-95596748D01*
X109101073Y-95664115D01*
X109143800Y-95672614D01*
X109143800Y-95910400D01*
X109197937Y-96182564D01*
X109352106Y-96413294D01*
X109582836Y-96567463D01*
X109855000Y-96621600D01*
X110490859Y-96621600D01*
X110582301Y-96659570D01*
X110880391Y-96659830D01*
X111155890Y-96545996D01*
X111366856Y-96335399D01*
X111481170Y-96060099D01*
X111481430Y-95762009D01*
X111367596Y-95486510D01*
X111156999Y-95275544D01*
X110881699Y-95161230D01*
X110800771Y-95161159D01*
X110800771Y-92202000D01*
X110777115Y-92083073D01*
X110709748Y-91982252D01*
X110608927Y-91914885D01*
X110490000Y-91891229D01*
X109220000Y-91891229D01*
X109101073Y-91914885D01*
X109000252Y-91982252D01*
X108932885Y-92083073D01*
X108909229Y-92202000D01*
X105772566Y-92202000D01*
X105744967Y-92063252D01*
X105666373Y-91945627D01*
X105548748Y-91867033D01*
X105537000Y-91864696D01*
X105537000Y-91812591D01*
X105612896Y-91699005D01*
X105634101Y-91592400D01*
X105670900Y-91407400D01*
X105670900Y-87109268D01*
X105708861Y-87017848D01*
X105709139Y-86699548D01*
X105670900Y-86607003D01*
X105670900Y-84315300D01*
X106070400Y-84315300D01*
X106070400Y-85719257D01*
X106163206Y-85943311D01*
X106334689Y-86114794D01*
X106558743Y-86207600D01*
X107010200Y-86207600D01*
X107162600Y-86055200D01*
X107162600Y-84162900D01*
X106222800Y-84162900D01*
X106070400Y-84315300D01*
X105670900Y-84315300D01*
X105670900Y-82301743D01*
X106070400Y-82301743D01*
X106070400Y-83705700D01*
X106222800Y-83858100D01*
X107162600Y-83858100D01*
X107162600Y-81965800D01*
X107010200Y-81813400D01*
X106558743Y-81813400D01*
X106334689Y-81906206D01*
X106163206Y-82077689D01*
X106070400Y-82301743D01*
X105670900Y-82301743D01*
X105670900Y-82201600D01*
X105612896Y-81909995D01*
X105610364Y-81906206D01*
X105537000Y-81796409D01*
X105537000Y-81744304D01*
X105548748Y-81741967D01*
X105666373Y-81663373D01*
X105744967Y-81545748D01*
X105772566Y-81407000D01*
X105772566Y-78232000D01*
X105744967Y-78093252D01*
X105666373Y-77975627D01*
X105548748Y-77897033D01*
X105410000Y-77869434D01*
X104140000Y-77869434D01*
X104114600Y-77874486D01*
X104114600Y-74056188D01*
X105552793Y-72617995D01*
X105573572Y-72631879D01*
X106045000Y-72725652D01*
X106516428Y-72631879D01*
X106916085Y-72364837D01*
X107183127Y-71965180D01*
X107276900Y-71493752D01*
X107276900Y-70746248D01*
X107183127Y-70274820D01*
X107009588Y-70015100D01*
X107620412Y-70015100D01*
X107446873Y-70274820D01*
X107353100Y-70746248D01*
X107353100Y-71493752D01*
X107446873Y-71965180D01*
X107713915Y-72364837D01*
X107873800Y-72471669D01*
X107873800Y-81813400D01*
X107619800Y-81813400D01*
X107467400Y-81965800D01*
X107467400Y-83858100D01*
X107487400Y-83858100D01*
X107487400Y-84162900D01*
X107467400Y-84162900D01*
X107467400Y-86055200D01*
X107619800Y-86207600D01*
X108032397Y-86207600D01*
X108082106Y-86281994D01*
X120283505Y-98483394D01*
X120437674Y-98586406D01*
X120514236Y-98637563D01*
X120786400Y-98691700D01*
X121609229Y-98691700D01*
X121609229Y-99568000D01*
X121632885Y-99686927D01*
X121700252Y-99787748D01*
X121801073Y-99855115D01*
X121920000Y-99878771D01*
X123190000Y-99878771D01*
X123308927Y-99855115D01*
X123409748Y-99787748D01*
X123477115Y-99686927D01*
X123500771Y-99568000D01*
X123500771Y-98285300D01*
X126390400Y-98285300D01*
X126390400Y-99689257D01*
X126483206Y-99913311D01*
X126654689Y-100084794D01*
X126878743Y-100177600D01*
X127330200Y-100177600D01*
X127482600Y-100025200D01*
X127482600Y-98132900D01*
X127787400Y-98132900D01*
X127787400Y-100025200D01*
X127939800Y-100177600D01*
X128391257Y-100177600D01*
X128615311Y-100084794D01*
X128786794Y-99913311D01*
X128879600Y-99689257D01*
X128879600Y-99175096D01*
X139593837Y-99175096D01*
X139742637Y-99692970D01*
X140078292Y-100114480D01*
X140522796Y-100360559D01*
X140215658Y-100565782D01*
X139984405Y-100911877D01*
X139903200Y-101320124D01*
X139903200Y-101879876D01*
X139984405Y-102288123D01*
X140215658Y-102634218D01*
X140522796Y-102839441D01*
X140078292Y-103085520D01*
X139742637Y-103507030D01*
X139593837Y-104024904D01*
X139745175Y-104241600D01*
X140817600Y-104241600D01*
X140817600Y-104221600D01*
X141122400Y-104221600D01*
X141122400Y-104241600D01*
X142194825Y-104241600D01*
X142346163Y-104024904D01*
X142197363Y-103507030D01*
X141861708Y-103085520D01*
X141417204Y-102839441D01*
X141724342Y-102634218D01*
X141955595Y-102288123D01*
X142036800Y-101879876D01*
X142036800Y-101600000D01*
X142417324Y-101600000D01*
X142498529Y-102008247D01*
X142729782Y-102354342D01*
X143075877Y-102585595D01*
X143484124Y-102666800D01*
X144043876Y-102666800D01*
X144452123Y-102585595D01*
X144798218Y-102354342D01*
X145029471Y-102008247D01*
X145110676Y-101600000D01*
X145029471Y-101191753D01*
X144798218Y-100845658D01*
X144452123Y-100614405D01*
X144043876Y-100533200D01*
X143484124Y-100533200D01*
X143075877Y-100614405D01*
X142729782Y-100845658D01*
X142498529Y-101191753D01*
X142417324Y-101600000D01*
X142036800Y-101600000D01*
X142036800Y-101320124D01*
X141955595Y-100911877D01*
X141724342Y-100565782D01*
X141417204Y-100360559D01*
X141861708Y-100114480D01*
X142197363Y-99692970D01*
X142346163Y-99175096D01*
X142194825Y-98958400D01*
X141122400Y-98958400D01*
X141122400Y-98978400D01*
X140817600Y-98978400D01*
X140817600Y-98958400D01*
X139745175Y-98958400D01*
X139593837Y-99175096D01*
X128879600Y-99175096D01*
X128879600Y-98436904D01*
X139593837Y-98436904D01*
X139745175Y-98653600D01*
X140817600Y-98653600D01*
X140817600Y-97342363D01*
X141122400Y-97342363D01*
X141122400Y-98653600D01*
X142194825Y-98653600D01*
X142346163Y-98436904D01*
X142197363Y-97919030D01*
X141861708Y-97497520D01*
X141390299Y-97236546D01*
X141333761Y-97229516D01*
X141122400Y-97342363D01*
X140817600Y-97342363D01*
X140606239Y-97229516D01*
X140549701Y-97236546D01*
X140078292Y-97497520D01*
X139742637Y-97919030D01*
X139593837Y-98436904D01*
X128879600Y-98436904D01*
X128879600Y-98285300D01*
X128727200Y-98132900D01*
X127787400Y-98132900D01*
X127482600Y-98132900D01*
X126542800Y-98132900D01*
X126390400Y-98285300D01*
X123500771Y-98285300D01*
X123500771Y-96393000D01*
X123477115Y-96274073D01*
X123475559Y-96271743D01*
X126390400Y-96271743D01*
X126390400Y-97675700D01*
X126542800Y-97828100D01*
X127482600Y-97828100D01*
X127482600Y-95935800D01*
X127787400Y-95935800D01*
X127787400Y-97828100D01*
X128727200Y-97828100D01*
X128879600Y-97675700D01*
X128879600Y-96271743D01*
X128786794Y-96047689D01*
X128615311Y-95876206D01*
X128391257Y-95783400D01*
X127939800Y-95783400D01*
X127787400Y-95935800D01*
X127482600Y-95935800D01*
X127330200Y-95783400D01*
X126878743Y-95783400D01*
X126654689Y-95876206D01*
X126483206Y-96047689D01*
X126390400Y-96271743D01*
X123475559Y-96271743D01*
X123409748Y-96173252D01*
X123308927Y-96105885D01*
X123190000Y-96082229D01*
X121920000Y-96082229D01*
X121801073Y-96105885D01*
X121700252Y-96173252D01*
X121632885Y-96274073D01*
X121609229Y-96393000D01*
X121609229Y-97269300D01*
X121080989Y-97269300D01*
X119754244Y-95942556D01*
X119862600Y-95834200D01*
X119862600Y-93941900D01*
X120167400Y-93941900D01*
X120167400Y-95834200D01*
X120319800Y-95986600D01*
X120771257Y-95986600D01*
X120995311Y-95893794D01*
X121166794Y-95722311D01*
X121259600Y-95498257D01*
X121259600Y-94094300D01*
X121107200Y-93941900D01*
X120167400Y-93941900D01*
X119862600Y-93941900D01*
X118922800Y-93941900D01*
X118770400Y-94094300D01*
X118770400Y-94958711D01*
X115892432Y-92080743D01*
X118770400Y-92080743D01*
X118770400Y-93484700D01*
X118922800Y-93637100D01*
X119862600Y-93637100D01*
X119862600Y-91744800D01*
X120167400Y-91744800D01*
X120167400Y-93637100D01*
X121107200Y-93637100D01*
X121259600Y-93484700D01*
X121259600Y-92080743D01*
X121166794Y-91856689D01*
X120995311Y-91685206D01*
X120771257Y-91592400D01*
X120319800Y-91592400D01*
X120167400Y-91744800D01*
X119862600Y-91744800D01*
X119710200Y-91592400D01*
X119258743Y-91592400D01*
X119034689Y-91685206D01*
X118863206Y-91856689D01*
X118770400Y-92080743D01*
X115892432Y-92080743D01*
X109296200Y-85484512D01*
X109296200Y-82359625D01*
X109352106Y-82443294D01*
X109385558Y-82465646D01*
X109495894Y-82575982D01*
X109533704Y-82667490D01*
X109744301Y-82878456D01*
X110019601Y-82992770D01*
X110317691Y-82993030D01*
X110593190Y-82879196D01*
X110804156Y-82668599D01*
X110918470Y-82393299D01*
X110918730Y-82095209D01*
X110804896Y-81819710D01*
X110651274Y-81665819D01*
X110709748Y-81626748D01*
X110777115Y-81525927D01*
X110800771Y-81407000D01*
X110800771Y-80124300D01*
X118770400Y-80124300D01*
X118770400Y-81528257D01*
X118863206Y-81752311D01*
X119034689Y-81923794D01*
X119258743Y-82016600D01*
X119710200Y-82016600D01*
X119862600Y-81864200D01*
X119862600Y-79971900D01*
X120167400Y-79971900D01*
X120167400Y-81864200D01*
X120319800Y-82016600D01*
X120771257Y-82016600D01*
X120995311Y-81923794D01*
X121166794Y-81752311D01*
X121259600Y-81528257D01*
X121259600Y-80124300D01*
X121107200Y-79971900D01*
X120167400Y-79971900D01*
X119862600Y-79971900D01*
X118922800Y-79971900D01*
X118770400Y-80124300D01*
X110800771Y-80124300D01*
X110800771Y-78232000D01*
X110777115Y-78113073D01*
X110775559Y-78110743D01*
X118770400Y-78110743D01*
X118770400Y-79514700D01*
X118922800Y-79667100D01*
X119862600Y-79667100D01*
X119862600Y-77774800D01*
X120167400Y-77774800D01*
X120167400Y-79667100D01*
X121107200Y-79667100D01*
X121259600Y-79514700D01*
X121259600Y-78110743D01*
X121166794Y-77886689D01*
X120995311Y-77715206D01*
X120771257Y-77622400D01*
X120319800Y-77622400D01*
X120167400Y-77774800D01*
X119862600Y-77774800D01*
X119710200Y-77622400D01*
X119258743Y-77622400D01*
X119034689Y-77715206D01*
X118863206Y-77886689D01*
X118770400Y-78110743D01*
X110775559Y-78110743D01*
X110709748Y-78012252D01*
X110608927Y-77944885D01*
X110490000Y-77921229D01*
X109296200Y-77921229D01*
X109296200Y-72471669D01*
X109456085Y-72364837D01*
X109723127Y-71965180D01*
X109816900Y-71493752D01*
X109816900Y-70746248D01*
X109723127Y-70274820D01*
X109549588Y-70015100D01*
X110160412Y-70015100D01*
X109986873Y-70274820D01*
X109893100Y-70746248D01*
X109893100Y-71493752D01*
X109986873Y-71965180D01*
X110253915Y-72364837D01*
X110653572Y-72631879D01*
X111125000Y-72725652D01*
X111596428Y-72631879D01*
X111996085Y-72364837D01*
X112263127Y-71965180D01*
X112356900Y-71493752D01*
X112356900Y-70746248D01*
X112263127Y-70274820D01*
X112089588Y-70015100D01*
X112700412Y-70015100D01*
X112526873Y-70274820D01*
X112433100Y-70746248D01*
X112433100Y-71493752D01*
X112526873Y-71965180D01*
X112793915Y-72364837D01*
X113193572Y-72631879D01*
X113665000Y-72725652D01*
X114136428Y-72631879D01*
X114536085Y-72364837D01*
X114803127Y-71965180D01*
X114896900Y-71493752D01*
X114896900Y-70746248D01*
X114803127Y-70274820D01*
X114629588Y-70015100D01*
X115240412Y-70015100D01*
X115066873Y-70274820D01*
X114973100Y-70746248D01*
X114973100Y-71493752D01*
X115066873Y-71965180D01*
X115333915Y-72364837D01*
X115733572Y-72631879D01*
X116205000Y-72725652D01*
X116676428Y-72631879D01*
X117076085Y-72364837D01*
X117343127Y-71965180D01*
X117436900Y-71493752D01*
X117436900Y-70746248D01*
X117343127Y-70274820D01*
X117169588Y-70015100D01*
X117780412Y-70015100D01*
X117606873Y-70274820D01*
X117513100Y-70746248D01*
X117513100Y-71493752D01*
X117606873Y-71965180D01*
X117873915Y-72364837D01*
X118273572Y-72631879D01*
X118745000Y-72725652D01*
X119216428Y-72631879D01*
X119616085Y-72364837D01*
X119883127Y-71965180D01*
X119976900Y-71493752D01*
X119976900Y-70746248D01*
X119883127Y-70274820D01*
X119709588Y-70015100D01*
X120320412Y-70015100D01*
X120146873Y-70274820D01*
X120053100Y-70746248D01*
X120053100Y-71493752D01*
X120146873Y-71965180D01*
X120413915Y-72364837D01*
X120813572Y-72631879D01*
X121285000Y-72725652D01*
X121756428Y-72631879D01*
X122156085Y-72364837D01*
X122423127Y-71965180D01*
X122516900Y-71493752D01*
X122516900Y-70746248D01*
X122423127Y-70274820D01*
X122249588Y-70015100D01*
X122860412Y-70015100D01*
X122686873Y-70274820D01*
X122593100Y-70746248D01*
X122593100Y-71493752D01*
X122686873Y-71965180D01*
X122953915Y-72364837D01*
X123353572Y-72631879D01*
X123825000Y-72725652D01*
X124296428Y-72631879D01*
X124696085Y-72364837D01*
X124963127Y-71965180D01*
X125056900Y-71493752D01*
X125056900Y-70746248D01*
X124963127Y-70274820D01*
X124789588Y-70015100D01*
X125400412Y-70015100D01*
X125226873Y-70274820D01*
X125133100Y-70746248D01*
X125133100Y-71493752D01*
X125226873Y-71965180D01*
X125493915Y-72364837D01*
X125893572Y-72631879D01*
X126365000Y-72725652D01*
X126836428Y-72631879D01*
X127133300Y-72433516D01*
X127133300Y-73595911D01*
X122052106Y-78677106D01*
X121897937Y-78907835D01*
X121843800Y-79180000D01*
X121843800Y-82127386D01*
X121801073Y-82135885D01*
X121700252Y-82203252D01*
X121632885Y-82304073D01*
X121609229Y-82423000D01*
X121609229Y-85598000D01*
X121632885Y-85716927D01*
X121700252Y-85817748D01*
X121801073Y-85885115D01*
X121920000Y-85908771D01*
X123190000Y-85908771D01*
X123308927Y-85885115D01*
X123409748Y-85817748D01*
X123477115Y-85716927D01*
X123500771Y-85598000D01*
X123500771Y-82423000D01*
X123477115Y-82304073D01*
X123409748Y-82203252D01*
X123308927Y-82135885D01*
X123266200Y-82127386D01*
X123266200Y-79474588D01*
X124097434Y-78643354D01*
X124097434Y-81407000D01*
X124125033Y-81545748D01*
X124147520Y-81579403D01*
X124072504Y-81654288D01*
X123950439Y-81948252D01*
X123950161Y-82266552D01*
X124071713Y-82560728D01*
X124296588Y-82785996D01*
X124333000Y-82801116D01*
X124333000Y-91864696D01*
X124321252Y-91867033D01*
X124203627Y-91945627D01*
X124125033Y-92063252D01*
X124097434Y-92202000D01*
X124097434Y-95377000D01*
X124125033Y-95515748D01*
X124203627Y-95633373D01*
X124321252Y-95711967D01*
X124460000Y-95739566D01*
X125730000Y-95739566D01*
X125868748Y-95711967D01*
X125986373Y-95633373D01*
X126064967Y-95515748D01*
X126092566Y-95377000D01*
X126092566Y-94559743D01*
X126101400Y-94561500D01*
X126321932Y-94561500D01*
X126413352Y-94599461D01*
X126731652Y-94599739D01*
X127025828Y-94478187D01*
X127251096Y-94253312D01*
X127373161Y-93959348D01*
X127373439Y-93641048D01*
X127251887Y-93346872D01*
X127027012Y-93121604D01*
X126733048Y-92999539D01*
X126414748Y-92999261D01*
X126389305Y-93009774D01*
X126092566Y-92713036D01*
X126092566Y-92202000D01*
X129229229Y-92202000D01*
X129229229Y-95377000D01*
X129252885Y-95495927D01*
X129320252Y-95596748D01*
X129421073Y-95664115D01*
X129463800Y-95672614D01*
X129463800Y-95910400D01*
X129517937Y-96182564D01*
X129672106Y-96413294D01*
X129902836Y-96567463D01*
X129961843Y-96579200D01*
X130017501Y-96634956D01*
X130292801Y-96749270D01*
X130590891Y-96749530D01*
X130866390Y-96635696D01*
X130982288Y-96520000D01*
X146959467Y-96520000D01*
X147098676Y-97219851D01*
X147495110Y-97813157D01*
X148088416Y-98209591D01*
X148788267Y-98348800D01*
X150931733Y-98348800D01*
X151631584Y-98209591D01*
X152224890Y-97813157D01*
X152621324Y-97219851D01*
X152760533Y-96520000D01*
X152621324Y-95820149D01*
X152224890Y-95226843D01*
X151631584Y-94830409D01*
X150931733Y-94691200D01*
X148788267Y-94691200D01*
X148088416Y-94830409D01*
X147495110Y-95226843D01*
X147098676Y-95820149D01*
X146959467Y-96520000D01*
X130982288Y-96520000D01*
X131077356Y-96425099D01*
X131191670Y-96149799D01*
X131191930Y-95851709D01*
X131078096Y-95576210D01*
X131057355Y-95555432D01*
X131097115Y-95495927D01*
X131120771Y-95377000D01*
X131120771Y-92202000D01*
X131097115Y-92083073D01*
X131029748Y-91982252D01*
X130928927Y-91914885D01*
X130810000Y-91891229D01*
X129540000Y-91891229D01*
X129421073Y-91914885D01*
X129320252Y-91982252D01*
X129252885Y-92083073D01*
X129229229Y-92202000D01*
X126092566Y-92202000D01*
X126064967Y-92063252D01*
X125986373Y-91945627D01*
X125868748Y-91867033D01*
X125857000Y-91864696D01*
X125857000Y-84315300D01*
X126390400Y-84315300D01*
X126390400Y-85719257D01*
X126483206Y-85943311D01*
X126654689Y-86114794D01*
X126878743Y-86207600D01*
X127330200Y-86207600D01*
X127482600Y-86055200D01*
X127482600Y-84162900D01*
X127787400Y-84162900D01*
X127787400Y-86055200D01*
X127939800Y-86207600D01*
X128391257Y-86207600D01*
X128615311Y-86114794D01*
X128786794Y-85943311D01*
X128879600Y-85719257D01*
X128879600Y-84315300D01*
X128727200Y-84162900D01*
X127787400Y-84162900D01*
X127482600Y-84162900D01*
X126542800Y-84162900D01*
X126390400Y-84315300D01*
X125857000Y-84315300D01*
X125857000Y-82301743D01*
X126390400Y-82301743D01*
X126390400Y-83705700D01*
X126542800Y-83858100D01*
X127482600Y-83858100D01*
X127482600Y-81965800D01*
X127787400Y-81965800D01*
X127787400Y-83858100D01*
X128727200Y-83858100D01*
X128879600Y-83705700D01*
X128879600Y-82301743D01*
X128786794Y-82077689D01*
X128615311Y-81906206D01*
X128391257Y-81813400D01*
X127939800Y-81813400D01*
X127787400Y-81965800D01*
X127482600Y-81965800D01*
X127330200Y-81813400D01*
X126878743Y-81813400D01*
X126654689Y-81906206D01*
X126483206Y-82077689D01*
X126390400Y-82301743D01*
X125857000Y-82301743D01*
X125857000Y-81744304D01*
X125868748Y-81741967D01*
X125986373Y-81663373D01*
X126064967Y-81545748D01*
X126092566Y-81407000D01*
X126092566Y-78232000D01*
X126064967Y-78093252D01*
X125986373Y-77975627D01*
X125868748Y-77897033D01*
X125730000Y-77869434D01*
X124871354Y-77869434D01*
X124893797Y-77846991D01*
X128544370Y-77846991D01*
X128658204Y-78122490D01*
X128868801Y-78333456D01*
X129144101Y-78447770D01*
X129229229Y-78447844D01*
X129229229Y-81407000D01*
X129252885Y-81525927D01*
X129320252Y-81626748D01*
X129421073Y-81694115D01*
X129540000Y-81717771D01*
X130810000Y-81717771D01*
X130928927Y-81694115D01*
X131029748Y-81626748D01*
X131097115Y-81525927D01*
X131120771Y-81407000D01*
X131120771Y-80703491D01*
X132873370Y-80703491D01*
X132987204Y-80978990D01*
X133197801Y-81189956D01*
X133290260Y-81228348D01*
X133392100Y-81330189D01*
X133392100Y-83148859D01*
X133354130Y-83240301D01*
X133353870Y-83538391D01*
X133467704Y-83813890D01*
X133678301Y-84024856D01*
X133953601Y-84139170D01*
X134251691Y-84139430D01*
X134527190Y-84025596D01*
X134738156Y-83814999D01*
X134852470Y-83539699D01*
X134852730Y-83241609D01*
X134814500Y-83149085D01*
X134814500Y-81280000D01*
X146959467Y-81280000D01*
X147098676Y-81979851D01*
X147495110Y-82573157D01*
X148088416Y-82969591D01*
X148788267Y-83108800D01*
X150931733Y-83108800D01*
X151631584Y-82969591D01*
X152224890Y-82573157D01*
X152621324Y-81979851D01*
X152760533Y-81280000D01*
X152621324Y-80580149D01*
X152224890Y-79986843D01*
X151631584Y-79590409D01*
X150931733Y-79451200D01*
X148788267Y-79451200D01*
X148088416Y-79590409D01*
X147495110Y-79986843D01*
X147098676Y-80580149D01*
X146959467Y-81280000D01*
X134814500Y-81280000D01*
X134814500Y-81035600D01*
X134760363Y-80763436D01*
X134664255Y-80619600D01*
X134606195Y-80532706D01*
X134296206Y-80222718D01*
X134258396Y-80131210D01*
X134047799Y-79920244D01*
X133772499Y-79805930D01*
X133474409Y-79805670D01*
X133198910Y-79919504D01*
X132987944Y-80130101D01*
X132873630Y-80405401D01*
X132873370Y-80703491D01*
X131120771Y-80703491D01*
X131120771Y-79363096D01*
X139593837Y-79363096D01*
X139742637Y-79880970D01*
X140078292Y-80302480D01*
X140549701Y-80563454D01*
X140606239Y-80570484D01*
X140817600Y-80457637D01*
X140817600Y-79146400D01*
X141122400Y-79146400D01*
X141122400Y-80457637D01*
X141333761Y-80570484D01*
X141390299Y-80563454D01*
X141861708Y-80302480D01*
X142197363Y-79880970D01*
X142346163Y-79363096D01*
X142194825Y-79146400D01*
X141122400Y-79146400D01*
X140817600Y-79146400D01*
X139745175Y-79146400D01*
X139593837Y-79363096D01*
X131120771Y-79363096D01*
X131120771Y-78232000D01*
X131097115Y-78113073D01*
X131029748Y-78012252D01*
X130928927Y-77944885D01*
X130886200Y-77936386D01*
X130886200Y-77698600D01*
X130832063Y-77426436D01*
X130677894Y-77195706D01*
X130447164Y-77041537D01*
X130175000Y-76987400D01*
X129534941Y-76987400D01*
X129443499Y-76949430D01*
X129145409Y-76949170D01*
X128869910Y-77063004D01*
X128658944Y-77273601D01*
X128544630Y-77548901D01*
X128544370Y-77846991D01*
X124893797Y-77846991D01*
X128347395Y-74393394D01*
X128501563Y-74162664D01*
X128555700Y-73890500D01*
X128555700Y-73775096D01*
X139593837Y-73775096D01*
X139742637Y-74292970D01*
X140078292Y-74714480D01*
X140522796Y-74960559D01*
X140215658Y-75165782D01*
X139984405Y-75511877D01*
X139903200Y-75920124D01*
X139903200Y-76479876D01*
X139984405Y-76888123D01*
X140215658Y-77234218D01*
X140522796Y-77439441D01*
X140078292Y-77685520D01*
X139742637Y-78107030D01*
X139593837Y-78624904D01*
X139745175Y-78841600D01*
X140817600Y-78841600D01*
X140817600Y-78821600D01*
X141122400Y-78821600D01*
X141122400Y-78841600D01*
X142194825Y-78841600D01*
X142346163Y-78624904D01*
X142197363Y-78107030D01*
X141861708Y-77685520D01*
X141417204Y-77439441D01*
X141724342Y-77234218D01*
X141955595Y-76888123D01*
X142036800Y-76479876D01*
X142036800Y-76200000D01*
X142417324Y-76200000D01*
X142498529Y-76608247D01*
X142729782Y-76954342D01*
X143075877Y-77185595D01*
X143484124Y-77266800D01*
X144043876Y-77266800D01*
X144452123Y-77185595D01*
X144798218Y-76954342D01*
X145029471Y-76608247D01*
X145110676Y-76200000D01*
X145029471Y-75791753D01*
X144798218Y-75445658D01*
X144452123Y-75214405D01*
X144043876Y-75133200D01*
X143484124Y-75133200D01*
X143075877Y-75214405D01*
X142729782Y-75445658D01*
X142498529Y-75791753D01*
X142417324Y-76200000D01*
X142036800Y-76200000D01*
X142036800Y-75920124D01*
X141955595Y-75511877D01*
X141724342Y-75165782D01*
X141417204Y-74960559D01*
X141861708Y-74714480D01*
X142197363Y-74292970D01*
X142346163Y-73775096D01*
X142194825Y-73558400D01*
X141122400Y-73558400D01*
X141122400Y-73578400D01*
X140817600Y-73578400D01*
X140817600Y-73558400D01*
X139745175Y-73558400D01*
X139593837Y-73775096D01*
X128555700Y-73775096D01*
X128555700Y-72445969D01*
X128993648Y-72884682D01*
X129758888Y-73202437D01*
X130587477Y-73203160D01*
X130989847Y-73036904D01*
X139593837Y-73036904D01*
X139745175Y-73253600D01*
X140817600Y-73253600D01*
X140817600Y-71942363D01*
X141122400Y-71942363D01*
X141122400Y-73253600D01*
X142194825Y-73253600D01*
X142346163Y-73036904D01*
X142197363Y-72519030D01*
X141861708Y-72097520D01*
X141390299Y-71836546D01*
X141333761Y-71829516D01*
X141122400Y-71942363D01*
X140817600Y-71942363D01*
X140606239Y-71829516D01*
X140549701Y-71836546D01*
X140078292Y-72097520D01*
X139742637Y-72519030D01*
X139593837Y-73036904D01*
X130989847Y-73036904D01*
X131353270Y-72886741D01*
X131939682Y-72301352D01*
X132257437Y-71536112D01*
X132257800Y-71120000D01*
X146959467Y-71120000D01*
X147098676Y-71819851D01*
X147495110Y-72413157D01*
X148088416Y-72809591D01*
X148788267Y-72948800D01*
X150931733Y-72948800D01*
X151631584Y-72809591D01*
X152224890Y-72413157D01*
X152621324Y-71819851D01*
X152760533Y-71120000D01*
X152621324Y-70420149D01*
X152224890Y-69826843D01*
X151631584Y-69430409D01*
X150931733Y-69291200D01*
X148788267Y-69291200D01*
X148088416Y-69430409D01*
X147495110Y-69826843D01*
X147098676Y-70420149D01*
X146959467Y-71120000D01*
X132257800Y-71120000D01*
X132258160Y-70707523D01*
X131941741Y-69941730D01*
X131356352Y-69355318D01*
X130591112Y-69037563D01*
X129762523Y-69036840D01*
X128996730Y-69353259D01*
X128471592Y-69877481D01*
X128424361Y-69806795D01*
X128347395Y-69691606D01*
X127654888Y-68999100D01*
X155155900Y-68999100D01*
X155155900Y-108800900D01*
X86144100Y-108800900D01*
X86144100Y-106306248D01*
X87033100Y-106306248D01*
X87033100Y-107053752D01*
X87126873Y-107525180D01*
X87393915Y-107924837D01*
X87793572Y-108191879D01*
X88265000Y-108285652D01*
X88736428Y-108191879D01*
X89136085Y-107924837D01*
X89403127Y-107525180D01*
X89496900Y-107053752D01*
X89496900Y-106306248D01*
X89496703Y-106305253D01*
X89522300Y-106305253D01*
X89522300Y-107054747D01*
X89619940Y-107545615D01*
X89897994Y-107961753D01*
X90314132Y-108239807D01*
X90805000Y-108337447D01*
X91295868Y-108239807D01*
X91712006Y-107961753D01*
X91990060Y-107545615D01*
X92087700Y-107054747D01*
X92087700Y-106306248D01*
X92113100Y-106306248D01*
X92113100Y-107053752D01*
X92206873Y-107525180D01*
X92473915Y-107924837D01*
X92873572Y-108191879D01*
X93345000Y-108285652D01*
X93816428Y-108191879D01*
X94216085Y-107924837D01*
X94483127Y-107525180D01*
X94576900Y-107053752D01*
X94576900Y-106306248D01*
X94653100Y-106306248D01*
X94653100Y-107053752D01*
X94746873Y-107525180D01*
X95013915Y-107924837D01*
X95413572Y-108191879D01*
X95885000Y-108285652D01*
X96356428Y-108191879D01*
X96756085Y-107924837D01*
X97023127Y-107525180D01*
X97116900Y-107053752D01*
X97116900Y-106306248D01*
X97193100Y-106306248D01*
X97193100Y-107053752D01*
X97286873Y-107525180D01*
X97553915Y-107924837D01*
X97953572Y-108191879D01*
X98425000Y-108285652D01*
X98896428Y-108191879D01*
X99296085Y-107924837D01*
X99563127Y-107525180D01*
X99656900Y-107053752D01*
X99656900Y-106306248D01*
X99733100Y-106306248D01*
X99733100Y-107053752D01*
X99826873Y-107525180D01*
X100093915Y-107924837D01*
X100493572Y-108191879D01*
X100965000Y-108285652D01*
X101436428Y-108191879D01*
X101836085Y-107924837D01*
X102103127Y-107525180D01*
X102196900Y-107053752D01*
X102196900Y-106306248D01*
X102273100Y-106306248D01*
X102273100Y-107053752D01*
X102366873Y-107525180D01*
X102633915Y-107924837D01*
X103033572Y-108191879D01*
X103505000Y-108285652D01*
X103976428Y-108191879D01*
X104376085Y-107924837D01*
X104643127Y-107525180D01*
X104736900Y-107053752D01*
X104736900Y-106306248D01*
X104813100Y-106306248D01*
X104813100Y-107053752D01*
X104906873Y-107525180D01*
X105173915Y-107924837D01*
X105573572Y-108191879D01*
X106045000Y-108285652D01*
X106516428Y-108191879D01*
X106916085Y-107924837D01*
X107183127Y-107525180D01*
X107276900Y-107053752D01*
X107276900Y-106306248D01*
X107353100Y-106306248D01*
X107353100Y-107053752D01*
X107446873Y-107525180D01*
X107713915Y-107924837D01*
X108113572Y-108191879D01*
X108585000Y-108285652D01*
X109056428Y-108191879D01*
X109456085Y-107924837D01*
X109723127Y-107525180D01*
X109816900Y-107053752D01*
X109816900Y-106306248D01*
X109893100Y-106306248D01*
X109893100Y-107053752D01*
X109986873Y-107525180D01*
X110253915Y-107924837D01*
X110653572Y-108191879D01*
X111125000Y-108285652D01*
X111596428Y-108191879D01*
X111996085Y-107924837D01*
X112263127Y-107525180D01*
X112356900Y-107053752D01*
X112356900Y-106306248D01*
X112433100Y-106306248D01*
X112433100Y-107053752D01*
X112526873Y-107525180D01*
X112793915Y-107924837D01*
X113193572Y-108191879D01*
X113665000Y-108285652D01*
X114136428Y-108191879D01*
X114536085Y-107924837D01*
X114803127Y-107525180D01*
X114896900Y-107053752D01*
X114896900Y-106306248D01*
X114973100Y-106306248D01*
X114973100Y-107053752D01*
X115066873Y-107525180D01*
X115333915Y-107924837D01*
X115733572Y-108191879D01*
X116205000Y-108285652D01*
X116676428Y-108191879D01*
X117076085Y-107924837D01*
X117343127Y-107525180D01*
X117436900Y-107053752D01*
X117436900Y-106306248D01*
X117513100Y-106306248D01*
X117513100Y-107053752D01*
X117606873Y-107525180D01*
X117873915Y-107924837D01*
X118273572Y-108191879D01*
X118745000Y-108285652D01*
X119216428Y-108191879D01*
X119616085Y-107924837D01*
X119883127Y-107525180D01*
X119976900Y-107053752D01*
X119976900Y-106306248D01*
X120053100Y-106306248D01*
X120053100Y-107053752D01*
X120146873Y-107525180D01*
X120413915Y-107924837D01*
X120813572Y-108191879D01*
X121285000Y-108285652D01*
X121756428Y-108191879D01*
X122156085Y-107924837D01*
X122423127Y-107525180D01*
X122516900Y-107053752D01*
X122516900Y-106306248D01*
X122593100Y-106306248D01*
X122593100Y-107053752D01*
X122686873Y-107525180D01*
X122953915Y-107924837D01*
X123353572Y-108191879D01*
X123825000Y-108285652D01*
X124296428Y-108191879D01*
X124696085Y-107924837D01*
X124963127Y-107525180D01*
X125056900Y-107053752D01*
X125056900Y-106306248D01*
X125133100Y-106306248D01*
X125133100Y-107053752D01*
X125226873Y-107525180D01*
X125493915Y-107924837D01*
X125893572Y-108191879D01*
X126365000Y-108285652D01*
X126836428Y-108191879D01*
X127236085Y-107924837D01*
X127503127Y-107525180D01*
X127589197Y-107092477D01*
X128091840Y-107092477D01*
X128408259Y-107858270D01*
X128993648Y-108444682D01*
X129758888Y-108762437D01*
X130587477Y-108763160D01*
X131353270Y-108446741D01*
X131939682Y-107861352D01*
X132257437Y-107096112D01*
X132257800Y-106680000D01*
X146959467Y-106680000D01*
X147098676Y-107379851D01*
X147495110Y-107973157D01*
X148088416Y-108369591D01*
X148788267Y-108508800D01*
X150931733Y-108508800D01*
X151631584Y-108369591D01*
X152224890Y-107973157D01*
X152621324Y-107379851D01*
X152760533Y-106680000D01*
X152621324Y-105980149D01*
X152224890Y-105386843D01*
X151631584Y-104990409D01*
X150931733Y-104851200D01*
X148788267Y-104851200D01*
X148088416Y-104990409D01*
X147495110Y-105386843D01*
X147098676Y-105980149D01*
X146959467Y-106680000D01*
X132257800Y-106680000D01*
X132258160Y-106267523D01*
X131941741Y-105501730D01*
X131356352Y-104915318D01*
X130989761Y-104763096D01*
X139593837Y-104763096D01*
X139742637Y-105280970D01*
X140078292Y-105702480D01*
X140549701Y-105963454D01*
X140606239Y-105970484D01*
X140817600Y-105857637D01*
X140817600Y-104546400D01*
X141122400Y-104546400D01*
X141122400Y-105857637D01*
X141333761Y-105970484D01*
X141390299Y-105963454D01*
X141861708Y-105702480D01*
X142197363Y-105280970D01*
X142346163Y-104763096D01*
X142194825Y-104546400D01*
X141122400Y-104546400D01*
X140817600Y-104546400D01*
X139745175Y-104546400D01*
X139593837Y-104763096D01*
X130989761Y-104763096D01*
X130591112Y-104597563D01*
X129762523Y-104596840D01*
X128996730Y-104913259D01*
X128410318Y-105498648D01*
X128092563Y-106263888D01*
X128091840Y-107092477D01*
X127589197Y-107092477D01*
X127596900Y-107053752D01*
X127596900Y-106306248D01*
X127503127Y-105834820D01*
X127236085Y-105435163D01*
X126836428Y-105168121D01*
X126365000Y-105074348D01*
X125893572Y-105168121D01*
X125493915Y-105435163D01*
X125226873Y-105834820D01*
X125133100Y-106306248D01*
X125056900Y-106306248D01*
X124963127Y-105834820D01*
X124696085Y-105435163D01*
X124296428Y-105168121D01*
X123825000Y-105074348D01*
X123353572Y-105168121D01*
X122953915Y-105435163D01*
X122686873Y-105834820D01*
X122593100Y-106306248D01*
X122516900Y-106306248D01*
X122423127Y-105834820D01*
X122156085Y-105435163D01*
X121756428Y-105168121D01*
X121285000Y-105074348D01*
X120813572Y-105168121D01*
X120413915Y-105435163D01*
X120146873Y-105834820D01*
X120053100Y-106306248D01*
X119976900Y-106306248D01*
X119883127Y-105834820D01*
X119616085Y-105435163D01*
X119216428Y-105168121D01*
X118745000Y-105074348D01*
X118273572Y-105168121D01*
X117873915Y-105435163D01*
X117606873Y-105834820D01*
X117513100Y-106306248D01*
X117436900Y-106306248D01*
X117343127Y-105834820D01*
X117076085Y-105435163D01*
X116676428Y-105168121D01*
X116205000Y-105074348D01*
X115733572Y-105168121D01*
X115333915Y-105435163D01*
X115066873Y-105834820D01*
X114973100Y-106306248D01*
X114896900Y-106306248D01*
X114803127Y-105834820D01*
X114536085Y-105435163D01*
X114136428Y-105168121D01*
X113665000Y-105074348D01*
X113193572Y-105168121D01*
X112793915Y-105435163D01*
X112526873Y-105834820D01*
X112433100Y-106306248D01*
X112356900Y-106306248D01*
X112263127Y-105834820D01*
X111996085Y-105435163D01*
X111596428Y-105168121D01*
X111125000Y-105074348D01*
X110653572Y-105168121D01*
X110253915Y-105435163D01*
X109986873Y-105834820D01*
X109893100Y-106306248D01*
X109816900Y-106306248D01*
X109723127Y-105834820D01*
X109456085Y-105435163D01*
X109056428Y-105168121D01*
X108585000Y-105074348D01*
X108113572Y-105168121D01*
X107713915Y-105435163D01*
X107446873Y-105834820D01*
X107353100Y-106306248D01*
X107276900Y-106306248D01*
X107183127Y-105834820D01*
X106916085Y-105435163D01*
X106516428Y-105168121D01*
X106045000Y-105074348D01*
X105573572Y-105168121D01*
X105173915Y-105435163D01*
X104906873Y-105834820D01*
X104813100Y-106306248D01*
X104736900Y-106306248D01*
X104643127Y-105834820D01*
X104376085Y-105435163D01*
X103976428Y-105168121D01*
X103505000Y-105074348D01*
X103033572Y-105168121D01*
X102633915Y-105435163D01*
X102366873Y-105834820D01*
X102273100Y-106306248D01*
X102196900Y-106306248D01*
X102103127Y-105834820D01*
X101836085Y-105435163D01*
X101436428Y-105168121D01*
X100965000Y-105074348D01*
X100493572Y-105168121D01*
X100093915Y-105435163D01*
X99826873Y-105834820D01*
X99733100Y-106306248D01*
X99656900Y-106306248D01*
X99563127Y-105834820D01*
X99296085Y-105435163D01*
X98896428Y-105168121D01*
X98425000Y-105074348D01*
X97953572Y-105168121D01*
X97553915Y-105435163D01*
X97286873Y-105834820D01*
X97193100Y-106306248D01*
X97116900Y-106306248D01*
X97023127Y-105834820D01*
X96756085Y-105435163D01*
X96356428Y-105168121D01*
X95885000Y-105074348D01*
X95413572Y-105168121D01*
X95013915Y-105435163D01*
X94746873Y-105834820D01*
X94653100Y-106306248D01*
X94576900Y-106306248D01*
X94483127Y-105834820D01*
X94216085Y-105435163D01*
X93816428Y-105168121D01*
X93345000Y-105074348D01*
X92873572Y-105168121D01*
X92473915Y-105435163D01*
X92206873Y-105834820D01*
X92113100Y-106306248D01*
X92087700Y-106306248D01*
X92087700Y-106305253D01*
X91990060Y-105814385D01*
X91712006Y-105398247D01*
X91295868Y-105120193D01*
X90805000Y-105022553D01*
X90314132Y-105120193D01*
X89897994Y-105398247D01*
X89619940Y-105814385D01*
X89522300Y-106305253D01*
X89496703Y-106305253D01*
X89403127Y-105834820D01*
X89136085Y-105435163D01*
X88736428Y-105168121D01*
X88265000Y-105074348D01*
X87793572Y-105168121D01*
X87393915Y-105435163D01*
X87126873Y-105834820D01*
X87033100Y-106306248D01*
X86144100Y-106306248D01*
X86144100Y-102012477D01*
X87451840Y-102012477D01*
X87768259Y-102778270D01*
X88353648Y-103364682D01*
X89118888Y-103682437D01*
X89947477Y-103683160D01*
X90713270Y-103366741D01*
X91299682Y-102781352D01*
X91617437Y-102016112D01*
X91618160Y-101187523D01*
X91301741Y-100421730D01*
X90716352Y-99835318D01*
X89951112Y-99517563D01*
X89122523Y-99516840D01*
X88356730Y-99833259D01*
X87770318Y-100418648D01*
X87452563Y-101183888D01*
X87451840Y-102012477D01*
X86144100Y-102012477D01*
X86144100Y-94094300D01*
X98450400Y-94094300D01*
X98450400Y-95498257D01*
X98543206Y-95722311D01*
X98714689Y-95893794D01*
X98938743Y-95986600D01*
X99390200Y-95986600D01*
X99542600Y-95834200D01*
X99542600Y-93941900D01*
X99847400Y-93941900D01*
X99847400Y-95834200D01*
X99999800Y-95986600D01*
X100451257Y-95986600D01*
X100675311Y-95893794D01*
X100846794Y-95722311D01*
X100939600Y-95498257D01*
X100939600Y-94094300D01*
X100787200Y-93941900D01*
X99847400Y-93941900D01*
X99542600Y-93941900D01*
X98602800Y-93941900D01*
X98450400Y-94094300D01*
X86144100Y-94094300D01*
X86144100Y-92080743D01*
X98450400Y-92080743D01*
X98450400Y-93484700D01*
X98602800Y-93637100D01*
X99542600Y-93637100D01*
X99542600Y-91744800D01*
X99847400Y-91744800D01*
X99847400Y-93637100D01*
X100787200Y-93637100D01*
X100939600Y-93484700D01*
X100939600Y-92080743D01*
X100846794Y-91856689D01*
X100675311Y-91685206D01*
X100451257Y-91592400D01*
X99999800Y-91592400D01*
X99847400Y-91744800D01*
X99542600Y-91744800D01*
X99390200Y-91592400D01*
X98938743Y-91592400D01*
X98714689Y-91685206D01*
X98543206Y-91856689D01*
X98450400Y-92080743D01*
X86144100Y-92080743D01*
X86144100Y-80124300D01*
X98450400Y-80124300D01*
X98450400Y-81528257D01*
X98543206Y-81752311D01*
X98714689Y-81923794D01*
X98938743Y-82016600D01*
X99390200Y-82016600D01*
X99542600Y-81864200D01*
X99542600Y-79971900D01*
X98602800Y-79971900D01*
X98450400Y-80124300D01*
X86144100Y-80124300D01*
X86144100Y-76612477D01*
X87451840Y-76612477D01*
X87768259Y-77378270D01*
X88353648Y-77964682D01*
X89118888Y-78282437D01*
X89947477Y-78283160D01*
X90364758Y-78110743D01*
X98450400Y-78110743D01*
X98450400Y-79514700D01*
X98602800Y-79667100D01*
X99542600Y-79667100D01*
X99542600Y-77774800D01*
X99390200Y-77622400D01*
X98938743Y-77622400D01*
X98714689Y-77715206D01*
X98543206Y-77886689D01*
X98450400Y-78110743D01*
X90364758Y-78110743D01*
X90713270Y-77966741D01*
X91299682Y-77381352D01*
X91617437Y-76616112D01*
X91618160Y-75787523D01*
X91301741Y-75021730D01*
X90716352Y-74435318D01*
X89951112Y-74117563D01*
X89122523Y-74116840D01*
X88356730Y-74433259D01*
X87770318Y-75018648D01*
X87452563Y-75783888D01*
X87451840Y-76612477D01*
X86144100Y-76612477D01*
X86144100Y-69850000D01*
X87027129Y-69850000D01*
X87027129Y-72390000D01*
X87050785Y-72508927D01*
X87118152Y-72609748D01*
X87218973Y-72677115D01*
X87337900Y-72700771D01*
X89192100Y-72700771D01*
X89311027Y-72677115D01*
X89411848Y-72609748D01*
X89479215Y-72508927D01*
X89502871Y-72390000D01*
X89502871Y-72263898D01*
X89826152Y-72657274D01*
X90357730Y-72940947D01*
X90415269Y-72949357D01*
X90652600Y-72838785D01*
X90652600Y-71272400D01*
X90632600Y-71272400D01*
X90632600Y-70967600D01*
X90652600Y-70967600D01*
X90652600Y-69401215D01*
X90957400Y-69401215D01*
X90957400Y-70967600D01*
X90977400Y-70967600D01*
X90977400Y-71272400D01*
X90957400Y-71272400D01*
X90957400Y-72838785D01*
X91194731Y-72949357D01*
X91252270Y-72940947D01*
X91783848Y-72657274D01*
X92166405Y-72191769D01*
X92226414Y-71994425D01*
X92473915Y-72364837D01*
X92873572Y-72631879D01*
X93345000Y-72725652D01*
X93816428Y-72631879D01*
X94216085Y-72364837D01*
X94483127Y-71965180D01*
X94576900Y-71493752D01*
X94576900Y-70746248D01*
X94653100Y-70746248D01*
X94653100Y-71493752D01*
X94746873Y-71965180D01*
X95013915Y-72364837D01*
X95413572Y-72631879D01*
X95885000Y-72725652D01*
X96356428Y-72631879D01*
X96756085Y-72364837D01*
X97023127Y-71965180D01*
X97116900Y-71493752D01*
X97116900Y-70746248D01*
X97193100Y-70746248D01*
X97193100Y-71493752D01*
X97286873Y-71965180D01*
X97553915Y-72364837D01*
X97953572Y-72631879D01*
X98425000Y-72725652D01*
X98896428Y-72631879D01*
X99296085Y-72364837D01*
X99563127Y-71965180D01*
X99656900Y-71493752D01*
X99656900Y-70746248D01*
X99563127Y-70274820D01*
X99296085Y-69875163D01*
X98896428Y-69608121D01*
X98425000Y-69514348D01*
X97953572Y-69608121D01*
X97553915Y-69875163D01*
X97286873Y-70274820D01*
X97193100Y-70746248D01*
X97116900Y-70746248D01*
X97023127Y-70274820D01*
X96756085Y-69875163D01*
X96356428Y-69608121D01*
X95885000Y-69514348D01*
X95413572Y-69608121D01*
X95013915Y-69875163D01*
X94746873Y-70274820D01*
X94653100Y-70746248D01*
X94576900Y-70746248D01*
X94483127Y-70274820D01*
X94216085Y-69875163D01*
X93816428Y-69608121D01*
X93345000Y-69514348D01*
X92873572Y-69608121D01*
X92473915Y-69875163D01*
X92226414Y-70245575D01*
X92166405Y-70048231D01*
X91783848Y-69582726D01*
X91252270Y-69299053D01*
X91194731Y-69290643D01*
X90957400Y-69401215D01*
X90652600Y-69401215D01*
X90415269Y-69290643D01*
X90357730Y-69299053D01*
X89826152Y-69582726D01*
X89502871Y-69976102D01*
X89502871Y-69850000D01*
X89479215Y-69731073D01*
X89411848Y-69630252D01*
X89311027Y-69562885D01*
X89192100Y-69539229D01*
X87337900Y-69539229D01*
X87218973Y-69562885D01*
X87118152Y-69630252D01*
X87050785Y-69731073D01*
X87027129Y-69850000D01*
X86144100Y-69850000D01*
X86144100Y-68999100D01*
X104620111Y-68999100D01*
X103997207Y-69622005D01*
M02*
